<?xml version="1.0" encoding="utf-8" standalone="no"?>
<!DOCTYPE svg PUBLIC "-//W3C//DTD SVG 1.1//EN"
  "http://www.w3.org/Graphics/SVG/1.1/DTD/svg11.dtd">
<!-- Created with matplotlib (https://matplotlib.org/) -->
<svg height="288pt" version="1.1" viewBox="0 0 432 288" width="432pt" xmlns="http://www.w3.org/2000/svg" xmlns:xlink="http://www.w3.org/1999/xlink">
 <defs>
  <style type="text/css">
*{stroke-linecap:butt;stroke-linejoin:round;}
  </style>
 </defs>
 <g id="figure_1">
  <g id="patch_1">
   <path d="M 0 288 
L 432 288 
L 432 0 
L 0 0 
z
" style="fill:#ffffff;"/>
  </g>
  <g id="axes_1">
   <g id="line2d_1">
    <path clip-path="url(#pb88cb61c50)" d="M 69.218182 171.916587 
L 73.070886 143.36785 
L 76.92359 117.404466 
L 80.776295 95.321045 
L 84.628999 78.159667 
L 88.481703 66.646618 
L 92.334407 61.151135 
L 96.187112 61.668687 
L 100.039816 67.829584 
L 103.89252 78.93191 
L 107.745224 93.996099 
L 111.597929 111.83702 
L 115.450633 131.148281 
L 119.303337 150.592718 
L 123.156041 168.892693 
L 127.008746 184.913992 
L 130.86145 197.737646 
L 134.714154 206.714973 
L 138.566858 211.502407 
L 142.419563 212.074139 
L 146.272267 208.712217 
L 150.124971 201.975327 
L 153.977675 192.648935 
L 157.83038 181.68075 
L 161.683084 170.106391 
L 165.535788 158.970749 
L 169.388493 149.250713 
L 173.241197 141.784718 
L 177.093901 137.21397 
L 180.946605 135.939295 
L 184.79931 138.096352 
L 188.652014 143.550589 
L 192.504718 151.911926 
L 196.357422 162.5677 
L 200.210127 174.731168 
L 204.062831 187.501812 
L 207.915535 199.932891 
L 211.768239 211.101295 
L 215.620944 220.174649 
L 219.473648 226.470921 
L 223.326352 229.506401 
L 227.179056 229.028813 
L 231.031761 225.033445 
L 234.884465 217.761415 
L 238.737169 207.680479 
L 242.589873 195.450022 
L 246.442578 181.872956 
L 250.295282 167.838136 
L 254.147986 154.257522 
L 258.00069 142.002604 
L 261.853395 131.844583 
L 265.706099 124.402475 
L 269.558803 120.102648 
L 273.411507 119.152464 
L 277.264212 121.529632 
L 281.116916 126.987763 
L 284.96962 135.077452 
L 288.822325 145.181145 
L 292.675029 156.559089 
L 296.527733 168.402957 
L 300.380437 179.893235 
L 304.233142 190.256282 
L 308.085846 198.817062 
L 311.93855 205.04393 
L 315.791254 208.582474 
L 319.643959 209.276244 
L 323.496663 207.173173 
L 327.349367 202.517498 
L 331.202071 195.728049 
L 335.054776 187.364689 
L 338.90748 178.0855 
L 342.760184 168.597933 
L 346.612888 159.60746 
L 350.465593 151.767418 
L 354.318297 145.633572 
L 358.171001 141.626493 
L 362.023705 140.004286 
L 365.87641 140.847379 
L 369.729114 144.056233 
L 373.581818 149.361881 
" style="fill:none;stroke:#1f77b4;stroke-linecap:square;stroke-width:1.5;"/>
   </g>
   <g id="line2d_2">
    <path clip-path="url(#pb88cb61c50)" d="M 69.218182 171.916587 
L 73.070886 134.395968 
L 76.92359 100.92737 
L 80.776295 74.097922 
L 84.628999 55.805042 
L 88.481703 47.103147 
L 92.334407 48.139482 
L 96.187112 58.182456 
L 100.039816 75.736164 
L 103.89252 98.726005 
L 107.745224 124.733407 
L 111.597929 151.253392 
L 115.450633 175.947275 
L 119.303337 196.864414 
L 123.156041 212.611215 
L 127.008746 222.452075 
L 130.86145 226.334806 
L 134.714154 224.841474 
L 138.566858 219.073552 
L 142.419563 210.48702 
L 146.272267 200.697831 
L 150.124971 191.28058 
L 153.977675 183.583056 
L 157.83038 178.576747 
L 161.683084 176.758636 
L 165.535788 178.113411 
L 169.388493 182.138176 
L 173.241197 187.924698 
L 177.093901 194.287995 
L 180.946605 199.925176 
L 184.79931 203.585537 
L 188.652014 204.232141 
L 192.504718 201.176542 
L 196.357422 194.171735 
L 200.210127 183.453369 
L 204.062831 169.725219 
L 207.915535 154.091127 
L 211.768239 137.941509 
L 215.620944 122.807351 
L 219.473648 110.197955 
L 223.326352 101.440199 
L 227.179056 97.536626 
L 231.031761 99.057363 
L 234.884465 106.077012 
L 238.737169 118.162664 
L 242.589873 134.413675 
L 246.442578 153.548371 
L 250.295282 174.027996 
L 254.147986 194.204563 
L 258.00069 212.477026 
L 261.853395 227.439742 
L 265.706099 238.00835 
L 269.558803 243.510946 
L 273.411507 243.736358 
L 277.264212 238.935988 
L 281.116916 229.780589 
L 284.96962 217.277955 
L 288.822325 202.661332 
L 292.675029 187.261032 
L 296.527733 172.373008 
L 300.380437 159.137948 
L 304.233142 148.442784 
L 308.085846 140.853696 
L 311.93855 136.586024 
L 315.791254 135.512317 
L 319.643959 137.205724 
L 323.496663 141.012221 
L 327.349367 146.142405 
L 331.202071 151.771858 
L 335.054776 157.138634 
L 338.90748 161.627237 
L 342.760184 164.830386 
L 346.612888 166.582653 
L 350.465593 166.963446 
L 354.318297 166.270297 
L 358.171001 164.966721 
L 362.023705 163.611621 
L 365.87641 162.779054 
L 369.729114 162.97802 
L 373.581818 164.58164 
" style="fill:none;stroke:#ff7f0e;stroke-linecap:square;stroke-width:1.5;"/>
   </g>
   <g id="line2d_3">
    <path clip-path="url(#pb88cb61c50)" d="M 69.218182 171.916587 
L 73.070886 130.059077 
L 76.92359 93.48526 
L 80.776295 65.662043 
L 84.628999 49.005319 
L 88.481703 44.64 
L 92.334407 52.319433 
L 96.187112 70.50946 
L 100.039816 96.621876 
L 103.89252 127.363903 
L 107.745224 159.156855 
L 111.597929 188.570054 
L 115.450633 212.715869 
L 119.303337 229.558499 
L 123.156041 238.101618 
L 127.008746 238.436579 
L 130.86145 231.651217 
L 134.714154 219.617131 
L 138.566858 204.688199 
L 142.419563 189.353331 
L 146.272267 175.890812 
L 150.124971 166.069648 
L 153.977675 160.935546 
L 157.83038 160.706725 
L 161.683084 164.789368 
L 165.535788 171.906318 
L 169.388493 180.317718 
L 173.241197 188.100606 
L 177.093901 193.447436 
L 180.946605 194.941968 
L 184.79931 191.774972 
L 188.652014 183.871039 
L 192.504718 171.910369 
L 196.357422 157.243727 
L 200.210127 141.713181 
L 204.062831 127.403644 
L 207.915535 116.359156 
L 211.768239 110.302171 
L 215.620944 110.393286 
L 219.473648 117.063152 
L 223.326352 129.938549 
L 227.179056 147.872073 
L 231.031761 169.071335 
L 234.884465 191.310732 
L 238.737169 212.198368 
L 242.589873 229.463933 
L 246.442578 241.231044 
L 250.295282 246.24 
L 254.147986 243.993619 
L 258.00069 234.808966 
L 261.853395 219.769893 
L 265.706099 200.587888 
L 269.558803 179.390056 
L 273.411507 158.461863 
L 277.264212 139.977277 
L 281.116916 125.749842 
L 284.96962 117.03472 
L 288.822325 114.404659 
L 292.675029 117.712916 
L 296.527733 126.144938 
L 300.380437 138.349373 
L 304.233142 152.629306 
L 308.085846 167.167602 
L 311.93855 180.256766 
L 315.791254 190.504129 
L 319.643959 196.987282 
L 323.496663 199.341886 
L 327.349367 197.773286 
L 331.202071 192.993463 
L 335.054776 186.094468 
L 338.90748 178.377376 
L 342.760184 171.160969 
L 346.612888 165.596261 
L 350.465593 162.511352 
L 354.318297 162.306413 
L 358.171001 164.911361 
L 362.023705 169.810133 
L 365.87641 176.126516 
L 369.729114 182.758403 
L 373.581818 188.541221 
" style="fill:none;stroke:#2ca02c;stroke-linecap:square;stroke-width:1.5;"/>
   </g>
   <g id="line2d_4">
    <path clip-path="url(#pb88cb61c50)" d="M 69.218182 171.916587 
L 73.070886 124.953531 
L 76.92359 91.67655 
L 80.776295 79.398847 
L 84.628999 88.749141 
L 88.481703 113.77068 
L 92.334407 144.062069 
L 96.187112 168.213638 
L 100.039816 177.419204 
L 103.89252 168.132364 
L 107.745224 142.978006 
L 111.597929 109.703507 
L 115.450633 78.572506 
L 119.303337 59.073051 
L 123.156041 56.991236 
L 127.008746 72.746703 
L 130.86145 101.458829 
L 134.714154 134.655635 
L 138.566858 163.029868 
L 142.419563 179.344179 
L 146.272267 180.576104 
L 150.124971 168.6656 
L 153.977675 149.687671 
L 157.83038 131.769535 
L 161.683084 122.449953 
L 165.535788 126.324642 
L 169.388493 143.699672 
L 173.241197 170.632931 
L 177.093901 200.296948 
L 180.946605 225.187859 
L 184.79931 239.460521 
L 188.652014 240.65869 
L 192.504718 230.325864 
L 196.357422 213.350758 
L 200.210127 196.300714 
L 204.062831 185.301297 
L 207.915535 184.139661 
L 211.768239 193.173082 
L 215.620944 209.350809 
L 219.473648 227.298836 
L 223.326352 241.088459 
L 227.179056 246.111443 
L 231.031761 240.474017 
L 234.884465 225.49452 
L 238.737169 205.184611 
L 242.589873 184.914882 
L 246.442578 169.711567 
L 250.295282 162.728391 
L 254.147986 164.361787 
L 258.00069 172.259257 
L 261.853395 182.182988 
L 265.706099 189.426219 
L 269.558803 190.319698 
L 273.411507 183.355645 
L 277.264212 169.594134 
L 281.116916 152.253171 
L 284.96962 135.64166 
L 288.822325 123.792662 
L 292.675029 119.233707 
L 296.527733 122.271226 
L 300.380437 130.991526 
L 304.233142 141.949896 
L 308.085846 151.306512 
L 311.93855 156.038229 
L 315.791254 154.846309 
L 319.643959 148.4896 
L 323.496663 139.462072 
L 327.349367 131.140801 
L 331.202071 126.690374 
L 335.054776 128.074311 
L 338.90748 135.477147 
L 342.760184 147.301168 
L 346.612888 160.716649 
L 350.465593 172.573014 
L 354.318297 180.373632 
L 358.171001 183.008726 
L 362.023705 181.028121 
L 365.87641 176.387228 
L 369.729114 171.766152 
L 373.581818 169.69072 
" style="fill:none;stroke:#7f7f7f;stroke-linecap:square;stroke-width:1.5;"/>
   </g>
  </g>
 </g>
 <defs>
  <clipPath id="pb88cb61c50">
   <rect height="221.76" width="334.8" x="54" y="34.56"/>
  </clipPath>
 </defs>
</svg>
