<?xml version="1.0" encoding="utf-8" standalone="no"?>
<!DOCTYPE svg PUBLIC "-//W3C//DTD SVG 1.1//EN"
  "http://www.w3.org/Graphics/SVG/1.1/DTD/svg11.dtd">
<!-- Created with matplotlib (https://matplotlib.org/) -->
<svg height="288pt" version="1.1" viewBox="0 0 432 288" width="432pt" xmlns="http://www.w3.org/2000/svg" xmlns:xlink="http://www.w3.org/1999/xlink">
 <defs>
  <style type="text/css">
*{stroke-linecap:butt;stroke-linejoin:round;}
  </style>
 </defs>
 <g id="figure_1">
  <g id="patch_1">
   <path d="M 0 288 
L 432 288 
L 432 0 
L 0 0 
z
" style="fill:#ffffff;"/>
  </g>
  <g id="axes_1">
   <g id="line2d_1">
    <path clip-path="url(#p333c04600f)" d="M 48.249545 22.13923 
L 51.096767 22.281401 
L 53.943989 22.707897 
L 56.791211 23.418718 
L 59.638432 24.413916 
L 62.485654 25.693439 
L 65.332876 27.257304 
L 68.180097 29.105495 
L 71.027319 31.23801 
L 73.874541 33.654867 
L 76.721763 36.356067 
L 79.568984 39.341592 
L 82.416206 42.611476 
L 85.263428 46.165668 
L 88.822455 51.00829 
L 92.381482 56.295185 
L 95.940509 62.026319 
L 99.499536 68.201763 
L 103.058563 74.821445 
L 106.617591 81.885454 
L 110.176618 89.393737 
L 114.44745 98.989969 
L 118.718283 109.226196 
L 122.989116 120.102115 
L 127.259948 131.617277 
L 131.530781 143.773109 
L 135.801613 156.568304 
L 140.072446 170.003148 
L 145.055084 186.485817 
L 150.037722 203.839261 
L 155.02036 222.063419 
L 160.002998 241.158409 
L 161.426609 246.774044 
L 162.138414 248.014129 
L 167.121052 228.615602 
L 172.10369 210.087861 
L 177.086328 192.430905 
L 182.068966 175.644753 
L 187.051604 159.729359 
L 191.322437 146.780743 
L 195.593269 134.471681 
L 199.864102 122.802545 
L 204.134934 111.773067 
L 208.405767 101.383463 
L 212.6766 91.63349 
L 216.947432 82.523417 
L 220.506459 75.420273 
L 224.065486 68.761507 
L 227.624514 62.54698 
L 231.183541 56.776692 
L 234.742568 51.450644 
L 238.301595 46.569025 
L 241.860622 42.131577 
L 244.707844 38.901486 
L 247.555066 35.955702 
L 250.402287 33.294346 
L 253.249509 30.917334 
L 256.096731 28.824611 
L 258.943952 27.016196 
L 261.791174 25.492089 
L 264.638396 24.252324 
L 267.485618 23.297109 
L 270.332839 22.626063 
L 273.180061 22.23936 
L 276.027283 22.136964 
L 278.874504 22.318842 
L 281.721726 22.784975 
L 284.568948 23.535917 
L 287.41617 24.570908 
L 290.263391 25.890224 
L 293.110613 27.493847 
L 295.957835 29.381743 
L 298.805056 31.553809 
L 301.652278 34.010857 
L 304.4995 36.751867 
L 307.346722 39.777219 
L 310.193943 43.086896 
L 313.041165 46.680864 
L 316.600192 51.572962 
L 320.159219 56.909905 
L 323.718246 62.690828 
L 327.277274 68.916043 
L 330.836301 75.585514 
L 334.395328 82.699172 
L 337.954355 90.256725 
L 342.225188 99.913312 
L 346.49602 110.20915 
L 350.766853 121.144776 
L 355.037685 132.720085 
L 359.308518 144.934741 
L 363.579351 157.790014 
L 367.850183 171.284634 
L 372.832821 187.836992 
L 377.815459 205.260082 
L 382.798097 223.553332 
L 387.780735 242.718514 
L 389.204346 248.354023 
L 389.916151 246.435333 
L 394.898789 227.106642 
L 399.881427 208.648731 
L 403.440455 195.997643 
L 403.440455 195.997643 
" style="fill:none;stroke:#1f77b4;stroke-linecap:square;stroke-width:1.5;"/>
   </g>
   <g id="line2d_2">
    <path clip-path="url(#p333c04600f)" d="M 48.249545 22.13923 
L 51.096767 22.266874 
L 53.943989 22.649877 
L 56.791211 23.288186 
L 59.638432 24.181818 
L 62.485654 25.330756 
L 65.332876 26.735001 
L 68.180097 28.394622 
L 71.027319 30.309548 
L 73.874541 32.479798 
L 76.721763 34.905354 
L 79.568984 37.586251 
L 82.416206 40.522455 
L 85.975233 44.551772 
L 89.53426 48.98002 
L 93.093287 53.807216 
L 96.652315 59.033272 
L 100.211342 64.658431 
L 103.770369 70.682451 
L 107.329396 77.105401 
L 110.888423 83.927333 
L 115.159256 92.639981 
L 119.430088 101.927556 
L 123.700921 111.789375 
L 127.971754 122.225707 
L 132.242586 133.236543 
L 136.513419 144.821761 
L 140.784251 156.981518 
L 145.766889 171.893924 
L 150.749527 187.588314 
L 155.732165 204.064667 
L 160.714803 221.32282 
L 165.697441 239.362976 
L 167.832858 247.333818 
L 168.544663 247.601805 
L 173.527301 229.215286 
L 178.509939 211.610693 
L 183.492577 194.788039 
L 188.475215 178.747326 
L 193.457853 163.488516 
L 198.440491 149.011633 
L 202.711324 137.225238 
L 206.982156 126.013355 
L 211.252989 115.37582 
L 215.523821 105.312875 
L 219.794654 95.824331 
L 224.065486 86.91035 
L 228.336319 78.570796 
L 231.895346 72.060029 
L 235.454373 65.948123 
L 239.0134 60.235267 
L 242.572428 54.92129 
L 246.131455 50.006226 
L 249.690482 45.490213 
L 253.249509 41.37306 
L 256.808536 37.654803 
L 259.655758 34.967559 
L 262.50298 32.535553 
L 265.350201 30.35887 
L 268.197423 28.437475 
L 271.044645 26.771508 
L 273.891866 25.360813 
L 276.739088 24.205424 
L 279.58631 23.305324 
L 282.433532 22.66053 
L 285.280753 22.271232 
L 288.127975 22.137137 
L 290.975197 22.258348 
L 293.822418 22.634849 
L 296.66964 23.266603 
L 299.516862 24.153992 
L 302.364084 25.296515 
L 305.211305 26.694344 
L 308.058527 28.347462 
L 310.905749 30.25573 
L 313.75297 32.419824 
L 316.600192 34.838964 
L 319.447414 37.513428 
L 322.294636 40.443163 
L 325.853663 44.464146 
L 329.41269 48.884681 
L 332.971717 53.703852 
L 336.530744 58.921953 
L 340.089771 64.538846 
L 343.648799 70.554962 
L 347.207826 76.969888 
L 350.766853 83.783779 
L 355.037685 92.486966 
L 359.308518 101.764701 
L 363.579351 111.616897 
L 367.850183 122.043605 
L 372.121016 133.044695 
L 376.391848 144.620325 
L 380.662681 156.770432 
L 385.645319 171.671683 
L 390.627957 187.354629 
L 395.610595 203.819758 
L 400.593233 221.066788 
L 403.440455 231.272958 
L 403.440455 231.272958 
" style="fill:none;stroke:#1f77b4;stroke-linecap:square;stroke-opacity:0.8;stroke-width:1.5;"/>
   </g>
   <g id="line2d_3">
    <path clip-path="url(#p333c04600f)" d="M 48.249545 22.13923 
L 51.096767 22.252382 
L 53.943989 22.591839 
L 56.791211 23.157618 
L 59.638432 23.949702 
L 62.485654 24.968109 
L 65.332876 26.212802 
L 68.180097 27.6838 
L 71.027319 29.381121 
L 73.874541 31.304746 
L 76.721763 33.454693 
L 80.28079 36.460365 
L 83.839817 39.819606 
L 87.398844 43.532502 
L 90.957871 47.598984 
L 94.516898 52.019086 
L 98.075925 56.792792 
L 101.634953 61.920085 
L 105.19398 67.401015 
L 108.753007 73.235548 
L 113.023839 80.703709 
L 117.294672 88.681117 
L 121.565505 97.167684 
L 125.836337 106.163446 
L 130.10717 115.668437 
L 134.378002 125.682613 
L 138.648835 136.205924 
L 143.631473 149.126757 
L 148.614111 162.740686 
L 153.596749 177.047589 
L 158.579387 192.047634 
L 163.562025 207.740796 
L 168.544663 224.12639 
L 173.527301 241.206106 
L 175.662717 248.737953 
L 178.509939 238.866063 
L 184.204382 219.510484 
L 189.18702 203.316919 
L 194.169658 187.816439 
L 199.152296 173.00901 
L 204.134934 158.894672 
L 209.117572 145.473395 
L 214.10021 132.745187 
L 218.371043 122.386962 
L 222.641876 112.537862 
L 226.912708 103.198017 
L 231.183541 94.367323 
L 235.454373 86.045858 
L 239.725206 78.233518 
L 243.996038 70.930494 
L 248.266871 64.13656 
L 251.825898 58.863932 
L 255.384925 53.94496 
L 258.943952 49.379556 
L 262.50298 45.167703 
L 266.062007 41.30961 
L 269.621034 37.805033 
L 273.180061 34.654026 
L 276.739088 31.856621 
L 279.58631 29.873333 
L 282.433532 28.116436 
L 285.280753 26.585757 
L 288.127975 25.281366 
L 290.975197 24.203262 
L 293.822418 23.351463 
L 296.66964 22.726142 
L 299.516862 22.327004 
L 302.364084 22.154189 
L 305.211305 22.207661 
L 308.058527 22.487403 
L 310.905749 22.993363 
L 313.75297 23.725992 
L 316.600192 24.684717 
L 319.447414 25.869748 
L 322.294636 27.281083 
L 325.141857 28.918671 
L 327.989079 30.782443 
L 330.836301 32.872952 
L 333.683522 35.189524 
L 337.24255 38.403498 
L 340.801577 41.971075 
L 344.360604 45.892169 
L 347.919631 50.16659 
L 351.478658 54.795427 
L 355.037685 59.777435 
L 358.596713 65.113064 
L 362.15574 70.802279 
L 366.426572 78.09593 
L 370.697405 85.899104 
L 374.968237 94.211317 
L 379.23907 103.032741 
L 383.509903 112.363377 
L 387.780735 122.203095 
L 392.051568 132.551515 
L 396.3224 143.410288 
L 401.305038 156.721768 
L 403.440455 162.63861 
L 403.440455 162.63861 
" style="fill:none;stroke:#1f77b4;stroke-linecap:square;stroke-opacity:0.6;stroke-width:1.5;"/>
   </g>
   <g id="line2d_4">
    <path clip-path="url(#p333c04600f)" d="M 48.249545 22.13923 
L 51.096767 22.237873 
L 53.943989 22.533819 
L 56.791211 23.027051 
L 59.638432 23.717587 
L 62.485654 24.605409 
L 65.332876 25.690516 
L 68.180097 26.972945 
L 71.739125 28.853405 
L 75.298152 31.042107 
L 78.857179 33.539155 
L 82.416206 36.344359 
L 85.975233 39.458013 
L 89.53426 42.879787 
L 93.093287 46.609942 
L 96.652315 50.648322 
L 100.211342 54.994961 
L 103.770369 59.649895 
L 108.041201 65.642665 
L 112.312034 72.079467 
L 116.582867 78.960146 
L 120.853699 86.284683 
L 125.124532 94.053184 
L 129.395364 102.265595 
L 133.666197 110.921873 
L 137.93703 120.022115 
L 142.919668 131.200111 
L 147.902306 142.982296 
L 152.884944 155.368738 
L 157.867582 168.359351 
L 162.85022 181.954184 
L 167.832858 196.153282 
L 172.815496 210.956578 
L 178.509939 228.614416 
L 184.204382 247.06148 
L 184.916188 248.199225 
L 190.610631 229.704227 
L 196.305075 211.998408 
L 201.999518 195.081776 
L 206.982156 180.927096 
L 211.964794 167.376683 
L 216.947432 154.430358 
L 221.93007 142.088361 
L 226.912708 130.35056 
L 231.895346 119.216948 
L 236.877984 108.687559 
L 241.148817 100.1433 
L 245.419649 92.042917 
L 249.690482 84.386411 
L 253.961314 77.173936 
L 258.232147 70.405286 
L 262.50298 64.080529 
L 266.773812 58.199787 
L 270.332839 53.638205 
L 273.891866 49.384848 
L 277.450894 45.439923 
L 281.009921 41.803136 
L 284.568948 38.474644 
L 288.127975 35.454393 
L 291.687002 32.742489 
L 295.246029 30.338895 
L 298.805056 28.243492 
L 302.364084 26.456349 
L 305.211305 25.248577 
L 308.058527 24.238091 
L 310.905749 23.425082 
L 313.75297 22.809238 
L 316.600192 22.390679 
L 319.447414 22.16939 
L 322.294636 22.145369 
L 325.141857 22.318599 
L 327.989079 22.689427 
L 330.836301 23.257351 
L 333.683522 24.022578 
L 336.530744 24.985074 
L 339.377966 26.144838 
L 342.225188 27.501837 
L 345.784215 29.475821 
L 349.343242 31.757909 
L 352.902269 34.348291 
L 356.461296 37.246932 
L 360.020323 40.453781 
L 363.579351 43.968717 
L 367.138378 47.792482 
L 370.697405 51.924213 
L 374.256432 56.364238 
L 377.815459 61.112523 
L 382.086292 67.217287 
L 386.357124 73.765547 
L 390.627957 80.758824 
L 394.898789 88.195442 
L 399.169622 96.075953 
L 403.440455 104.399943 
L 403.440455 104.399943 
" style="fill:none;stroke:#1f77b4;stroke-linecap:square;stroke-opacity:0.4;stroke-width:1.5;"/>
   </g>
   <g id="line2d_5">
    <path clip-path="url(#p333c04600f)" d="M 48.249545 22.13923 
L 51.096767 22.28102 
L 53.943989 22.704888 
L 56.791211 23.408584 
L 59.638432 24.389861 
L 62.485654 25.646539 
L 65.332876 27.176387 
L 68.180097 28.977262 
L 71.027319 31.046967 
L 73.874541 33.383409 
L 76.721763 35.984426 
L 79.568984 38.847927 
L 83.128011 42.793198 
L 86.687039 47.141307 
L 90.246066 51.888191 
L 93.805093 57.029923 
L 97.36412 62.562544 
L 100.923147 68.482214 
L 104.482174 74.7848 
L 108.753007 82.848745 
L 113.023839 91.452235 
L 117.294672 100.589061 
L 121.565505 110.252868 
L 125.836337 120.436903 
L 130.10717 131.13615 
L 135.089808 144.260236 
L 140.072446 158.066505 
L 145.055084 172.545635 
L 150.037722 187.688081 
L 155.02036 203.484802 
L 160.714803 222.327564 
L 166.409247 241.999542 
L 167.832858 247.045534 
L 168.544663 248.03535 
L 172.815496 233.220225 
L 177.086328 219.217759 
L 181.357161 206.018249 
L 185.627993 193.612144 
L 189.898826 181.989943 
L 193.457853 172.896861 
L 197.01688 164.33632 
L 200.575907 156.302976 
L 204.134934 148.791684 
L 207.693962 141.797127 
L 211.252989 135.314315 
L 214.812016 129.338008 
L 218.371043 123.863252 
L 221.218265 119.841197 
L 224.065486 116.134354 
L 226.912708 112.740258 
L 229.75993 109.656479 
L 232.607152 106.880415 
L 235.454373 104.409645 
L 238.301595 102.241764 
L 241.148817 100.374481 
L 243.996038 98.805186 
L 246.84326 97.531577 
L 249.690482 96.551304 
L 252.537704 95.862169 
L 255.384925 95.461648 
L 258.232147 95.347493 
L 261.079369 95.517403 
L 263.92659 95.969338 
L 266.773812 96.700773 
L 269.621034 97.709581 
L 272.468256 98.993497 
L 275.315477 100.550496 
L 278.162699 102.378245 
L 281.009921 104.474617 
L 283.857142 106.837501 
L 286.704364 109.46471 
L 289.551586 112.354065 
L 293.110613 116.331796 
L 296.66964 120.711812 
L 300.228667 125.490325 
L 303.787694 130.663247 
L 307.346722 136.226918 
L 310.905749 142.177224 
L 314.464776 148.510403 
L 318.735608 156.610206 
L 323.006441 165.248975 
L 327.277274 174.421296 
L 331.548106 184.119846 
L 335.818939 194.338659 
L 340.089771 205.071283 
L 345.072409 218.234565 
L 350.055047 232.079414 
L 355.037685 246.596501 
L 355.749491 248.724691 
L 357.884907 242.586585 
L 362.15574 230.557008 
L 365.714767 221.128163 
L 369.273794 212.235188 
L 372.832821 203.872763 
L 376.391848 196.035612 
L 379.950875 188.718506 
L 383.509903 181.916272 
L 387.06893 175.623776 
L 390.627957 169.835936 
L 394.186984 164.547787 
L 397.034206 160.673636 
L 399.881427 157.113607 
L 402.728649 153.865089 
L 403.440455 153.101367 
L 403.440455 153.101367 
" style="fill:none;stroke:#ff7f0e;stroke-linecap:square;stroke-width:1.5;"/>
   </g>
   <g id="line2d_6">
    <path clip-path="url(#p333c04600f)" d="M 48.249545 22.13923 
L 51.096767 22.266546 
L 53.943989 22.647162 
L 56.791211 23.279037 
L 59.638432 24.160201 
L 62.485654 25.288646 
L 65.332876 26.662403 
L 68.180097 28.279498 
L 71.027319 30.13803 
L 73.874541 32.236044 
L 76.721763 34.571656 
L 80.28079 37.822379 
L 83.839817 41.437739 
L 87.398844 45.41393 
L 90.957871 49.747755 
L 94.516898 54.435321 
L 98.075925 59.473153 
L 101.634953 64.857844 
L 105.905785 71.772384 
L 110.176618 79.175538 
L 114.44745 87.061445 
L 118.718283 95.424155 
L 122.989116 104.258403 
L 127.259948 113.558248 
L 132.242586 124.988749 
L 137.225224 137.037602 
L 142.207862 149.695087 
L 147.1905 162.953 
L 152.173138 176.803143 
L 157.867582 193.346344 
L 163.562025 210.640194 
L 169.256468 228.672667 
L 174.950912 247.432084 
L 175.662717 247.796592 
L 179.93355 233.843283 
L 184.204382 220.62746 
L 188.475215 208.140319 
L 192.746048 196.373171 
L 197.01688 185.317441 
L 201.287713 174.96462 
L 204.84674 166.868137 
L 208.405767 159.249227 
L 211.964794 152.10303 
L 215.523821 145.424938 
L 219.082848 139.210204 
L 222.641876 133.454313 
L 226.200903 128.152571 
L 229.75993 123.300637 
L 233.318957 118.893851 
L 236.166179 115.686016 
L 239.0134 112.758105 
L 241.860622 110.107774 
L 244.707844 107.732837 
L 247.555066 105.631217 
L 250.402287 103.800597 
L 253.249509 102.238841 
L 256.096731 100.943823 
L 258.943952 99.913536 
L 261.791174 99.145698 
L 264.638396 98.63825 
L 267.485618 98.389135 
L 270.332839 98.396416 
L 273.180061 98.657879 
L 276.027283 99.171552 
L 278.874504 99.93543 
L 281.721726 100.947438 
L 284.568948 102.205914 
L 287.41617 103.708543 
L 290.263391 105.453498 
L 293.110613 107.438836 
L 295.957835 109.662541 
L 298.805056 112.123134 
L 302.364084 115.528497 
L 305.923111 119.296931 
L 309.482138 123.424685 
L 313.041165 127.908584 
L 316.600192 132.744694 
L 320.159219 137.92966 
L 323.718246 143.459929 
L 327.989079 150.546869 
L 332.259912 158.121248 
L 336.530744 166.175889 
L 340.801577 174.705448 
L 345.072409 183.703783 
L 349.343242 193.166884 
L 354.32588 204.785293 
L 359.308518 217.018497 
L 364.291156 229.858288 
L 369.273794 243.295982 
L 370.697405 247.243982 
L 371.40921 248.386007 
L 375.680043 236.796414 
L 379.950875 225.916091 
L 384.221708 215.736604 
L 387.780735 207.783014 
L 391.339762 200.305519 
L 394.898789 193.299388 
L 398.457817 186.759913 
L 402.016844 180.682438 
L 403.440455 178.379823 
L 403.440455 178.379823 
" style="fill:none;stroke:#ff7f0e;stroke-linecap:square;stroke-opacity:0.8;stroke-width:1.5;"/>
   </g>
   <g id="line2d_7">
    <path clip-path="url(#p333c04600f)" d="M 48.249545 22.13923 
L 51.096767 22.252088 
L 53.943989 22.589435 
L 56.791211 23.149525 
L 59.638432 23.930541 
L 62.485654 24.930737 
L 65.332876 26.148349 
L 68.180097 27.581716 
L 71.027319 29.22904 
L 73.874541 31.088644 
L 77.433568 33.7091 
L 80.992595 36.655334 
L 84.551622 39.924077 
L 88.110649 43.512164 
L 91.669677 47.416311 
L 95.228704 51.633594 
L 98.787731 56.160709 
L 103.058563 61.997923 
L 107.329396 68.271698 
L 111.600229 74.976621 
L 115.871061 82.107972 
L 120.141894 89.660336 
L 124.412726 97.628474 
L 129.395364 107.444405 
L 134.378002 117.811908 
L 139.36064 128.723461 
L 144.343278 140.17161 
L 149.325916 152.148832 
L 154.308554 164.647735 
L 160.002998 179.561823 
L 165.697441 195.137228 
L 171.391885 211.363329 
L 177.086328 228.229831 
L 183.492577 247.95788 
L 184.204382 247.428223 
L 188.475215 234.394402 
L 192.746048 222.022208 
L 197.01688 210.303742 
L 201.287713 199.231233 
L 205.558545 188.796933 
L 209.829378 178.993246 
L 214.10021 169.812658 
L 217.659238 162.632739 
L 221.218265 155.876168 
L 224.777292 149.538606 
L 228.336319 143.616022 
L 231.895346 138.104145 
L 235.454373 132.999032 
L 239.0134 128.29648 
L 242.572428 123.992643 
L 246.131455 120.083412 
L 249.690482 116.564966 
L 252.537704 114.028912 
L 255.384925 111.738462 
L 258.232147 109.691646 
L 261.079369 107.886629 
L 263.92659 106.321355 
L 266.773812 104.993945 
L 269.621034 103.9025 
L 272.468256 103.045123 
L 275.315477 102.419975 
L 278.162699 102.025455 
L 281.009921 101.859315 
L 283.857142 101.919894 
L 286.704364 102.205343 
L 289.551586 102.714071 
L 292.398808 103.444071 
L 295.246029 104.393657 
L 298.093251 105.561056 
L 300.940473 106.94448 
L 303.787694 108.542517 
L 306.634916 110.353111 
L 310.193943 112.91284 
L 313.75297 115.7989 
L 317.311998 119.007885 
L 320.871025 122.537304 
L 324.430052 126.383188 
L 327.989079 130.542632 
L 331.548106 135.012376 
L 335.107133 139.7898 
L 339.377966 145.923964 
L 343.648799 152.491117 
L 347.919631 159.485916 
L 352.190464 166.90371 
L 356.461296 174.739059 
L 360.732129 182.987116 
L 365.714767 193.12454 
L 370.697405 203.809823 
L 375.680043 215.034584 
L 380.662681 226.791509 
L 385.645319 239.072632 
L 389.204346 248.163058 
L 389.916151 247.614721 
L 394.186984 236.916284 
L 398.457817 226.851611 
L 402.728649 217.41314 
L 403.440455 215.900412 
L 403.440455 215.900412 
" style="fill:none;stroke:#ff7f0e;stroke-linecap:square;stroke-opacity:0.6;stroke-width:1.5;"/>
   </g>
   <g id="line2d_8">
    <path clip-path="url(#p333c04600f)" d="M 48.249545 22.13923 
L 51.096767 22.237613 
L 53.943989 22.531726 
L 56.791211 23.019996 
L 59.638432 23.700899 
L 62.485654 24.572862 
L 65.332876 25.634381 
L 68.891903 27.22557 
L 72.45093 29.107674 
L 76.009957 31.277768 
L 79.568984 33.733 
L 83.128011 36.470568 
L 86.687039 39.487602 
L 90.246066 42.781369 
L 93.805093 46.349102 
L 97.36412 50.188051 
L 101.634953 55.149065 
L 105.905785 60.492026 
L 110.176618 66.212733 
L 114.44745 72.306377 
L 118.718283 78.768567 
L 122.989116 85.59496 
L 127.971754 94.013564 
L 132.954392 102.91511 
L 137.93703 112.292949 
L 142.919668 122.140345 
L 147.902306 132.450926 
L 153.596749 144.793261 
L 159.291192 157.722249 
L 164.985636 171.229467 
L 170.680079 185.305002 
L 176.374523 199.9393 
L 182.780772 217.061908 
L 189.18702 234.868359 
L 193.457853 247.113539 
L 194.169658 248.438462 
L 198.440491 236.317846 
L 202.711324 224.783104 
L 206.982156 213.827199 
L 211.252989 203.443163 
L 215.523821 193.624292 
L 219.794654 184.363821 
L 224.065486 175.655078 
L 228.336319 167.491469 
L 232.607152 159.866463 
L 236.166179 153.919184 
L 239.725206 148.337743 
L 243.284233 143.118647 
L 246.84326 138.258153 
L 250.402287 133.752819 
L 253.961314 129.599012 
L 257.520342 125.793241 
L 261.079369 122.332141 
L 264.638396 119.212192 
L 268.197423 116.430006 
L 271.75645 113.982202 
L 274.603672 112.262616 
L 277.450894 110.753165 
L 280.298115 109.45225 
L 283.145337 108.358193 
L 285.992559 107.469342 
L 288.83978 106.784055 
L 291.687002 106.300922 
L 294.534224 106.018024 
L 297.381446 105.933882 
L 300.228667 106.046878 
L 303.075889 106.355432 
L 305.923111 106.858288 
L 308.770332 107.553493 
L 311.617554 108.439654 
L 314.464776 109.515242 
L 318.023803 111.123682 
L 321.58283 113.023269 
L 325.141857 115.210475 
L 328.700884 117.682646 
L 332.259912 120.436894 
L 335.818939 123.470253 
L 339.377966 126.780786 
L 342.936993 130.364784 
L 346.49602 134.219868 
L 350.766853 139.199922 
L 355.037685 144.561492 
L 359.308518 150.301187 
L 363.579351 156.413275 
L 367.850183 162.893709 
L 372.121016 169.73795 
L 377.103654 178.177379 
L 382.086292 187.099392 
L 387.06893 196.497404 
L 392.051568 206.36458 
L 397.034206 216.69482 
L 402.728649 229.059165 
L 403.440455 230.646063 
L 403.440455 230.646063 
" style="fill:none;stroke:#ff7f0e;stroke-linecap:square;stroke-opacity:0.4;stroke-width:1.5;"/>
   </g>
   <g id="line2d_9">
    <path clip-path="url(#p333c04600f)" d="M 48.249545 22.13923 
L 51.096767 22.28064 
L 53.943989 22.701896 
L 56.791211 23.398519 
L 59.638432 24.366186 
L 62.485654 25.600538 
L 65.332876 27.097373 
L 68.180097 28.85254 
L 71.027319 30.861855 
L 73.874541 33.121462 
L 76.721763 35.627226 
L 80.28079 39.099723 
L 83.839817 42.94329 
L 87.398844 47.150646 
L 90.957871 51.714407 
L 94.516898 56.627915 
L 98.075925 61.883889 
L 102.346758 68.633689 
L 106.617591 75.855589 
L 110.888423 83.538312 
L 115.159256 91.671034 
L 119.430088 100.242981 
L 124.412726 110.784977 
L 129.395364 121.89462 
L 134.378002 133.555783 
L 139.36064 145.754365 
L 145.055084 160.33347 
L 150.749527 175.572665 
L 156.443971 191.451366 
L 162.138414 207.949194 
L 168.544663 227.225417 
L 174.950912 247.233755 
L 175.662717 248.121922 
L 179.221744 237.151108 
L 182.780772 226.837387 
L 186.339799 217.167749 
L 189.898826 208.129467 
L 193.457853 199.70999 
L 197.01688 191.89711 
L 200.575907 184.678799 
L 204.134934 178.043288 
L 206.982156 173.146728 
L 209.829378 168.609945 
L 212.6766 164.427276 
L 215.523821 160.593039 
L 218.371043 157.101761 
L 221.218265 153.947969 
L 224.065486 151.126276 
L 226.912708 148.63151 
L 229.75993 146.458372 
L 232.607152 144.601777 
L 235.454373 143.056797 
L 238.301595 141.818372 
L 241.148817 140.881661 
L 243.996038 140.241943 
L 246.84326 139.894418 
L 249.690482 139.834479 
L 252.537704 140.057506 
L 255.384925 140.559221 
L 258.232147 141.334954 
L 261.079369 142.380433 
L 263.92659 143.691439 
L 266.773812 145.263683 
L 269.621034 147.093058 
L 272.468256 149.175422 
L 275.315477 151.506874 
L 278.162699 154.083361 
L 281.721726 157.642689 
L 285.280753 161.57135 
L 288.83978 165.862156 
L 292.398808 170.507829 
L 295.957835 175.501389 
L 299.516862 180.835863 
L 303.787694 187.677921 
L 308.058527 194.989851 
L 312.32936 202.760544 
L 316.600192 210.978821 
L 320.871025 219.634813 
L 325.853663 230.272064 
L 330.836301 241.474175 
L 333.683522 248.123138 
L 334.395328 247.814445 
L 337.954355 239.746429 
L 341.513382 232.277998 
L 345.072409 225.397331 
L 348.631437 219.09278 
L 351.478658 214.456262 
L 354.32588 210.175414 
L 357.173102 206.24458 
L 360.020323 202.658213 
L 362.867545 199.410862 
L 365.714767 196.497106 
L 368.561989 193.911691 
L 371.40921 191.649387 
L 374.256432 189.705053 
L 377.103654 188.073656 
L 379.950875 186.750242 
L 382.798097 185.729877 
L 385.645319 185.007828 
L 388.492541 184.579278 
L 391.339762 184.439628 
L 394.186984 184.584255 
L 397.034206 185.008641 
L 399.881427 185.708411 
L 402.728649 186.679117 
L 403.440455 186.963611 
L 403.440455 186.963611 
" style="fill:none;stroke:#2ca02c;stroke-linecap:square;stroke-width:1.5;"/>
   </g>
   <g id="line2d_10">
    <path clip-path="url(#p333c04600f)" d="M 48.249545 22.13923 
L 51.096767 22.2662 
L 53.943989 22.644464 
L 56.791211 23.27001 
L 59.638432 24.138912 
L 62.485654 25.247332 
L 65.332876 26.591429 
L 68.180097 28.167487 
L 71.027319 29.971768 
L 73.874541 32.000816 
L 77.433568 34.847524 
L 80.992595 38.032877 
L 84.551622 41.550095 
L 88.110649 45.392676 
L 91.669677 49.554135 
L 95.228704 54.028177 
L 99.499536 59.800868 
L 103.770369 66.004396 
L 108.041201 72.628402 
L 112.312034 79.662943 
L 116.582867 87.09835 
L 121.565505 96.266858 
L 126.548143 105.95332 
L 131.530781 116.143381 
L 136.513419 126.823165 
L 141.496057 137.979181 
L 147.1905 151.294932 
L 152.884944 165.196774 
L 158.579387 179.665844 
L 164.985636 196.59929 
L 171.391885 214.203673 
L 177.798134 232.455074 
L 182.780772 247.083329 
L 183.492577 248.418509 
L 187.051604 238.132698 
L 190.610631 228.445511 
L 194.169658 219.345133 
L 197.728686 210.819919 
L 201.287713 202.858508 
L 204.84674 195.449724 
L 208.405767 188.582621 
L 211.964794 182.24649 
L 215.523821 176.430798 
L 219.082848 171.125204 
L 221.93007 167.241282 
L 224.777292 163.672252 
L 227.624514 160.413202 
L 230.471735 157.459152 
L 233.318957 154.80525 
L 236.166179 152.446845 
L 239.0134 150.379112 
L 241.860622 148.597468 
L 244.707844 147.097459 
L 247.555066 145.874512 
L 250.402287 144.924252 
L 253.249509 144.242346 
L 256.096731 143.824644 
L 258.943952 143.666804 
L 261.791174 143.76473 
L 264.638396 144.114477 
L 267.485618 144.711921 
L 270.332839 145.553153 
L 273.180061 146.634223 
L 276.027283 147.951671 
L 278.874504 149.501372 
L 281.721726 151.27974 
L 284.568948 153.283218 
L 288.127975 156.098599 
L 291.687002 159.253213 
L 295.246029 162.740202 
L 298.805056 166.553375 
L 302.364084 170.68591 
L 305.923111 175.131573 
L 309.482138 179.884194 
L 313.75297 185.983968 
L 318.023803 192.506742 
L 322.294636 199.442112 
L 326.565468 206.781297 
L 330.836301 214.513792 
L 335.818939 224.020028 
L 340.801577 234.034846 
L 345.784215 244.54424 
L 347.207826 247.635843 
L 347.919631 248.425959 
L 351.478658 240.914269 
L 355.037685 233.946301 
L 358.596713 227.511284 
L 362.15574 221.598676 
L 365.714767 216.198114 
L 368.561989 212.239533 
L 371.40921 208.5971 
L 374.256432 205.265698 
L 377.103654 202.240523 
L 379.950875 199.516643 
L 382.798097 197.089292 
L 385.645319 194.953742 
L 388.492541 193.105422 
L 391.339762 191.539685 
L 394.186984 190.252138 
L 397.034206 189.238284 
L 399.881427 188.493831 
L 402.728649 188.014473 
L 403.440455 187.935557 
L 403.440455 187.935557 
" style="fill:none;stroke:#2ca02c;stroke-linecap:square;stroke-opacity:0.8;stroke-width:1.5;"/>
   </g>
   <g id="line2d_11">
    <path clip-path="url(#p333c04600f)" d="M 48.249545 22.13923 
L 51.096767 22.251794 
L 53.943989 22.587066 
L 56.791211 23.141518 
L 59.638432 23.911674 
L 62.485654 24.894126 
L 65.332876 26.085486 
L 68.180097 27.482468 
L 71.739125 29.512829 
L 75.298152 31.853093 
L 78.857179 34.497086 
L 82.416206 37.43884 
L 85.975233 40.672339 
L 89.53426 44.192082 
L 93.093287 47.992138 
L 97.36412 52.914517 
L 101.634953 58.223324 
L 105.905785 63.909339 
L 110.176618 69.963675 
L 114.44745 76.377511 
L 119.430088 84.303488 
L 124.412726 92.694058 
L 129.395364 101.536356 
L 134.378002 110.817999 
L 139.36064 120.526847 
L 145.055084 132.130536 
L 150.749527 144.259761 
L 156.443971 156.897895 
L 162.85022 171.704117 
L 169.256468 187.112189 
L 175.662717 203.100494 
L 182.068966 219.649158 
L 189.18702 238.669004 
L 192.746048 248.420808 
L 193.457853 247.240279 
L 197.01688 237.764099 
L 200.575907 228.825653 
L 204.134934 220.414305 
L 207.693962 212.519587 
L 211.252989 205.1313 
L 214.812016 198.239407 
L 218.371043 191.834079 
L 221.93007 185.905654 
L 225.489097 180.444754 
L 229.048124 175.44208 
L 232.607152 170.888514 
L 235.454373 167.563126 
L 238.301595 164.514972 
L 241.148817 161.739764 
L 243.996038 159.233074 
L 246.84326 156.990667 
L 249.690482 155.008416 
L 252.537704 153.282103 
L 255.384925 151.807672 
L 258.232147 150.581162 
L 261.079369 149.598701 
L 263.92659 148.856276 
L 266.773812 148.350125 
L 269.621034 148.076583 
L 272.468256 148.031853 
L 275.315477 148.212338 
L 278.162699 148.614441 
L 281.009921 149.23473 
L 283.857142 150.069651 
L 286.704364 151.11583 
L 289.551586 152.369871 
L 292.398808 153.828582 
L 295.957835 155.934716 
L 299.516862 158.349239 
L 303.075889 161.065917 
L 306.634916 164.079146 
L 310.193943 167.382692 
L 313.75297 170.970884 
L 317.311998 174.838151 
L 321.58283 179.839433 
L 325.853663 185.225261 
L 330.124495 190.986392 
L 334.395328 197.114182 
L 338.666161 203.599744 
L 343.648799 211.607165 
L 348.631437 220.076895 
L 353.614075 228.996244 
L 358.596713 238.352805 
L 363.579351 248.134428 
L 364.291156 248.059354 
L 367.850183 241.201945 
L 371.40921 234.830405 
L 374.968237 228.93515 
L 378.527265 223.506678 
L 382.086292 218.535809 
L 385.645319 214.013473 
L 388.492541 210.712577 
L 391.339762 207.688565 
L 394.186984 204.937075 
L 397.034206 202.453776 
L 399.881427 200.234368 
L 402.728649 198.274695 
L 403.440455 197.824895 
L 403.440455 197.824895 
" style="fill:none;stroke:#2ca02c;stroke-linecap:square;stroke-opacity:0.6;stroke-width:1.5;"/>
   </g>
   <g id="line2d_12">
    <path clip-path="url(#p333c04600f)" d="M 48.249545 22.13923 
L 51.096767 22.237354 
L 53.943989 22.529634 
L 56.791211 23.013009 
L 59.638432 23.684435 
L 63.197459 24.783637 
L 66.756487 26.166282 
L 70.315514 27.82675 
L 73.874541 29.759541 
L 77.433568 31.959294 
L 80.992595 34.420648 
L 84.551622 37.13857 
L 88.110649 40.107805 
L 92.381482 43.995764 
L 96.652315 48.23015 
L 100.923147 52.802748 
L 105.19398 57.705534 
L 109.464812 62.930536 
L 113.735645 68.470523 
L 118.718283 75.321543 
L 123.700921 82.579189 
L 128.683559 90.232323 
L 133.666197 98.269878 
L 139.36064 107.913019 
L 145.055084 118.029142 
L 150.749527 128.602924 
L 156.443971 139.621118 
L 162.85022 152.529189 
L 169.256468 165.96175 
L 175.662717 179.900471 
L 182.780772 195.959775 
L 189.898826 212.597998 
L 197.01688 229.79266 
L 204.134934 247.521867 
L 204.84674 248.298903 
L 209.117572 237.865477 
L 213.388405 228.118094 
L 216.947432 220.5076 
L 220.506459 213.353007 
L 224.065486 206.64533 
L 227.624514 200.37564 
L 231.183541 194.535292 
L 234.742568 189.115845 
L 238.301595 184.108917 
L 241.860622 179.506306 
L 245.419649 175.300099 
L 248.978676 171.482352 
L 252.537704 168.045437 
L 256.096731 164.981754 
L 258.943952 162.794625 
L 261.791174 160.8379 
L 264.638396 159.107972 
L 267.485618 157.601254 
L 270.332839 156.314147 
L 273.180061 155.243177 
L 276.027283 154.384911 
L 278.874504 153.736113 
L 281.721726 153.293257 
L 284.568948 153.053143 
L 287.41617 153.012607 
L 290.263391 153.168414 
L 293.110613 153.517469 
L 295.957835 154.056677 
L 298.805056 154.783132 
L 302.364084 155.949822 
L 305.923111 157.398624 
L 309.482138 159.123856 
L 313.041165 161.120314 
L 316.600192 163.382376 
L 320.159219 165.90482 
L 323.718246 168.68257 
L 327.277274 171.710516 
L 331.548106 175.667356 
L 335.818939 179.968785 
L 340.089771 184.607225 
L 344.360604 189.574123 
L 348.631437 194.861813 
L 352.902269 200.462792 
L 357.884907 207.383246 
L 362.867545 214.708468 
L 367.850183 222.427128 
L 372.832821 230.528683 
L 378.527265 240.24259 
L 382.798097 247.837774 
L 383.509903 248.493075 
L 387.06893 242.266979 
L 390.627957 236.469379 
L 394.186984 231.091789 
L 397.746011 226.125887 
L 401.305038 221.563535 
L 403.440455 219.016493 
L 403.440455 219.016493 
" style="fill:none;stroke:#2ca02c;stroke-linecap:square;stroke-opacity:0.4;stroke-width:1.5;"/>
   </g>
   <g id="line2d_13">
    <path clip-path="url(#p333c04600f)" d="M 48.249545 22.13923 
L 51.096767 22.280277 
L 53.943989 22.698922 
L 56.791211 23.388575 
L 59.638432 24.342856 
L 62.485654 25.555436 
L 65.332876 27.020226 
L 68.180097 28.731225 
L 71.027319 30.682589 
L 73.874541 32.868646 
L 77.433568 35.922757 
L 80.992595 39.324229 
L 84.551622 43.062962 
L 88.110649 47.128752 
L 91.669677 51.512192 
L 95.228704 56.203701 
L 99.499536 62.227427 
L 103.770369 68.666564 
L 108.041201 75.506343 
L 112.312034 82.732688 
L 117.294672 91.633645 
L 122.27731 101.021403 
L 127.259948 110.875751 
L 132.954392 122.684594 
L 138.648835 135.050552 
L 144.343278 147.947365 
L 150.749527 163.060057 
L 157.155776 178.779566 
L 163.562025 195.073963 
L 170.680079 213.816572 
L 177.798134 233.192393 
L 182.780772 247.11247 
L 183.492577 248.497419 
L 187.051604 238.821262 
L 190.610631 229.868791 
L 194.169658 221.618531 
L 197.01688 215.510006 
L 199.864102 209.827289 
L 202.711324 204.56029 
L 205.558545 199.699121 
L 208.405767 195.234219 
L 211.252989 191.156142 
L 214.10021 187.455697 
L 216.947432 184.124001 
L 219.794654 181.152225 
L 222.641876 178.531912 
L 225.489097 176.254657 
L 228.336319 174.31239 
L 231.183541 172.69711 
L 234.030762 171.401063 
L 236.877984 170.41676 
L 239.725206 169.736713 
L 242.572428 169.353763 
L 245.419649 169.260835 
L 248.266871 169.451048 
L 251.114093 169.917743 
L 253.961314 170.654297 
L 256.808536 171.65432 
L 259.655758 172.911612 
L 262.50298 174.420025 
L 265.350201 176.173619 
L 268.197423 178.166549 
L 271.044645 180.393232 
L 274.603672 183.496747 
L 278.162699 186.946213 
L 281.721726 190.731405 
L 285.280753 194.842414 
L 288.83978 199.269607 
L 293.110613 204.986427 
L 297.381446 211.12951 
L 301.652278 217.683766 
L 305.923111 224.634357 
L 310.193943 231.968052 
L 315.176581 240.98932 
L 318.735608 247.728836 
L 319.447414 248.516138 
L 322.294636 243.226703 
L 325.141857 238.343652 
L 327.989079 233.857353 
L 330.836301 229.758404 
L 333.683522 226.037603 
L 336.530744 222.685988 
L 339.377966 219.694811 
L 342.225188 217.055531 
L 345.072409 214.759753 
L 347.919631 212.799402 
L 350.766853 211.166475 
L 353.614075 209.853238 
L 356.461296 208.852091 
L 359.308518 208.155628 
L 362.15574 207.75665 
L 365.002961 207.648072 
L 367.850183 207.823023 
L 370.697405 208.274777 
L 373.544627 208.996748 
L 376.391848 209.982595 
L 379.23907 211.225991 
L 382.086292 212.720852 
L 384.933513 214.461219 
L 387.780735 216.441256 
L 390.627957 218.655302 
L 394.186984 221.743478 
L 397.746011 225.178045 
L 401.305038 228.948804 
L 403.440455 231.368422 
L 403.440455 231.368422 
" style="fill:none;stroke:#d62728;stroke-linecap:square;stroke-width:1.5;"/>
   </g>
   <g id="line2d_14">
    <path clip-path="url(#p333c04600f)" d="M 48.249545 22.13923 
L 51.096767 22.265871 
L 53.943989 22.641783 
L 56.791211 23.261086 
L 59.638432 24.11797 
L 62.485654 25.206813 
L 65.332876 26.522134 
L 68.180097 28.058519 
L 71.027319 29.810799 
L 74.586346 32.296866 
L 78.145373 35.102485 
L 81.704401 38.218196 
L 85.263428 41.634852 
L 88.822455 45.343511 
L 92.381482 49.335613 
L 96.652315 54.488344 
L 100.923147 60.023351 
L 105.19398 65.926765 
L 109.464812 72.185719 
L 114.44745 79.920445 
L 119.430088 88.102713 
L 124.412726 96.714227 
L 129.395364 105.737149 
L 135.089808 116.53152 
L 140.784251 127.817126 
L 146.478695 139.570897 
L 152.884944 153.326409 
L 159.291192 167.616917 
L 165.697441 182.414765 
L 172.815496 199.419081 
L 179.93355 216.981847 
L 187.76341 236.907361 
L 192.034242 248.029485 
L 192.746048 247.726683 
L 196.305075 238.790251 
L 199.864102 230.510946 
L 203.423129 222.869351 
L 206.982156 215.846624 
L 209.829378 210.661712 
L 212.6766 205.852005 
L 215.523821 201.408673 
L 218.371043 197.322999 
L 221.218265 193.586467 
L 224.065486 190.190866 
L 226.912708 187.128043 
L 229.75993 184.390155 
L 232.607152 181.969458 
L 235.454373 179.858474 
L 238.301595 178.049795 
L 241.148817 176.536345 
L 243.996038 175.311029 
L 246.84326 174.367072 
L 249.690482 173.697773 
L 252.537704 173.296612 
L 255.384925 173.157295 
L 258.232147 173.273534 
L 261.079369 173.639277 
L 263.92659 174.24868 
L 266.773812 175.095887 
L 269.621034 176.175262 
L 272.468256 177.481383 
L 275.315477 179.008784 
L 278.162699 180.752231 
L 281.721726 183.227606 
L 285.280753 186.02284 
L 288.83978 189.128457 
L 292.398808 192.535333 
L 295.957835 196.234536 
L 299.516862 200.217429 
L 303.787694 205.359304 
L 308.058527 210.884134 
L 312.32936 216.777646 
L 316.600192 223.026879 
L 321.58283 230.750912 
L 326.565468 238.922884 
L 331.548106 247.524455 
L 332.259912 248.787273 
L 337.24255 240.53022 
L 340.089771 236.285329 
L 342.936993 232.393373 
L 345.784215 228.845995 
L 348.631437 225.63503 
L 351.478658 222.752496 
L 354.32588 220.190607 
L 357.173102 217.941751 
L 360.020323 215.998493 
L 362.867545 214.353622 
L 365.714767 213.000035 
L 368.561989 211.93082 
L 371.40921 211.139259 
L 374.256432 210.618737 
L 377.103654 210.36286 
L 379.950875 210.365316 
L 382.798097 210.620017 
L 385.645319 211.120945 
L 388.492541 211.862285 
L 391.339762 212.838326 
L 394.186984 214.043467 
L 397.034206 215.472379 
L 399.881427 217.119662 
L 402.728649 218.980122 
L 403.440455 219.477927 
L 403.440455 219.477927 
" style="fill:none;stroke:#d62728;stroke-linecap:square;stroke-opacity:0.8;stroke-width:1.5;"/>
   </g>
   <g id="line2d_15">
    <path clip-path="url(#p333c04600f)" d="M 48.249545 22.13923 
L 51.096767 22.251483 
L 53.943989 22.584697 
L 56.791211 23.133632 
L 59.638432 23.893152 
L 62.485654 24.858259 
L 65.332876 26.024111 
L 68.891903 27.756451 
L 72.45093 29.785948 
L 76.009957 32.103834 
L 79.568984 34.701548 
L 83.128011 37.57086 
L 86.687039 40.703727 
L 90.246066 44.092367 
L 94.516898 48.485699 
L 98.787731 53.223849 
L 103.058563 58.29447 
L 107.329396 63.68613 
L 112.312034 70.366686 
L 117.294672 77.451188 
L 122.27731 84.92305 
L 127.259948 92.765965 
L 132.954392 102.165153 
L 138.648835 112.007422 
L 144.343278 122.272253 
L 150.749527 134.300742 
L 157.155776 146.812131 
L 163.562025 159.781205 
L 170.680079 174.698643 
L 177.798134 190.120351 
L 185.627993 207.631453 
L 193.457853 225.680255 
L 201.999518 245.942879 
L 202.711324 247.657194 
L 203.423129 248.247472 
L 206.982156 239.995845 
L 210.541183 232.336445 
L 214.10021 225.25177 
L 217.659238 218.724853 
L 221.218265 212.739173 
L 224.777292 207.278762 
L 227.624514 203.278173 
L 230.471735 199.596047 
L 233.318957 196.224891 
L 236.166179 193.157256 
L 239.0134 190.386025 
L 241.860622 187.904083 
L 244.707844 185.704659 
L 247.555066 183.780969 
L 250.402287 182.126519 
L 253.249509 180.734942 
L 256.096731 179.599946 
L 258.943952 178.715519 
L 261.791174 178.075653 
L 264.638396 177.674562 
L 267.485618 177.50664 
L 270.332839 177.56629 
L 273.180061 177.848125 
L 276.027283 178.346922 
L 278.874504 179.057492 
L 281.721726 179.974817 
L 284.568948 181.094019 
L 287.41617 182.410286 
L 290.975197 184.325641 
L 294.534224 186.532752 
L 298.093251 189.022991 
L 301.652278 191.787974 
L 305.211305 194.819613 
L 308.770332 198.110007 
L 313.041165 202.38927 
L 317.311998 207.017372 
L 321.58283 211.981975 
L 325.853663 217.271163 
L 330.836301 223.836812 
L 335.818939 230.811166 
L 340.801577 238.177335 
L 345.784215 245.91931 
L 347.207826 248.198115 
L 347.919631 248.275922 
L 351.478658 242.832191 
L 354.32588 238.844592 
L 357.173102 235.175171 
L 360.020323 231.816378 
L 362.867545 228.76085 
L 365.714767 226.001398 
L 368.561989 223.531006 
L 371.40921 221.342814 
L 374.256432 219.430123 
L 377.103654 217.786393 
L 379.950875 216.405277 
L 382.798097 215.280506 
L 385.645319 214.406048 
L 388.492541 213.775915 
L 391.339762 213.384367 
L 394.186984 213.225689 
L 397.034206 213.294425 
L 399.881427 213.585114 
L 402.728649 214.092548 
L 403.440455 214.252662 
L 403.440455 214.252662 
" style="fill:none;stroke:#d62728;stroke-linecap:square;stroke-opacity:0.6;stroke-width:1.5;"/>
   </g>
   <g id="line2d_16">
    <path clip-path="url(#p333c04600f)" d="M 48.249545 22.13923 
L 51.096767 22.237094 
L 53.943989 22.527593 
L 56.791211 23.006126 
L 60.350238 23.861989 
L 63.909265 24.996245 
L 67.468292 26.40068 
L 71.027319 28.067287 
L 74.586346 29.988353 
L 78.145373 32.156337 
L 81.704401 34.563926 
L 85.263428 37.204061 
L 89.53426 40.66952 
L 93.805093 44.448426 
L 98.075925 48.52978 
L 102.346758 52.902809 
L 107.329396 58.359632 
L 112.312034 64.183686 
L 117.294672 70.359924 
L 122.27731 76.873839 
L 127.971754 84.71397 
L 133.666197 92.95725 
L 139.36064 101.58438 
L 145.766889 111.727446 
L 152.173138 122.309261 
L 158.579387 133.307248 
L 165.697441 145.988616 
L 172.815496 159.128214 
L 180.645355 174.079444 
L 188.475215 189.519505 
L 197.01688 206.884328 
L 205.558545 224.755605 
L 214.812016 244.648242 
L 216.235627 247.755032 
L 216.947432 248.309609 
L 220.506459 240.820152 
L 224.065486 233.855735 
L 227.624514 227.400846 
L 231.183541 221.440411 
L 234.742568 215.959835 
L 238.301595 210.94493 
L 241.860622 206.381943 
L 245.419649 202.257506 
L 248.266871 199.264964 
L 251.114093 196.538377 
L 253.961314 194.071355 
L 256.808536 191.857819 
L 259.655758 189.891686 
L 262.50298 188.167163 
L 265.350201 186.678456 
L 268.197423 185.419992 
L 271.044645 184.38635 
L 273.891866 183.57213 
L 276.739088 182.972196 
L 279.58631 182.58142 
L 282.433532 182.394839 
L 285.280753 182.407662 
L 288.127975 182.615112 
L 290.975197 183.012586 
L 293.822418 183.595533 
L 297.381446 184.57853 
L 300.940473 185.836116 
L 304.4995 187.360193 
L 308.058527 189.142992 
L 311.617554 191.176769 
L 315.176581 193.454123 
L 318.735608 195.967747 
L 323.006441 199.286577 
L 327.277274 202.923964 
L 331.548106 206.86869 
L 335.818939 211.110037 
L 340.089771 215.637406 
L 345.072409 221.26737 
L 350.055047 227.257482 
L 355.037685 233.592921 
L 360.020323 240.259461 
L 365.714767 248.266431 
L 366.426572 248.328504 
L 369.985599 243.454194 
L 373.544627 239.027627 
L 376.391848 235.799855 
L 379.23907 232.843567 
L 382.086292 230.152338 
L 384.933513 227.719873 
L 387.780735 225.54004 
L 390.627957 223.606854 
L 393.475179 221.914439 
L 396.3224 220.457126 
L 399.169622 219.229311 
L 402.016844 218.225548 
L 403.440455 217.806024 
L 403.440455 217.806024 
" style="fill:none;stroke:#d62728;stroke-linecap:square;stroke-opacity:0.4;stroke-width:1.5;"/>
   </g>
  </g>
 </g>
 <defs>
  <clipPath id="p333c04600f">
   <rect height="249.32" width="390.71" x="30.49" y="10.8"/>
  </clipPath>
 </defs>
</svg>
