<?xml version="1.0" encoding="utf-8" standalone="no"?>
<!DOCTYPE svg PUBLIC "-//W3C//DTD SVG 1.1//EN"
  "http://www.w3.org/Graphics/SVG/1.1/DTD/svg11.dtd">
<!-- Created with matplotlib (https://matplotlib.org/) -->
<svg height="336pt" version="1.1" viewBox="0 0 504 336" width="504pt" xmlns="http://www.w3.org/2000/svg" xmlns:xlink="http://www.w3.org/1999/xlink">
 <defs>
  <style type="text/css">
*{stroke-linecap:butt;stroke-linejoin:round;}
  </style>
 </defs>
 <g id="figure_1">
  <g id="patch_1">
   <path d="M 0 336 
L 504 336 
L 504 0 
L 0 0 
z
" style="fill:#ffffff;"/>
  </g>
  <g id="axes_1">
   <g id="line2d_1">
    <path clip-path="url(#p10c102ee98)" d="M 80.754545 256.967695 
L 83.26107 256.557565 
L 86.603102 256.76263 
L 87.43861 256.669419 
L 92.451658 255.485635 
L 94.540428 255.634774 
L 96.629198 255.802554 
L 99.97123 255.737306 
L 102.06 255.392424 
L 110.832834 254.879762 
L 112.921604 255.094148 
L 113.757112 255.308534 
L 115.010374 255.700021 
L 117.099144 256.156757 
L 119.187914 256.343179 
L 122.947701 256.194041 
L 124.200963 256.399106 
L 134.644813 259.092912 
L 136.315829 259.195444 
L 138.822353 259.214086 
L 140.493369 259.689464 
L 141.746631 260.025024 
L 143.835401 260.034345 
L 145.506417 260.230089 
L 146.341925 260.267374 
L 148.430695 260.73343 
L 149.266203 260.947816 
L 151.354973 261.096954 
L 155.950267 261.162202 
L 157.203529 261.329982 
L 159.292299 261.460478 
L 164.723102 261.14356 
L 166.394118 261.013064 
L 167.229626 261.134238 
L 171.407166 262.150241 
L 171.82492 262.094315 
L 172.660428 261.628258 
L 173.495936 260.640219 
L 174.749198 258.561607 
L 178.09123 252.260526 
L 178.926738 251.440266 
L 179.762246 251.039458 
L 181.015508 250.703897 
L 181.851016 250.340373 
L 182.686524 249.837032 
L 184.35754 248.504111 
L 185.610802 246.882235 
L 186.864064 245.456103 
L 187.699572 244.887514 
L 188.53508 244.738376 
L 188.952834 244.766339 
L 189.788342 245.148506 
L 190.62385 245.800984 
L 191.877112 247.236438 
L 193.130374 248.811708 
L 196.054652 252.70794 
L 198.143422 254.60945 
L 200.649947 257.088869 
L 201.485455 257.974376 
L 203.991979 261.628258 
L 205.662995 263.837365 
L 206.498503 264.694909 
L 207.751765 265.561774 
L 209.005027 266.139684 
L 209.840535 266.27018 
L 211.929305 266.102399 
L 212.764813 266.055794 
L 213.600321 266.139684 
L 214.853583 266.549813 
L 216.942353 266.922658 
L 219.866631 267.565816 
L 222.790909 267.127723 
L 224.879679 266.950622 
L 225.715187 267.220934 
L 226.550695 267.724275 
L 227.803957 268.796205 
L 228.639465 269.551216 
L 229.892727 270.250301 
L 230.310481 270.306228 
L 230.728235 270.166411 
L 231.145989 269.849492 
L 231.563743 269.206335 
L 231.981497 268.208974 
L 232.817005 264.965222 
L 233.652513 259.959776 
L 234.488021 253.183317 
L 235.323529 244.654486 
L 236.159037 234.261429 
L 237.412299 215.33022 
L 238.665561 192.540064 
L 240.336578 157.352809 
L 242.425348 113.916357 
L 243.67861 92.095599 
L 244.514118 82.653297 
L 244.931872 80.211162 
L 245.349626 79.37226 
L 245.76738 80.11795 
L 246.185134 82.382984 
L 246.602888 85.869086 
L 247.438396 95.786765 
L 248.273904 109.134619 
L 249.109412 126.024501 
L 250.362674 157.157066 
L 252.03369 198.831825 
L 253.704706 233.93519 
L 254.540214 248.457506 
L 255.375722 259.969098 
L 256.21123 267.752239 
L 256.628984 270.175732 
L 257.046738 271.797608 
L 257.464492 272.739042 
L 257.882246 273.214419 
L 258.3 273.214419 
L 258.717754 272.813611 
L 259.135508 272.114526 
L 260.38877 268.870774 
L 262.059786 264.70423 
L 262.895294 263.175565 
L 264.56631 260.873247 
L 265.401818 259.98774 
L 266.65508 259.064948 
L 267.072834 258.869205 
L 267.490588 258.813278 
L 268.326096 258.9997 
L 269.997112 259.558968 
L 271.668128 259.754712 
L 272.92139 259.689464 
L 274.174652 259.297976 
L 275.427914 258.906489 
L 278.769947 258.785314 
L 280.440963 258.757351 
L 292.973583 256.697382 
L 293.809091 256.324537 
L 296.315615 255.066185 
L 297.986631 254.721303 
L 299.657647 254.441669 
L 301.328663 254.152714 
L 302.164171 253.901044 
L 305.923957 251.682616 
L 308.430481 250.06074 
L 310.101497 249.184554 
L 316.367807 244.971404 
L 319.292086 243.013967 
L 321.79861 241.233632 
L 323.469626 239.56515 
L 324.305134 238.642359 
L 325.97615 237.057767 
L 331.824706 230.775328 
L 335.166738 226.841812 
L 338.926524 223.113361 
L 347.281604 215.563248 
L 348.117112 214.994659 
L 350.623636 213.717665 
L 351.876898 213.419389 
L 353.547914 213.270251 
L 355.636684 213.447352 
L 356.472193 213.829518 
L 357.307701 214.351502 
L 358.560963 215.572569 
L 359.396471 216.588572 
L 360.649733 218.490082 
L 361.902995 220.764437 
L 364.409519 225.872415 
L 371.511337 240.80486 
L 372.764599 242.771618 
L 375.688877 246.770382 
L 376.942139 247.972807 
L 378.195401 249.221838 
L 380.284171 251.46823 
L 383.208449 253.891723 
L 384.043957 254.469633 
L 386.132727 255.420388 
L 388.221497 256.063545 
L 390.728021 256.501638 
L 392.399037 256.949052 
L 393.234545 257.210044 
L 396.158824 257.461714 
L 398.247594 257.359182 
L 399.500856 257.210044 
L 401.171872 257.489678 
L 402.425134 257.638816 
L 404.513904 257.601531 
L 408.27369 257.163438 
L 411.615722 257.238007 
L 414.122246 257.396467 
L 415.793262 257.200723 
L 417.464278 256.921089 
L 419.135294 256.455033 
L 422.477326 255.886444 
L 423.312834 255.839838 
L 424.98385 255.849159 
L 426.237112 255.77459 
L 429.16139 255.550883 
L 429.996898 255.494957 
L 431.667914 255.364461 
L 434.592193 255.662737 
L 435.845455 255.700021 
L 435.845455 255.700021 
" style="fill:none;stroke:#8c564b;stroke-linecap:square;stroke-opacity:0.8;stroke-width:1.5;"/>
   </g>
   <g id="line2d_2">
    <path clip-path="url(#p10c102ee98)" d="M 80.754545 260.015703 
L 84.096578 260.164841 
L 85.767594 259.997061 
L 90.780642 258.981058 
L 96.629198 258.887847 
L 97.88246 258.729388 
L 103.313262 257.554926 
L 105.402032 257.648137 
L 107.073048 257.806596 
L 113.757112 257.825238 
L 115.010374 258.011661 
L 119.605668 258.440433 
L 124.200963 258.626855 
L 129.214011 260.3233 
L 130.467273 260.547007 
L 131.720535 260.332622 
L 134.227059 259.885207 
L 136.733583 260.006382 
L 137.986845 260.313979 
L 139.657861 260.73343 
L 142.164385 260.919853 
L 145.506417 261.003743 
L 147.177433 260.957137 
L 153.861497 260.910531 
L 155.532513 260.686824 
L 157.621283 260.379227 
L 159.292299 259.838602 
L 160.127807 259.297976 
L 160.963316 258.319258 
L 162.216578 256.175399 
L 163.887594 253.136711 
L 165.55861 250.452227 
L 166.394118 249.398939 
L 167.64738 248.522754 
L 168.900642 247.655889 
L 169.73615 246.854272 
L 170.989412 245.232396 
L 172.660428 242.417415 
L 173.91369 240.245593 
L 174.749198 239.089773 
L 176.00246 237.766173 
L 176.837968 237.1603 
L 179.344492 235.762131 
L 182.686524 234.876623 
L 183.522032 235.221505 
L 184.35754 236.060407 
L 185.193048 237.309438 
L 186.44631 239.798179 
L 187.281818 241.848827 
L 188.952834 246.910199 
L 191.877112 255.224644 
L 193.130374 258.123514 
L 194.383636 260.286016 
L 195.636898 261.870608 
L 196.89016 263.100996 
L 198.97893 264.275458 
L 200.232193 264.657625 
L 201.485455 264.955901 
L 202.738717 265.011827 
L 206.080749 265.356709 
L 209.422781 266.260858 
L 215.271337 266.419318 
L 219.448877 266.587098 
L 220.284385 267.043833 
L 223.626417 269.635106 
L 224.461925 269.886777 
L 224.879679 269.83085 
L 225.297433 269.513932 
L 225.715187 268.861453 
L 226.132941 267.780202 
L 226.550695 266.251537 
L 227.386203 261.758754 
L 228.221711 255.429709 
L 229.057219 247.609283 
L 230.310481 232.844618 
L 231.563743 214.705704 
L 233.234759 186.434726 
L 237.412299 112.163985 
L 238.247807 101.416726 
L 238.665561 98.117047 
L 239.083316 96.280785 
L 239.50107 96.001151 
L 239.918824 97.371357 
L 240.336578 100.102447 
L 241.172086 108.584672 
L 242.007594 120.357256 
L 242.843102 135.727795 
L 243.67861 155.675007 
L 245.76738 209.411304 
L 247.020642 234.708843 
L 248.273904 255.765269 
L 249.109412 266.624382 
L 249.94492 273.810971 
L 250.362674 275.964152 
L 250.780428 277.362321 
L 251.198182 278.061405 
L 251.615936 278.257149 
L 252.03369 278.154617 
L 252.451444 277.828377 
L 252.869198 277.278431 
L 253.704706 275.526059 
L 256.21123 268.386075 
L 257.464492 265.086396 
L 258.717754 262.597655 
L 259.553262 261.348624 
L 260.38877 260.612255 
L 261.642032 259.680143 
L 262.47754 259.335261 
L 263.313048 259.204765 
L 264.984064 259.102233 
L 266.237326 258.859883 
L 268.74385 258.132836 
L 271.250374 257.331219 
L 272.503636 256.902447 
L 275.845668 255.914407 
L 278.352193 254.917047 
L 282.111979 253.929007 
L 287.542781 253.099427 
L 288.796043 252.540159 
L 291.302567 251.421624 
L 292.555829 250.955568 
L 294.226845 250.014134 
L 297.568877 248.634607 
L 299.239893 247.870275 
L 302.581925 246.639886 
L 305.506203 244.868872 
L 306.759465 244.216393 
L 308.430481 243.191069 
L 309.683743 242.529269 
L 311.354759 241.019246 
L 314.696791 237.505181 
L 315.950053 236.442573 
L 317.62107 235.407928 
L 321.380856 232.434488 
L 322.634118 231.194778 
L 324.305134 229.516975 
L 330.571444 223.057434 
L 332.24246 221.78044 
L 333.077968 221.053392 
L 334.33123 219.906893 
L 337.255508 217.986741 
L 340.179786 216.318259 
L 343.521818 214.58453 
L 348.117112 211.406025 
L 349.370374 210.921327 
L 350.205882 210.986575 
L 351.876898 211.489916 
L 353.965668 212.636414 
L 355.21893 213.615133 
L 356.889947 215.069228 
L 358.143209 216.560609 
L 359.396471 218.434155 
L 361.485241 222.078716 
L 363.991765 227.233299 
L 365.662781 230.747364 
L 370.675829 240.450657 
L 373.182353 244.421458 
L 374.853369 246.444142 
L 377.777647 249.548078 
L 380.284171 251.542799 
L 382.372941 252.87572 
L 383.208449 253.239244 
L 384.461711 253.994255 
L 385.714973 254.497596 
L 388.221497 255.066185 
L 389.057005 255.187359 
L 391.563529 254.721303 
L 392.816791 254.581486 
L 394.487807 254.189999 
L 395.323316 254.19932 
L 396.576578 254.460311 
L 398.665348 254.562844 
L 402.00738 255.131433 
L 404.931658 254.590807 
L 408.27369 253.53752 
L 409.109198 253.593447 
L 411.197968 254.003576 
L 413.286738 254.217962 
L 414.122246 254.339137 
L 415.375508 254.152714 
L 417.046524 253.761227 
L 419.553048 253.994255 
L 420.80631 254.059503 
L 423.312834 254.534881 
L 425.401604 254.656055 
L 426.654866 254.618771 
L 429.579144 254.805193 
L 431.25016 254.851799 
L 435.009947 255.420388 
L 435.427701 255.448351 
L 435.427701 255.448351 
" style="fill:none;stroke:#9467bd;stroke-linecap:square;stroke-opacity:0.8;stroke-width:1.5;"/>
   </g>
   <g id="line2d_3">
    <path clip-path="url(#p10c102ee98)" d="M 80.754545 251.188596 
L 84.514332 251.375018 
L 85.767594 251.486872 
L 88.691872 252.3817 
L 90.780642 252.624049 
L 92.451658 252.866399 
L 94.540428 253.146033 
L 95.375936 253.304492 
L 96.211444 253.295171 
L 98.300214 253.12739 
L 99.135722 253.313813 
L 101.224492 253.78919 
L 102.06 253.994255 
L 104.566524 254.954331 
L 105.819786 255.159396 
L 107.490802 255.261928 
L 109.997326 255.448351 
L 113.757112 255.988976 
L 115.845882 256.660097 
L 118.77016 257.471036 
L 119.605668 257.694743 
L 122.112193 258.030303 
L 123.365455 258.281974 
L 125.036471 258.272652 
L 126.289733 258.309937 
L 128.378503 258.533644 
L 130.467273 258.542965 
L 132.138289 258.598892 
L 135.898075 259.195444 
L 139.657861 260.15552 
L 148.848449 260.677503 
L 151.354973 260.714788 
L 152.608235 260.845284 
L 153.861497 260.919853 
L 155.114759 261.367267 
L 157.621283 262.672224 
L 158.874545 263.119639 
L 159.710053 263.166244 
L 160.127807 263.082354 
L 160.545561 262.867968 
L 161.38107 261.898571 
L 162.216578 260.174162 
L 163.46984 257.163438 
L 165.55861 251.831754 
L 166.394118 250.107345 
L 167.229626 248.923562 
L 167.64738 248.541396 
L 168.065134 248.317689 
L 170.989412 248.24312 
L 172.242674 247.385576 
L 173.078182 246.518711 
L 176.00246 243.237674 
L 176.420214 242.930077 
L 177.255722 242.725012 
L 178.09123 243.153784 
L 178.926738 243.86219 
L 180.597754 245.810306 
L 181.433262 247.208475 
L 182.686524 249.548078 
L 183.939786 251.309771 
L 187.699572 255.047543 
L 188.53508 255.727985 
L 189.370588 256.818557 
L 190.62385 259.046306 
L 191.877112 261.292698 
L 193.130374 263.110317 
L 195.219144 265.86005 
L 196.054652 266.382033 
L 196.89016 266.643025 
L 200.649947 267.202292 
L 202.738717 267.276861 
L 206.080749 267.733596 
L 209.422781 267.631064 
L 211.511551 267.398036 
L 213.182567 267.109081 
L 214.018075 267.146365 
L 214.853583 267.379394 
L 216.106845 268.050515 
L 217.360107 268.973306 
L 218.613369 269.802887 
L 219.448877 270.138447 
L 219.866631 270.129126 
L 220.284385 269.961346 
L 220.702139 269.616464 
L 221.119893 268.982628 
L 221.537647 268.01323 
L 221.955401 266.643025 
L 222.790909 262.672224 
L 223.626417 256.902447 
L 224.879679 245.912838 
L 226.132941 232.015037 
L 227.803957 209.765507 
L 229.892727 177.756757 
L 233.652513 116.237318 
L 234.488021 105.769692 
L 234.905775 102.451371 
L 235.323529 100.587145 
L 235.741283 100.29819 
L 236.159037 101.528579 
L 236.576791 104.147816 
L 237.412299 112.266518 
L 238.247807 123.694219 
L 239.083316 139.074079 
L 239.918824 159.105181 
L 242.425348 224.651347 
L 243.67861 250.303089 
L 244.514118 264.62034 
L 245.349626 275.852298 
L 246.185134 283.374448 
L 246.602888 285.592876 
L 247.020642 286.841907 
L 247.438396 287.28 
L 247.85615 287.158825 
L 248.273904 286.664806 
L 249.109412 284.903113 
L 249.94492 282.610115 
L 252.869198 273.605907 
L 254.540214 269.802887 
L 256.21123 266.35407 
L 257.464492 264.555092 
L 258.3 263.557732 
L 259.135508 262.923895 
L 259.971016 262.588334 
L 262.47754 262.131599 
L 264.148556 262.029067 
L 264.984064 261.926534 
L 266.237326 261.600295 
L 267.490588 261.367267 
L 268.74385 261.208808 
L 271.668128 260.397869 
L 275.845668 259.465757 
L 278.352193 258.981058 
L 279.187701 258.720067 
L 286.707273 258.300616 
L 293.391337 256.305895 
L 296.733369 255.373782 
L 298.404385 254.991616 
L 299.657647 254.69334 
L 304.252941 252.847757 
L 306.341711 251.55212 
L 308.848235 250.181914 
L 310.101497 249.501472 
L 311.354759 248.998131 
L 313.443529 247.814348 
L 315.114545 246.574638 
L 317.62107 244.346889 
L 319.70984 242.100497 
L 321.79861 239.89139 
L 325.140642 237.104373 
L 326.811658 235.650277 
L 331.824706 231.241384 
L 339.344278 226.170691 
L 340.59754 225.462285 
L 342.68631 224.725916 
L 343.521818 224.651347 
L 345.192834 224.83777 
L 346.028342 224.940302 
L 347.699358 224.996229 
L 349.370374 224.735237 
L 352.294652 223.859051 
L 353.547914 223.616702 
L 357.725455 222.246496 
L 358.560963 221.827046 
L 359.814225 221.146603 
L 361.067487 220.727153 
L 363.991765 220.233133 
L 364.827273 220.326344 
L 366.916043 220.997465 
L 368.169305 221.594017 
L 370.258075 223.122682 
L 371.929091 224.893696 
L 375.271123 228.752643 
L 379.448663 234.68088 
L 381.537433 237.971238 
L 383.208449 240.208308 
L 385.714973 242.846187 
L 388.221497 245.167148 
L 391.145775 247.329649 
L 392.816791 248.066018 
L 399.083102 249.790427 
L 402.425134 250.377658 
L 404.513904 250.601365 
L 405.767166 250.80643 
L 407.020428 250.834393 
L 410.36246 250.526796 
L 411.615722 250.452227 
L 412.868984 250.461548 
L 417.464278 251.393661 
L 419.553048 251.477551 
L 423.730588 252.353737 
L 424.98385 252.79183 
L 426.237112 253.006216 
L 429.16139 253.295171 
L 429.996898 253.36974 
L 431.667914 253.201959 
L 432.921176 253.267207 
L 435.009947 253.62141 
L 435.845455 253.835796 
L 435.845455 253.835796 
" style="fill:none;stroke:#d62728;stroke-linecap:square;stroke-opacity:0.8;stroke-width:1.5;"/>
   </g>
   <g id="line2d_4">
    <path clip-path="url(#p10c102ee98)" d="M 80.754545 256.091509 
L 82.425561 256.315216 
L 84.932086 256.399106 
L 86.603102 256.324537 
L 87.43861 256.305895 
L 88.274118 256.557565 
L 90.362888 257.331219 
L 92.451658 257.657458 
L 93.287166 257.778633 
L 96.629198 257.638816 
L 97.464706 257.91845 
L 100.388984 259.111554 
L 103.731016 259.708106 
L 106.23754 259.90385 
L 109.161818 260.537686 
L 109.997326 260.752072 
L 111.250588 260.882568 
L 113.339358 261.124917 
L 114.59262 260.966458 
L 115.428128 260.873247 
L 116.68139 260.891889 
L 117.934652 261.134238 
L 122.947701 262.653582 
L 123.783209 262.606977 
L 126.289733 262.047709 
L 127.960749 262.066351 
L 129.214011 262.271416 
L 130.467273 262.625619 
L 132.138289 263.138281 
L 132.973797 263.29674 
L 137.569091 263.371309 
L 139.240107 263.809402 
L 140.493369 264.135641 
L 142.582139 264.499165 
L 144.253155 264.405954 
L 145.506417 264.023788 
L 148.012941 263.632301 
L 149.683957 263.809402 
L 150.937219 263.95854 
L 153.025989 264.135641 
L 154.697005 264.45256 
L 155.532513 264.611019 
L 156.785775 264.461881 
L 157.621283 264.061072 
L 158.456791 263.361988 
L 159.292299 262.299379 
L 160.127807 260.919853 
L 163.46984 254.656055 
L 164.305348 253.677337 
L 165.140856 253.118069 
L 167.64738 251.869038 
L 169.73615 250.06074 
L 170.571658 249.165911 
L 171.82492 247.590641 
L 172.660428 246.770382 
L 173.495936 246.248399 
L 173.91369 246.127224 
L 174.749198 246.25772 
L 175.166952 246.472106 
L 176.00246 247.33897 
L 178.09123 249.90228 
L 181.015508 254.534881 
L 181.851016 255.392424 
L 184.35754 257.554926 
L 185.610802 258.328579 
L 186.44631 259.204765 
L 187.699572 260.929174 
L 191.041604 265.999867 
L 191.877112 266.829447 
L 192.71262 267.379394 
L 193.548128 267.584458 
L 194.383636 267.565816 
L 196.89016 267.230256 
L 198.143422 267.18365 
L 199.396684 267.425999 
L 201.485455 268.031873 
L 202.738717 268.153047 
L 206.498503 267.295504 
L 208.169519 266.866732 
L 209.005027 267.006549 
L 210.258289 267.565816 
L 211.093797 268.25558 
L 211.929305 269.299546 
L 214.435829 273.027997 
L 215.271337 273.689797 
L 215.689091 273.764366 
L 216.106845 273.559301 
L 216.524599 273.000033 
L 216.942353 272.011994 
L 217.360107 270.49265 
L 218.195615 265.720233 
L 219.031123 258.515002 
L 219.866631 249.398939 
L 220.702139 238.07377 
L 221.955401 216.448755 
L 223.208663 189.69712 
L 224.879679 147.472415 
L 226.968449 95.311387 
L 228.221711 69.836747 
L 228.639465 63.778015 
L 229.057219 59.658076 
L 229.474973 57.448969 
L 229.892727 56.945628 
L 230.310481 58.082806 
L 230.728235 60.953713 
L 231.563743 70.44262 
L 232.399251 83.725226 
L 233.234759 101.090486 
L 234.070267 123.032419 
L 236.159037 182.230898 
L 237.412299 213.093149 
L 238.665561 239.714288 
L 239.50107 253.78919 
L 240.336578 263.492484 
L 240.754332 266.782842 
L 241.172086 269.178371 
L 241.58984 270.865495 
L 242.007594 271.890819 
L 242.425348 272.47805 
L 242.843102 272.599225 
L 243.260856 272.39416 
L 243.67861 271.881498 
L 244.514118 270.110484 
L 246.185134 266.260858 
L 247.438396 264.033109 
L 249.109412 261.824002 
L 249.94492 261.087633 
L 251.198182 260.64954 
L 252.451444 260.444475 
L 254.957968 260.48176 
L 258.3 259.726748 
L 259.135508 259.447114 
L 262.059786 259.15816 
L 262.895294 259.130196 
L 264.56631 258.654819 
L 265.401818 258.3379 
L 267.072834 257.564247 
L 268.326096 257.09819 
L 269.161604 256.799914 
L 270.83262 256.688061 
L 271.668128 256.557565 
L 272.92139 256.082188 
L 275.845668 254.665376 
L 277.516684 253.807833 
L 280.023209 252.903683 
L 281.694225 252.540159 
L 283.782995 251.589404 
L 286.289519 249.678573 
L 290.049305 246.789024 
L 292.138075 245.735737 
L 294.226845 244.123182 
L 295.062353 243.349528 
L 297.568877 240.590474 
L 298.404385 239.621077 
L 302.581925 235.091009 
L 304.252941 232.592947 
L 306.341711 228.631468 
L 310.937005 219.990783 
L 313.025775 216.215727 
L 315.532299 211.489916 
L 318.874332 205.104944 
L 320.963102 201.917118 
L 324.305134 197.545509 
L 325.140642 196.585433 
L 326.393904 195.000842 
L 328.482674 193.024763 
L 329.318182 192.558706 
L 330.15369 192.390926 
L 330.989198 192.540064 
L 332.660214 193.686563 
L 333.913476 195.299118 
L 334.748984 196.753214 
L 335.584492 198.477622 
L 337.255508 202.532312 
L 338.091016 204.9092 
L 341.015294 214.398107 
L 343.521818 223.169288 
L 345.610588 229.824573 
L 347.281604 234.363961 
L 348.95262 238.15766 
L 352.712406 245.875553 
L 354.801176 249.268444 
L 355.636684 250.359016 
L 356.472193 251.095385 
L 358.143209 252.157993 
L 361.485241 254.162035 
L 362.738503 255.000937 
L 364.409519 255.625452 
L 364.827273 255.709343 
L 365.662781 255.541562 
L 367.333797 255.038221 
L 368.587059 254.562844 
L 369.840321 254.348458 
L 371.511337 254.516238 
L 373.600107 255.159396 
L 374.853369 255.336497 
L 376.524385 254.982295 
L 379.448663 254.03154 
L 381.119679 253.891723 
L 385.297219 254.60945 
L 386.550481 254.087466 
L 389.892513 252.782509 
L 391.145775 252.698618 
L 393.652299 253.239244 
L 396.158824 253.472272 
L 399.500856 253.313813 
L 402.00738 253.761227 
L 404.513904 254.357779 
L 405.767166 254.497596 
L 409.526952 254.534881 
L 410.36246 254.721303 
L 413.286738 255.923728 
L 414.122246 256.166078 
L 416.211016 256.492317 
L 417.464278 256.240647 
L 418.299786 256.082188 
L 419.135294 256.194041 
L 421.641818 256.93041 
L 424.566096 258.887847 
L 425.819358 259.381867 
L 427.07262 259.614895 
L 430.414652 259.400509 
L 432.085668 259.875886 
L 433.33893 260.332622 
L 435.009947 260.957137 
L 435.845455 261.208808 
L 435.845455 261.208808 
" style="fill:none;stroke:#2ca02c;stroke-linecap:square;stroke-opacity:0.8;stroke-width:1.5;"/>
   </g>
   <g id="line2d_5">
    <path clip-path="url(#p10c102ee98)" d="M 80.754545 254.469633 
L 82.007807 254.376421 
L 82.843316 254.348458 
L 83.678824 254.329816 
L 85.34984 254.45099 
L 88.274118 254.040861 
L 90.780642 253.910365 
L 91.61615 254.003576 
L 100.806738 255.541562 
L 104.566524 256.138114 
L 105.819786 256.501638 
L 108.32631 257.107512 
L 110.832834 258.067588 
L 112.921604 258.626855 
L 115.010374 259.148838 
L 117.516898 259.419151 
L 120.441176 259.614895 
L 121.276684 259.586931 
L 122.947701 259.652179 
L 125.036471 260.006382 
L 127.542995 260.444475 
L 128.796257 260.463117 
L 130.049519 260.416512 
L 135.480321 260.957137 
L 138.404599 260.677503 
L 140.075615 260.556329 
L 142.164385 260.574971 
L 143.417647 260.742751 
L 145.506417 261.348624 
L 147.177433 262.122278 
L 148.012941 261.97314 
L 148.848449 261.460478 
L 149.683957 260.453796 
L 150.519465 258.878526 
L 152.190481 255.094148 
L 153.443743 252.307131 
L 154.279251 250.964889 
L 155.114759 249.995492 
L 155.950267 249.576041 
L 157.203529 249.296407 
L 158.039037 249.221838 
L 158.874545 248.998131 
L 160.545561 247.91688 
L 161.38107 247.124584 
L 162.634332 245.67981 
L 163.887594 244.60788 
L 164.305348 244.365531 
L 164.723102 244.318925 
L 165.140856 244.468063 
L 165.976364 245.129863 
L 166.811872 245.978086 
L 168.482888 248.438863 
L 169.318396 249.911601 
L 170.989412 252.857078 
L 171.82492 253.733264 
L 173.078182 254.581486 
L 173.91369 254.94501 
L 175.584706 255.970334 
L 176.420214 256.43639 
L 177.673476 257.554926 
L 178.508984 258.570929 
L 182.26877 263.865329 
L 183.939786 265.28214 
L 184.775294 265.599058 
L 187.699572 266.02783 
L 189.788342 266.018509 
L 195.636898 265.673627 
L 196.472406 265.794802 
L 197.725668 265.738875 
L 200.232193 265.431278 
L 201.067701 265.720233 
L 201.903209 266.326106 
L 203.156471 267.649706 
L 204.827487 269.25294 
L 205.245241 269.551216 
L 205.662995 269.700354 
L 206.080749 269.718997 
L 206.498503 269.588501 
L 206.916257 269.066518 
L 207.334011 268.041194 
L 207.751765 266.465923 
L 208.169519 264.340706 
L 209.005027 258.375185 
L 209.840535 250.359016 
L 210.676043 240.413373 
L 211.929305 221.640623 
L 213.182567 197.955639 
L 214.853583 160.242359 
L 217.777861 89.21537 
L 219.031123 64.533026 
L 219.448877 58.865781 
L 219.866631 55.05344 
L 220.284385 53.068039 
L 220.702139 52.890938 
L 221.119893 54.578062 
L 221.537647 57.961631 
L 222.373155 68.438578 
L 223.208663 82.774472 
L 224.044171 101.025238 
L 225.297433 135.737116 
L 226.968449 182.846092 
L 228.221711 213.288893 
L 229.474973 238.772855 
L 230.310481 252.102066 
L 231.145989 261.31134 
L 231.563743 264.322064 
L 231.981497 266.372712 
L 232.399251 267.621743 
L 232.817005 268.274222 
L 233.234759 268.404718 
L 233.652513 268.050515 
L 234.070267 267.425999 
L 234.905775 265.571095 
L 236.576791 261.516405 
L 237.412299 260.099593 
L 238.665561 258.440433 
L 239.918824 257.219365 
L 240.754332 256.548244 
L 241.58984 256.063545 
L 242.425348 255.783912 
L 243.260856 255.52292 
L 244.096364 255.644095 
L 245.349626 255.951692 
L 247.020642 256.082188 
L 248.691658 256.18472 
L 249.527166 256.240647 
L 252.869198 255.886444 
L 253.704706 255.905086 
L 254.957968 255.6907 
L 256.628984 255.206002 
L 257.882246 254.749266 
L 259.553262 254.227283 
L 261.642032 253.733264 
L 264.148556 253.090106 
L 270.414866 251.067421 
L 273.339144 249.753142 
L 274.174652 249.464187 
L 276.681176 248.932883 
L 280.440963 248.336331 
L 282.111979 247.777063 
L 287.542781 244.757018 
L 288.796043 243.955401 
L 290.049305 243.153784 
L 290.884813 242.734334 
L 295.480107 238.949956 
L 300.493155 233.021719 
L 304.252941 228.239981 
L 305.506203 226.562178 
L 306.341711 225.49957 
L 308.848235 222.889654 
L 309.683743 222.190569 
L 313.443529 218.238412 
L 314.279037 217.530006 
L 315.950053 215.805597 
L 322.634118 211.461952 
L 323.88738 211.051823 
L 324.722888 210.958611 
L 325.558396 211.228924 
L 326.811658 211.983935 
L 327.647166 212.738947 
L 329.318182 214.817558 
L 330.989198 217.474079 
L 331.824706 218.928175 
L 334.33123 224.17597 
L 336.837754 230.421125 
L 338.50877 234.578347 
L 341.015294 240.366767 
L 342.68631 243.86219 
L 345.192834 248.140587 
L 346.446096 249.90228 
L 348.534866 252.232562 
L 351.876898 255.448351 
L 353.965668 257.070227 
L 356.889947 258.682782 
L 358.143209 259.24205 
L 362.738503 260.919853 
L 363.991765 261.059669 
L 365.662781 260.994422 
L 368.587059 260.537686 
L 369.840321 260.574971 
L 372.346845 260.658861 
L 373.600107 260.742751 
L 374.435615 260.780036 
L 377.359893 260.15552 
L 380.701925 259.372545 
L 381.537433 259.32594 
L 383.626203 258.91581 
L 386.132727 258.66414 
L 387.385989 258.347221 
L 388.639251 258.365864 
L 391.563529 258.272652 
L 392.399037 258.235368 
L 393.234545 258.235368 
L 395.74107 257.927771 
L 397.412086 257.946413 
L 398.247594 257.881165 
L 399.500856 257.741348 
L 402.425134 257.6761 
L 403.260642 257.620174 
L 404.09615 257.769312 
L 406.18492 258.291295 
L 408.691444 258.83192 
L 409.526952 259.046306 
L 411.197968 259.335261 
L 412.45123 259.596253 
L 415.793262 260.360585 
L 416.62877 260.56565 
L 418.299786 260.807999 
L 419.970802 261.124917 
L 422.89508 261.56301 
L 424.148342 261.935855 
L 427.908128 262.765436 
L 435.845455 263.809402 
L 435.845455 263.809402 
" style="fill:none;stroke:#ff7f0e;stroke-linecap:square;stroke-opacity:0.8;stroke-width:1.5;"/>
   </g>
   <g id="line2d_6">
    <path clip-path="url(#p10c102ee98)" d="M 80.754545 263.539089 
L 83.26107 263.949219 
L 84.514332 264.154284 
L 89.109626 264.657625 
L 90.780642 264.527129 
L 93.287166 264.676267 
L 95.79369 264.592377 
L 96.629198 264.564413 
L 98.717968 264.322064 
L 99.97123 264.638982 
L 102.06 264.676267 
L 102.895508 264.741515 
L 104.566524 265.067754 
L 105.819786 265.002506 
L 107.908556 264.87201 
L 109.161818 264.87201 
L 110.832834 264.769478 
L 112.921604 264.983864 
L 114.174866 265.235534 
L 115.428128 265.142323 
L 117.099144 264.741515 
L 117.934652 264.499165 
L 120.441176 264.219532 
L 121.276684 264.200889 
L 123.365455 264.573734 
L 124.200963 264.732194 
L 127.125241 264.760157 
L 127.960749 264.750836 
L 129.631765 264.657625 
L 134.227059 264.517808 
L 135.480321 264.722872 
L 137.986845 265.226213 
L 138.404599 265.226213 
L 139.240107 264.909295 
L 140.075615 264.266137 
L 140.911123 263.240813 
L 141.746631 261.824002 
L 144.670909 255.942371 
L 145.506417 254.823835 
L 146.341925 254.180678 
L 150.101711 252.418985 
L 150.937219 251.645331 
L 152.190481 250.051418 
L 153.861497 247.954165 
L 154.697005 247.264401 
L 155.532513 246.844951 
L 156.368021 246.844951 
L 156.785775 247.00341 
L 157.621283 247.693173 
L 158.874545 249.221838 
L 160.963316 252.437627 
L 162.216578 254.469633 
L 163.052086 255.420388 
L 163.887594 256.026261 
L 167.64738 257.974376 
L 168.482888 258.74803 
L 169.73615 260.491081 
L 171.82492 263.622979 
L 173.078182 265.021148 
L 173.91369 265.766839 
L 175.166952 266.316785 
L 176.420214 266.577777 
L 179.762246 266.857411 
L 188.53508 266.223574 
L 190.62385 265.794802 
L 191.877112 265.682949 
L 192.71262 265.878692 
L 193.548128 266.643025 
L 195.636898 269.215656 
L 197.725668 271.81625 
L 198.143422 271.98403 
L 198.561176 271.890819 
L 198.97893 271.331552 
L 199.396684 270.24098 
L 199.814439 268.563177 
L 200.649947 263.669585 
L 201.485455 256.688061 
L 202.320963 247.58132 
L 203.156471 236.023122 
L 203.991979 222.171927 
L 205.245241 196.855746 
L 206.498503 166.972213 
L 209.422781 92.906537 
L 210.676043 66.79806 
L 211.093797 60.43173 
L 211.511551 55.892341 
L 211.929305 53.077361 
L 212.347059 52.08 
L 212.764813 52.956186 
L 213.182567 55.500854 
L 214.018075 64.439815 
L 214.853583 77.041978 
L 215.689091 93.381914 
L 216.524599 114.345129 
L 219.448877 194.003481 
L 221.119893 231.297311 
L 221.955401 246.360252 
L 222.790909 257.489678 
L 223.626417 264.284779 
L 224.044171 266.409996 
L 224.461925 267.826808 
L 224.879679 268.609782 
L 225.297433 268.954664 
L 225.715187 268.870774 
L 226.132941 268.414039 
L 226.968449 266.726915 
L 228.639465 262.700188 
L 229.474973 261.059669 
L 231.981497 257.210044 
L 232.817005 256.333858 
L 234.070267 255.513599 
L 234.905775 255.038221 
L 235.741283 254.786551 
L 236.994545 254.646734 
L 239.083316 254.600128 
L 242.425348 254.143393 
L 248.273904 252.996895 
L 249.94492 252.661334 
L 251.198182 252.624049 
L 252.869198 252.614728 
L 254.540214 252.484233 
L 255.375722 252.363058 
L 257.464492 251.962249 
L 260.806524 251.682616 
L 262.47754 251.608047 
L 264.148556 251.123348 
L 265.401818 250.731861 
L 266.237326 250.685255 
L 267.072834 250.657292 
L 269.997112 250.237841 
L 270.83262 250.200556 
L 272.503636 249.65061 
L 273.756898 249.165911 
L 274.592406 248.876956 
L 275.845668 248.15923 
L 278.352193 246.872914 
L 280.023209 245.959444 
L 281.276471 245.129863 
L 282.947487 244.123182 
L 285.036257 242.426736 
L 288.796043 238.866066 
L 293.391337 233.60895 
L 297.151123 228.473009 
L 306.759465 213.736307 
L 309.265989 210.846758 
L 314.696791 206.260763 
L 317.203316 204.862594 
L 318.874332 204.676172 
L 319.70984 204.815989 
L 320.963102 205.319329 
L 321.79861 206.120946 
L 323.051872 207.854676 
L 324.305134 210.007856 
L 325.97615 213.410068 
L 327.229412 216.551288 
L 331.406952 227.149409 
L 333.495722 232.28535 
L 335.166738 236.041764 
L 337.255508 240.80486 
L 339.344278 244.962083 
L 341.015294 247.637246 
L 342.68631 249.892959 
L 343.939572 251.347055 
L 346.446096 253.714621 
L 347.699358 254.590807 
L 349.370374 255.597489 
L 353.13016 256.827878 
L 354.383422 257.079548 
L 357.725455 257.433751 
L 358.978717 257.396467 
L 362.738503 257.750669 
L 366.498289 257.536283 
L 367.751551 257.219365 
L 369.004813 256.883805 
L 371.511337 256.473675 
L 372.764599 256.175399 
L 377.359893 255.961013 
L 378.613155 255.877123 
L 383.626203 255.327176 
L 385.297219 255.178038 
L 386.968235 255.206002 
L 389.057005 255.224644 
L 390.728021 255.550883 
L 391.981283 255.783912 
L 393.234545 255.951692 
L 394.905561 256.520281 
L 396.158824 256.958374 
L 399.083102 257.648137 
L 400.754118 258.067588 
L 402.425134 258.207405 
L 411.197968 259.521684 
L 412.033476 259.540326 
L 414.122246 260.034345 
L 415.375508 260.379227 
L 417.464278 260.947816 
L 418.299786 261.14356 
L 419.553048 261.134238 
L 420.80631 261.087633 
L 421.641818 261.180844 
L 424.566096 261.796039 
L 425.401604 261.991782 
L 427.908128 262.830684 
L 429.579144 263.073033 
L 430.414652 263.138281 
L 433.33893 263.613658 
L 434.592193 263.669585 
L 435.845455 263.632301 
L 435.845455 263.632301 
" style="fill:none;stroke:#1f77b4;stroke-linecap:square;stroke-opacity:0.8;stroke-width:1.5;"/>
   </g>
  </g>
 </g>
 <defs>
  <clipPath id="p10c102ee98">
   <rect height="258.72" width="390.6" x="63" y="40.32"/>
  </clipPath>
 </defs>
</svg>
