<?xml version="1.0" encoding="utf-8" standalone="no"?>
<!DOCTYPE svg PUBLIC "-//W3C//DTD SVG 1.1//EN"
  "http://www.w3.org/Graphics/SVG/1.1/DTD/svg11.dtd">
<!-- Created with matplotlib (https://matplotlib.org/) -->
<svg height="288pt" version="1.1" viewBox="0 0 432 288" width="432pt" xmlns="http://www.w3.org/2000/svg" xmlns:xlink="http://www.w3.org/1999/xlink">
 <defs>
  <style type="text/css">
*{stroke-linecap:butt;stroke-linejoin:round;}
  </style>
 </defs>
 <g id="figure_1">
  <g id="patch_1">
   <path d="M 0 288 
L 432 288 
L 432 0 
L 0 0 
z
" style="fill:#ffffff;"/>
  </g>
  <g id="axes_1">
   <g id="line2d_1">
    <path clip-path="url(#p4b301b681e)" d="M 93.896314 203.015385 
L 94.88344 203.02359 
L 96.528649 202.73641 
L 100.47715 201.907692 
L 101.135233 201.924103 
L 102.122359 202.088205 
L 104.096609 201.989744 
L 108.045111 200.947692 
L 109.690319 201.078974 
L 111.335528 201.226667 
L 113.967862 201.169231 
L 115.613071 200.865641 
L 122.522948 200.414359 
L 124.168157 200.603077 
L 124.826241 200.791795 
L 125.813366 201.13641 
L 127.458575 201.538462 
L 129.432826 201.677949 
L 130.748993 201.554872 
L 131.736118 201.563077 
L 132.723243 201.661538 
L 137.65887 203.122051 
L 140.291204 203.950769 
L 142.265455 204.188718 
L 143.581622 204.213333 
L 144.568747 204.229744 
L 145.884914 204.648205 
L 146.872039 204.94359 
L 148.517248 204.951795 
L 149.833415 205.124103 
L 150.820541 205.222564 
L 151.807666 205.427692 
L 152.794791 205.755897 
L 154.44 205.887179 
L 158.059459 205.944615 
L 159.375627 206.133333 
L 161.020835 206.190769 
L 163.324128 206.108718 
L 164.311253 206.010256 
L 166.614545 205.837949 
L 168.917838 206.477949 
L 169.904963 206.789744 
L 170.563047 206.765128 
L 171.22113 206.354872 
L 171.879214 205.485128 
L 172.866339 203.655385 
L 175.498673 198.108718 
L 176.156757 197.386667 
L 176.81484 197.033846 
L 177.801966 196.738462 
L 178.460049 196.418462 
L 179.118133 195.975385 
L 180.4343 194.802051 
L 181.421425 193.374359 
L 182.40855 192.118974 
L 183.066634 191.618462 
L 183.724717 191.487179 
L 184.053759 191.511795 
L 184.711843 191.848205 
L 185.698968 192.8 
L 187.344177 195.072821 
L 189.647469 198.502564 
L 191.62172 200.562051 
L 194.254054 203.647179 
L 195.241179 205.214359 
L 196.557346 207.364103 
L 197.544472 208.734359 
L 198.531597 209.604103 
L 199.847764 210.326154 
L 200.505848 210.441026 
L 203.467224 210.326154 
L 204.454349 210.687179 
L 206.099558 211.015385 
L 208.40285 211.581538 
L 211.693268 211.015385 
L 212.680393 211.122051 
L 213.338477 211.483077 
L 214.325602 212.30359 
L 215.312727 213.329231 
L 216.299853 213.944615 
L 216.628894 213.993846 
L 216.957936 213.870769 
L 217.286978 213.591795 
L 217.61602 213.025641 
L 217.945061 212.147692 
L 218.603145 209.292308 
L 219.261229 204.886154 
L 219.919312 198.921026 
L 220.906437 187.05641 
L 221.893563 171.573333 
L 222.880688 152.594872 
L 224.196855 122.580513 
L 226.171106 76.328205 
L 227.158231 57.12 
L 227.816314 48.808205 
L 228.145356 46.658462 
L 228.474398 45.92 
L 228.80344 46.57641 
L 229.132482 48.570256 
L 229.790565 55.626667 
L 230.448649 65.858462 
L 231.106732 79.175385 
L 232.093857 104.882051 
L 234.068108 159.339487 
L 235.384275 188.672821 
L 236.3714 204.894359 
L 237.029484 211.745641 
L 237.687568 215.306667 
L 238.016609 216.135385 
L 238.345651 216.553846 
L 238.674693 216.553846 
L 239.003735 216.201026 
L 239.332776 215.585641 
L 240.319902 212.730256 
L 241.636069 209.062564 
L 242.294152 207.716923 
L 243.610319 205.690256 
L 244.597445 204.607179 
L 245.255528 204.098462 
L 245.913612 203.876923 
L 246.571695 204.041026 
L 247.887862 204.533333 
L 249.204029 204.705641 
L 250.191155 204.648205 
L 251.507322 204.180513 
L 252.165405 203.958974 
L 254.79774 203.852308 
L 256.113907 203.827692 
L 265.98516 202.014359 
L 266.972285 201.489231 
L 267.95941 200.841026 
L 268.946536 200.48 
L 272.895037 199.684103 
L 273.55312 199.347692 
L 276.185455 197.6 
L 278.159705 196.172308 
L 279.475872 195.401026 
L 284.740541 191.462564 
L 285.727666 190.822564 
L 287.043833 189.714872 
L 288.030958 189.001026 
L 289.347125 187.737436 
L 296.915086 178.744615 
L 298.231253 176.890256 
L 301.521671 173.033846 
L 303.16688 171.442051 
L 308.431548 166.084103 
L 309.747715 165.099487 
L 311.721966 164.065641 
L 312.709091 163.868718 
L 314.3543 163.794872 
L 315.341425 163.942564 
L 315.999509 164.278974 
L 316.986634 165.058462 
L 317.973759 166.22359 
L 318.960885 167.782564 
L 320.277052 170.38359 
L 322.251302 174.88 
L 328.174054 188.664615 
L 330.477346 192.455385 
L 331.464472 193.661538 
L 333.438722 195.852308 
L 335.083931 197.731282 
L 337.058182 199.544615 
L 337.716265 200.053333 
L 339.361474 200.890256 
L 341.006683 201.45641 
L 342.980934 201.842051 
L 344.297101 202.235897 
L 344.955184 202.465641 
L 347.258477 202.687179 
L 349.232727 202.539487 
L 349.890811 202.465641 
L 353.51027 202.826667 
L 355.155479 202.637949 
L 356.142604 202.424615 
L 358.116855 202.424615 
L 359.762064 202.523077 
L 361.078231 202.678974 
L 364.368649 202.088205 
L 366.671941 201.554872 
L 368.646192 201.259487 
L 370.2914 201.275897 
L 373.581818 201.005128 
L 373.581818 201.005128 
" style="fill:none;stroke:#8c564b;stroke-linecap:square;stroke-opacity:0.8;stroke-width:1.5;"/>
   </g>
   <g id="line2d_2">
    <path clip-path="url(#p4b301b681e)" d="M 88.960688 199.675897 
L 91.593022 205.649231 
L 93.567273 210.580513 
L 93.896314 210.350769 
L 95.870565 211.02359 
L 96.528649 211.064615 
L 97.844816 211.02359 
L 100.47715 211.187692 
L 102.780442 211.072821 
L 106.728943 210.178462 
L 111.66457 210.071795 
L 112.980737 209.768205 
L 115.284029 209.177436 
L 116.929238 208.923077 
L 118.245405 209.005128 
L 119.890614 209.144615 
L 125.155283 209.243077 
L 126.47145 209.407179 
L 127.458575 209.538462 
L 128.4457 209.669744 
L 131.736118 209.76 
L 133.381327 209.997949 
L 137.000786 211.36 
L 137.987912 211.556923 
L 138.975037 211.368205 
L 140.949287 210.974359 
L 143.25258 211.138462 
L 145.22683 211.721026 
L 147.530123 211.901538 
L 149.504373 211.967179 
L 155.098084 211.926154 
L 156.414251 211.876923 
L 157.730418 211.68 
L 159.375627 211.409231 
L 160.691794 210.933333 
L 161.349877 210.457436 
L 162.007961 209.595897 
L 162.995086 207.708718 
L 164.640295 204.418462 
L 165.956462 202.153846 
L 166.614545 201.448205 
L 168.917838 199.50359 
L 169.904963 198.075897 
L 171.22113 195.597949 
L 172.208256 193.686154 
L 173.195381 192.258462 
L 173.853464 191.50359 
L 174.84059 190.756923 
L 176.156757 189.878974 
L 178.131007 189.148718 
L 179.118133 188.96 
L 179.776216 189.26359 
L 180.4343 190.002051 
L 181.092383 191.101538 
L 182.079509 193.292308 
L 183.066634 196.139487 
L 186.02801 205.92 
L 187.344177 209.42359 
L 188.331302 211.327179 
L 189.318428 212.722051 
L 190.305553 213.805128 
L 191.950762 214.838974 
L 193.266929 215.282051 
L 194.254054 215.487179 
L 196.557346 215.585641 
L 197.544472 215.790769 
L 200.176806 216.586667 
L 206.4286 216.808205 
L 207.744767 216.78359 
L 208.40285 217.037949 
L 209.060934 217.571282 
L 211.035184 219.368205 
L 211.693268 219.704615 
L 212.02231 219.778462 
L 212.351351 219.729231 
L 212.680393 219.450256 
L 213.009435 218.875897 
L 213.338477 217.924103 
L 213.99656 214.814359 
L 214.654644 210.014359 
L 215.641769 200.168205 
L 216.628894 187.171282 
L 217.61602 171.204103 
L 219.261229 139.647179 
L 221.893563 86.822564 
L 222.551646 75.69641 
L 223.20973 68.574359 
L 223.538771 66.957949 
L 223.867813 66.711795 
L 224.196855 67.917949 
L 224.525897 70.322051 
L 225.18398 77.788718 
L 225.842064 88.151795 
L 226.500147 101.682051 
L 227.487273 129.10359 
L 228.80344 166.54359 
L 229.790565 188.812308 
L 230.77769 207.347692 
L 231.435774 216.906667 
L 232.093857 223.232821 
L 232.422899 225.128205 
L 232.751941 226.358974 
L 233.080983 226.974359 
L 233.410025 227.146667 
L 233.739066 227.05641 
L 234.068108 226.769231 
L 234.726192 225.612308 
L 235.384275 223.741538 
L 237.687568 216.447179 
L 238.674693 214.067692 
L 239.332776 212.771282 
L 239.99086 211.901538 
L 241.307027 210.793846 
L 241.965111 210.490256 
L 242.952236 210.375385 
L 244.268403 210.235897 
L 244.926486 210.071795 
L 247.229779 209.325128 
L 248.874988 208.726154 
L 249.862113 208.348718 
L 252.494447 207.478974 
L 254.79774 206.494359 
L 256.113907 206.075897 
L 257.430074 205.731282 
L 261.707617 205.001026 
L 262.694742 204.508718 
L 264.668993 203.524103 
L 265.656118 203.113846 
L 266.972285 202.285128 
L 269.604619 201.070769 
L 270.920786 200.397949 
L 273.55312 199.314872 
L 275.856413 197.755897 
L 276.843538 197.181538 
L 278.159705 196.278974 
L 279.14683 195.69641 
L 280.462998 194.367179 
L 283.095332 191.273846 
L 284.082457 190.338462 
L 285.398624 189.427692 
L 288.36 186.810256 
L 289.676167 185.316923 
L 294.282752 180.082051 
L 295.927961 178.301538 
L 296.915086 177.431795 
L 297.57317 176.791795 
L 298.560295 175.782564 
L 301.192629 173.870769 
L 301.850713 173.452308 
L 302.508796 172.968205 
L 305.799214 171.097436 
L 309.418673 168.299487 
L 310.405799 167.872821 
L 311.063882 167.930256 
L 312.380049 168.373333 
L 314.025258 169.382564 
L 315.341425 170.539487 
L 316.657592 171.934359 
L 317.644717 173.345641 
L 318.960885 175.708718 
L 320.277052 178.424615 
L 326.857887 193.275897 
L 329.490221 197.837949 
L 331.793514 200.758974 
L 332.780639 201.874872 
L 334.754889 203.630769 
L 336.400098 204.804103 
L 337.058182 205.124103 
L 338.045307 205.788718 
L 339.032432 206.231795 
L 341.006683 206.732308 
L 341.664767 206.838974 
L 343.639017 206.428718 
L 344.626143 206.305641 
L 346.271351 205.928205 
L 349.890811 206.453333 
L 351.53602 206.797949 
L 352.194103 206.732308 
L 355.484521 205.813333 
L 356.800688 205.386667 
L 357.458771 205.435897 
L 359.10398 205.796923 
L 360.749189 205.985641 
L 361.407273 206.092308 
L 362.72344 205.821538 
L 363.710565 205.58359 
L 365.684816 205.788718 
L 366.671941 205.846154 
L 368.31715 206.24 
L 368.31715 206.24 
" style="fill:none;stroke:#9467bd;stroke-linecap:square;stroke-opacity:0.8;stroke-width:1.5;"/>
   </g>
   <g id="line2d_3">
    <path clip-path="url(#p4b301b681e)" d="M 84.025061 208.570256 
L 84.683145 208.701538 
L 88.631646 208.701538 
L 95.541523 209.111795 
L 97.186732 209.464615 
L 98.831941 209.472821 
L 102.122359 209.661538 
L 102.780442 209.735385 
L 105.412776 210.547692 
L 107.057985 210.810256 
L 107.716069 210.949744 
L 108.703194 211.015385 
L 111.006486 211.327179 
L 112.651695 211.179487 
L 113.309779 211.34359 
L 116.600197 212.393846 
L 117.587322 212.787692 
L 118.574447 212.968205 
L 120.219656 213.074872 
L 121.864865 213.222564 
L 124.826241 213.698462 
L 126.800491 214.379487 
L 130.419951 215.290256 
L 131.078034 215.388718 
L 132.394201 215.716923 
L 134.03941 215.700513 
L 135.026536 215.790769 
L 136.013661 215.946667 
L 138.975037 215.946667 
L 142.265455 216.521026 
L 145.555872 217.390769 
L 146.542998 217.44 
L 147.859165 217.645128 
L 154.110958 217.850256 
L 156.085209 217.989744 
L 156.743292 218.153846 
L 157.730418 218.637949 
L 159.375627 219.581538 
L 160.691794 220.032821 
L 161.349877 219.942564 
L 161.678919 219.753846 
L 162.337002 218.900513 
L 162.995086 217.382564 
L 164.311253 213.747692 
L 165.62742 210.038974 
L 166.614545 207.913846 
L 167.272629 207.142564 
L 167.601671 206.945641 
L 169.904963 206.88 
L 170.892088 206.125128 
L 171.879214 204.94359 
L 174.182506 202.203077 
L 174.84059 202.022564 
L 175.498673 202.4 
L 176.156757 203.02359 
L 177.472924 204.738462 
L 178.460049 206.683077 
L 179.447174 208.603077 
L 180.105258 209.579487 
L 183.066634 212.869744 
L 183.724717 213.468718 
L 184.382801 214.428718 
L 185.369926 216.389744 
L 186.357052 218.367179 
L 187.673219 220.484103 
L 188.660344 222.026667 
L 189.318428 222.642051 
L 189.976511 222.986667 
L 192.608845 223.593846 
L 195.241179 223.692308 
L 196.557346 223.881026 
L 197.873514 224.036923 
L 200.176806 223.946667 
L 201.822015 223.741538 
L 203.138182 223.487179 
L 203.796265 223.52 
L 204.454349 223.725128 
L 205.441474 224.315897 
L 208.073808 226.153846 
L 208.40285 226.145641 
L 208.731892 225.997949 
L 209.060934 225.694359 
L 209.389975 225.13641 
L 209.719017 224.283077 
L 210.377101 221.526154 
L 211.035184 217.193846 
L 212.02231 208.315897 
L 213.009435 196.927179 
L 214.325602 178.227692 
L 215.970811 150.756923 
L 219.919312 81.464615 
L 220.248354 78.54359 
L 220.577396 76.902564 
L 220.906437 76.648205 
L 221.235479 77.731282 
L 221.564521 80.036923 
L 222.222604 87.18359 
L 222.880688 97.243077 
L 223.538771 110.781538 
L 224.525897 138.432821 
L 225.842064 177.579487 
L 226.829189 201.604103 
L 227.816314 221.29641 
L 228.474398 231.18359 
L 229.132482 237.805128 
L 229.461523 239.757949 
L 229.790565 240.857436 
L 230.119607 241.243077 
L 230.448649 241.13641 
L 230.77769 240.701538 
L 231.435774 239.150769 
L 232.422899 235.975385 
L 234.39715 229.206154 
L 235.713317 225.858462 
L 237.358526 222.264615 
L 238.674693 220.361026 
L 239.332776 219.803077 
L 239.99086 219.507692 
L 241.965111 219.105641 
L 244.926486 218.637949 
L 245.913612 218.432821 
L 246.900737 218.293333 
L 249.533071 217.489231 
L 250.191155 217.341538 
L 251.507322 216.890256 
L 254.139656 216.414359 
L 255.784865 216.077949 
L 261.049533 215.733333 
L 266.643243 213.887179 
L 268.288452 213.468718 
L 269.604619 212.951795 
L 271.249828 212.557949 
L 274.869287 210.933333 
L 276.514496 209.792821 
L 278.817789 208.356923 
L 279.475872 207.987692 
L 280.462998 207.544615 
L 282.108206 206.502564 
L 283.753415 205.099487 
L 285.727666 203.081026 
L 288.36 199.889231 
L 290.334251 197.870769 
L 292.308501 196.131282 
L 296.586044 191.913846 
L 302.837838 187.204103 
L 303.824963 186.687179 
L 305.14113 186.178462 
L 306.128256 186.137436 
L 308.76059 186.424615 
L 310.076757 186.285128 
L 311.721966 185.677949 
L 312.709091 185.415385 
L 313.696216 185.202051 
L 317.315676 183.831795 
L 318.960885 182.888205 
L 319.94801 182.584615 
L 321.593219 182.231795 
L 322.580344 182.305641 
L 324.554595 183.060513 
L 325.54172 183.667692 
L 326.857887 184.767179 
L 329.161179 187.458462 
L 330.148305 188.779487 
L 332.451597 192.16 
L 333.767764 194.326154 
L 335.742015 197.837949 
L 337.387224 200.217436 
L 339.032432 202.129231 
L 341.006683 204.172308 
L 343.639017 206.264615 
L 344.955184 206.830769 
L 346.271351 207.208205 
L 348.245602 207.979487 
L 348.903686 208.16 
L 349.890811 208.315897 
L 351.206978 208.635897 
L 353.51027 208.873846 
L 354.826437 209.13641 
L 356.142604 209.13641 
L 360.420147 208.832821 
L 363.710565 209.653333 
L 363.710565 209.653333 
" style="fill:none;stroke:#d62728;stroke-linecap:square;stroke-opacity:0.8;stroke-width:1.5;"/>
   </g>
   <g id="line2d_4">
    <path clip-path="url(#p4b301b681e)" d="M 79.089435 220.33641 
L 80.07656 220.352821 
L 82.050811 220.779487 
L 83.69602 221.058462 
L 84.683145 220.828718 
L 86.328354 220.237949 
L 88.960688 219.926154 
L 90.605897 220.196923 
L 92.251106 220.188718 
L 92.909189 220.082051 
L 95.541523 219.401026 
L 96.528649 219.34359 
L 100.148108 220.139487 
L 102.4514 220.213333 
L 104.425651 220.196923 
L 106.399902 221.033846 
L 109.690319 221.345641 
L 111.66457 221.394872 
L 114.296904 222.601026 
L 116.929238 223.126154 
L 118.903489 223.298462 
L 121.206781 223.85641 
L 121.864865 224.045128 
L 123.181032 224.209231 
L 124.826241 224.348718 
L 126.142408 224.151795 
L 127.129533 224.168205 
L 128.116658 224.381538 
L 132.06516 225.718974 
L 132.723243 225.677949 
L 134.697494 225.185641 
L 136.013661 225.202051 
L 137.000786 225.382564 
L 137.987912 225.694359 
L 139.63312 226.235897 
L 141.278329 226.375385 
L 143.910663 226.424615 
L 145.555872 226.949744 
L 147.530123 227.34359 
L 148.84629 227.261538 
L 150.162457 226.851282 
L 151.807666 226.580513 
L 153.452875 226.802051 
L 158.388501 227.37641 
L 159.046585 227.179487 
L 159.704668 226.678974 
L 160.362752 225.907692 
L 161.020835 224.849231 
L 162.007961 222.724103 
L 162.995086 220.598974 
L 164.311253 218.203077 
L 164.969337 217.530256 
L 165.956462 216.996923 
L 166.943587 216.48 
L 167.930713 215.626667 
L 169.575921 213.846154 
L 170.892088 212.073846 
L 171.550172 211.474872 
L 172.208256 211.171282 
L 172.866339 211.286154 
L 173.195381 211.474872 
L 174.182506 212.664615 
L 175.498673 214.494359 
L 177.801966 218.572308 
L 178.789091 219.647179 
L 180.4343 221.230769 
L 181.421425 221.911795 
L 182.40855 223.142564 
L 184.053759 225.907692 
L 185.698968 228.664615 
L 186.357052 229.394872 
L 187.015135 229.878974 
L 187.673219 230.059487 
L 188.331302 230.043077 
L 190.305553 229.747692 
L 191.62172 229.755897 
L 192.608845 230.034872 
L 194.254054 230.502564 
L 194.912138 230.56 
L 197.873514 229.805128 
L 199.189681 229.427692 
L 199.847764 229.550769 
L 200.834889 230.043077 
L 201.492973 230.650256 
L 202.151057 231.569231 
L 204.125307 234.851282 
L 204.783391 235.433846 
L 205.112432 235.499487 
L 205.441474 235.318974 
L 205.770516 234.826667 
L 206.099558 233.956923 
L 206.4286 232.619487 
L 207.086683 228.418462 
L 207.744767 222.075897 
L 208.731892 209.366154 
L 209.719017 191.881026 
L 210.706143 169.891282 
L 212.02231 134.010256 
L 213.99656 78.412308 
L 214.983686 55.987692 
L 215.641769 47.027692 
L 215.970811 45.083077 
L 216.299853 44.64 
L 216.628894 45.641026 
L 216.957936 48.168205 
L 217.61602 56.521026 
L 218.274103 68.213333 
L 218.932187 83.499487 
L 219.919312 113.595897 
L 221.564521 164.459487 
L 222.880688 198.190769 
L 223.867813 217.915897 
L 224.525897 226.457436 
L 225.18398 231.462564 
L 225.513022 232.947692 
L 225.842064 233.850256 
L 226.171106 234.367179 
L 226.500147 234.473846 
L 226.829189 234.293333 
L 227.158231 233.842051 
L 227.816314 232.283077 
L 229.132482 228.894359 
L 230.119607 226.933333 
L 231.435774 224.988718 
L 232.093857 224.340513 
L 233.080983 223.954872 
L 234.068108 223.774359 
L 236.3714 223.733333 
L 237.687568 223.454359 
L 240.648943 222.732308 
L 241.965111 222.642051 
L 242.623194 222.535385 
L 243.939361 222.075897 
L 247.229779 220.566154 
L 248.545946 220.467692 
L 249.204029 220.352821 
L 250.191155 219.934359 
L 252.494447 218.687179 
L 254.139656 217.784615 
L 255.126781 217.349744 
L 257.759115 216.512821 
L 258.746241 215.979487 
L 261.049533 214.002051 
L 264.339951 211.409231 
L 265.327076 210.826667 
L 266.972285 209.407179 
L 267.95941 208.340513 
L 273.882162 200.931282 
L 275.198329 198.592821 
L 286.385749 175.060513 
L 288.030958 172.254359 
L 290.992334 168.020513 
L 292.966585 165.444103 
L 294.282752 164.180513 
L 294.940835 163.917949 
L 295.598919 163.893333 
L 295.927961 164 
L 297.244128 165.009231 
L 298.231253 166.428718 
L 299.218378 168.414359 
L 300.534545 171.852308 
L 301.521671 174.888205 
L 304.154005 184.586667 
L 306.457297 193.366154 
L 308.102506 198.929231 
L 309.747715 203.401026 
L 313.367174 211.573333 
L 315.012383 214.469744 
L 315.670467 215.273846 
L 316.986634 216.274872 
L 319.94801 218.244103 
L 320.935135 218.982564 
L 322.580344 219.606154 
L 323.238428 219.458462 
L 324.554595 219.015385 
L 325.54172 218.596923 
L 326.528845 218.408205 
L 327.845012 218.555897 
L 329.490221 219.122051 
L 330.477346 219.277949 
L 331.793514 218.966154 
L 334.096806 218.129231 
L 335.412973 218.006154 
L 338.703391 218.637949 
L 339.690516 218.178462 
L 342.32285 217.029744 
L 343.309975 216.955897 
L 345.613268 217.472821 
L 347.587518 217.612308 
L 349.232727 217.448205 
L 351.206978 217.694359 
L 353.51027 218.350769 
L 354.826437 218.539487 
L 358.116855 218.637949 
L 358.774939 218.900513 
L 358.774939 218.900513 
" style="fill:none;stroke:#2ca02c;stroke-linecap:square;stroke-opacity:0.8;stroke-width:1.5;"/>
   </g>
   <g id="line2d_5">
    <path clip-path="url(#p4b301b681e)" d="M 74.153808 229.61641 
L 78.760393 229.632821 
L 81.063686 229.222564 
L 83.366978 228.426667 
L 85.012187 228.180513 
L 87.644521 228.180513 
L 89.618771 227.597949 
L 92.251106 226.834872 
L 94.225356 226.613333 
L 96.528649 225.694359 
L 97.844816 225.054359 
L 99.160983 224.619487 
L 101.793317 224.644103 
L 102.4514 224.652308 
L 104.754693 224.291282 
L 106.728943 224.17641 
L 107.387027 224.258462 
L 114.954988 225.661538 
L 117.25828 225.997949 
L 118.574447 226.457436 
L 120.548698 226.990769 
L 122.522948 227.835897 
L 124.497199 228.434872 
L 125.813366 228.787692 
L 128.116658 229.058462 
L 129.761867 229.247179 
L 130.748993 229.173333 
L 132.06516 229.230769 
L 135.026536 229.862564 
L 136.013661 229.952821 
L 137.000786 229.92 
L 137.987912 229.944615 
L 140.620246 230.25641 
L 141.607371 230.354872 
L 142.594496 230.322051 
L 143.910663 230.157949 
L 146.872039 229.993846 
L 148.84629 230.371282 
L 149.833415 230.724103 
L 151.149582 231.405128 
L 151.807666 231.273846 
L 152.465749 230.822564 
L 153.123833 229.93641 
L 154.110958 227.770256 
L 156.414251 222.141538 
L 157.072334 221.091282 
L 157.730418 220.492308 
L 158.717543 220.188718 
L 160.691794 219.638974 
L 162.007961 218.596923 
L 164.311253 215.987692 
L 164.640295 215.774359 
L 164.969337 215.733333 
L 165.298378 215.864615 
L 166.285504 216.767179 
L 166.943587 217.702564 
L 168.588796 220.65641 
L 169.904963 223.249231 
L 170.563047 224.020513 
L 171.550172 224.767179 
L 172.208256 225.087179 
L 173.524423 225.989744 
L 174.182506 226.4 
L 175.169631 227.384615 
L 175.827715 228.278974 
L 178.789091 232.939487 
L 180.105258 234.186667 
L 180.763342 234.465641 
L 183.066634 234.843077 
L 184.711843 234.834872 
L 189.318428 234.531282 
L 189.976511 234.637949 
L 191.292678 234.531282 
L 192.608845 234.252308 
L 193.266929 234.41641 
L 193.925012 234.802051 
L 194.912138 235.860513 
L 196.228305 237.337436 
L 196.886388 237.944615 
L 197.544472 238.092308 
L 197.873514 237.977436 
L 198.202555 237.517949 
L 198.531597 236.615385 
L 198.860639 235.228718 
L 199.518722 230.962051 
L 200.176806 224.775385 
L 200.834889 216.882051 
L 201.822015 201.718974 
L 202.80914 182.289231 
L 204.125307 150.568205 
L 207.415725 63.905641 
L 208.073808 52.484103 
L 208.40285 49.128205 
L 208.731892 47.380513 
L 209.060934 47.224615 
L 209.389975 48.709744 
L 209.719017 51.688205 
L 210.377101 60.910769 
L 211.035184 73.530256 
L 211.693268 89.595897 
L 212.680393 120.151795 
L 214.325602 171.031795 
L 215.641769 203.934359 
L 216.628894 222.584615 
L 217.286978 230.691282 
L 217.945061 235.146667 
L 218.274103 236.246154 
L 218.603145 236.820513 
L 218.932187 236.935385 
L 219.261229 236.62359 
L 219.919312 235.327179 
L 221.893563 230.198974 
L 222.880688 228.598974 
L 223.867813 227.417436 
L 225.18398 226.260513 
L 225.842064 225.973333 
L 226.829189 225.595897 
L 227.487273 225.702564 
L 228.474398 225.973333 
L 229.790565 226.088205 
L 232.751941 226.08 
L 234.726192 225.940513 
L 235.713317 225.817436 
L 237.029484 225.472821 
L 238.345651 224.914872 
L 243.281278 223.454359 
L 248.216904 221.673846 
L 250.849238 220.352821 
L 253.481572 219.745641 
L 255.455823 219.401026 
L 256.442948 219.163077 
L 257.101032 218.966154 
L 261.049533 216.611282 
L 264.668993 214.043077 
L 265.656118 213.148718 
L 266.643243 212.344615 
L 267.630369 211.392821 
L 269.933661 208.545641 
L 273.882162 202.966154 
L 274.869287 201.579487 
L 275.856413 200.102564 
L 276.843538 198.773333 
L 278.817789 196.590769 
L 279.475872 195.860513 
L 280.462998 194.629744 
L 284.082457 190.633846 
L 289.347125 186.810256 
L 290.334251 186.449231 
L 290.992334 186.367179 
L 291.650418 186.605128 
L 292.637543 187.269744 
L 293.295627 187.934359 
L 294.940835 190.305641 
L 296.915086 194.121026 
L 298.560295 198.002051 
L 300.534545 203.499487 
L 302.179754 208.045128 
L 304.483047 213.870769 
L 305.799214 216.627692 
L 306.786339 218.555897 
L 308.431548 221.083077 
L 310.076757 223.068718 
L 312.051007 225.226667 
L 314.025258 226.957949 
L 316.32855 228.377436 
L 317.644717 229.009231 
L 320.606093 230.231795 
L 321.593219 230.469744 
L 323.238428 230.412308 
L 325.870762 229.993846 
L 330.148305 230.22359 
L 332.451597 229.673846 
L 335.083931 228.984615 
L 336.071057 228.853333 
L 337.058182 228.582564 
L 338.045307 228.508718 
L 341.006683 228.073846 
L 342.980934 228.114872 
L 347.91656 227.69641 
L 348.574644 227.729231 
L 350.219853 227.548718 
L 351.53602 227.532308 
L 353.181229 227.466667 
L 353.839312 227.68 
L 353.839312 227.68 
" style="fill:none;stroke:#ff7f0e;stroke-linecap:square;stroke-opacity:0.8;stroke-width:1.5;"/>
   </g>
   <g id="line2d_6">
    <path clip-path="url(#p4b301b681e)" d="M 69.218182 233.661538 
L 71.521474 234.022564 
L 72.179558 234.153846 
L 74.153808 234.826667 
L 76.457101 235.37641 
L 77.115184 235.515897 
L 78.431351 235.589744 
L 81.392727 236.369231 
L 83.69602 236.582564 
L 86.986437 236.598974 
L 88.631646 236.845128 
L 89.947813 236.984615 
L 91.922064 237.419487 
L 93.238231 237.427692 
L 94.554398 237.665641 
L 99.160983 238.855385 
L 100.806192 239.167179 
L 101.793317 239.347692 
L 105.412776 239.790769 
L 106.728943 239.675897 
L 108.703194 239.807179 
L 110.677445 239.733333 
L 111.335528 239.708718 
L 112.980737 239.495385 
L 113.967862 239.774359 
L 118.903489 240.053333 
L 122.522948 239.889231 
L 124.497199 240.184615 
L 125.484324 240.299487 
L 126.142408 240.217436 
L 127.458575 239.864615 
L 128.116658 239.651282 
L 130.090909 239.405128 
L 131.078034 239.437949 
L 133.381327 239.848205 
L 134.697494 239.815385 
L 136.342703 239.831795 
L 137.000786 239.774359 
L 138.645995 239.774359 
L 141.278329 239.708718 
L 142.594496 240.028718 
L 143.581622 240.266667 
L 144.239705 240.291282 
L 144.897789 240.012308 
L 145.555872 239.446154 
L 146.213956 238.54359 
L 146.872039 237.29641 
L 149.504373 231.552821 
L 150.162457 230.806154 
L 150.820541 230.404103 
L 153.123833 229.271795 
L 153.781916 228.722051 
L 154.769042 227.417436 
L 156.414251 225.087179 
L 157.072334 224.48 
L 157.730418 224.110769 
L 158.388501 224.110769 
L 158.717543 224.250256 
L 159.375627 224.857436 
L 160.362752 226.203077 
L 162.007961 229.033846 
L 162.995086 230.822564 
L 163.65317 231.659487 
L 164.640295 232.373333 
L 165.62742 232.849231 
L 167.601671 234.203077 
L 168.259754 235.048205 
L 171.550172 240.110769 
L 172.208256 240.767179 
L 173.195381 241.251282 
L 174.182506 241.481026 
L 176.81484 241.727179 
L 184.053759 241.078974 
L 186.686093 240.750769 
L 187.015135 240.865641 
L 187.673219 241.538462 
L 189.318428 243.803077 
L 190.963636 246.092308 
L 191.292678 246.24 
L 191.62172 246.157949 
L 191.950762 245.665641 
L 192.279803 244.705641 
L 192.937887 241.308718 
L 193.595971 236.073846 
L 194.254054 229.025641 
L 194.912138 219.942564 
L 195.899263 202.391795 
L 196.886388 180.106667 
L 198.202555 144.291282 
L 200.176806 88.603077 
L 201.163931 65.620513 
L 201.822015 56.020513 
L 202.151057 53.542564 
L 202.480098 52.664615 
L 202.80914 53.435897 
L 203.138182 55.675897 
L 203.796265 63.544615 
L 204.454349 74.637949 
L 205.112432 89.021538 
L 206.099558 117.772308 
L 207.744767 168.504615 
L 209.060934 202.810256 
L 210.048059 223.684103 
L 210.706143 233.481026 
L 211.364226 239.462564 
L 212.02231 242.580513 
L 212.351351 243.269744 
L 212.680393 243.573333 
L 213.009435 243.499487 
L 213.338477 243.097436 
L 213.99656 241.612308 
L 215.641769 237.312821 
L 216.628894 235.442051 
L 217.945061 233.234872 
L 218.603145 232.46359 
L 219.919312 231.511795 
L 220.577396 231.175385 
L 221.893563 230.978462 
L 223.538771 230.937436 
L 226.500147 230.469744 
L 232.751941 229.173333 
L 234.39715 229.189744 
L 235.713317 229.074872 
L 236.3714 228.968205 
L 238.016609 228.615385 
L 240.648943 228.369231 
L 241.965111 228.30359 
L 243.610319 227.745641 
L 244.597445 227.474872 
L 245.58457 227.466667 
L 247.887862 227.097436 
L 248.545946 227.064615 
L 249.862113 226.580513 
L 250.849238 226.153846 
L 251.507322 225.899487 
L 252.823489 225.062564 
L 254.139656 224.340513 
L 257.759115 221.961026 
L 258.746241 221.115897 
L 261.049533 218.785641 
L 263.681867 215.897436 
L 267.301327 210.949744 
L 271.907912 203.425641 
L 277.17258 194.531282 
L 278.817789 192.422564 
L 283.095332 188.385641 
L 285.069582 187.154872 
L 286.385749 186.990769 
L 287.043833 187.113846 
L 288.030958 187.556923 
L 288.689042 188.262564 
L 289.676167 189.788718 
L 290.663292 191.684103 
L 291.979459 194.678974 
L 292.966585 197.444103 
L 296.915086 208.627692 
L 298.231253 212.073846 
L 302.837838 223.076923 
L 303.824963 224.808205 
L 305.14113 226.793846 
L 306.457297 228.443077 
L 308.102506 230.157949 
L 309.089631 230.929231 
L 310.73484 231.946667 
L 314.683342 233.169231 
L 315.670467 233.316923 
L 316.657592 233.472821 
L 317.973759 233.398974 
L 320.935135 233.710769 
L 324.225553 233.448205 
L 326.528845 232.865641 
L 328.503096 232.414359 
L 329.161179 232.299487 
L 333.109681 232.110769 
L 337.716265 231.528205 
L 339.032432 231.470769 
L 341.993808 231.53641 
L 342.980934 231.774359 
L 343.968059 231.979487 
L 344.955184 232.127179 
L 346.600393 232.775385 
L 347.587518 233.087179 
L 348.903686 233.382564 
L 348.903686 233.382564 
" style="fill:none;stroke:#1f77b4;stroke-linecap:square;stroke-opacity:0.8;stroke-width:1.5;"/>
   </g>
  </g>
 </g>
 <defs>
  <clipPath id="p4b301b681e">
   <rect height="221.76" width="334.8" x="54" y="34.56"/>
  </clipPath>
 </defs>
</svg>
