<?xml version="1.0" encoding="utf-8" standalone="no"?>
<!DOCTYPE svg PUBLIC "-//W3C//DTD SVG 1.1//EN"
  "http://www.w3.org/Graphics/SVG/1.1/DTD/svg11.dtd">
<!-- Created with matplotlib (https://matplotlib.org/) -->
<svg height="266.4pt" version="1.1" viewBox="0 0 360 266.4" width="360pt" xmlns="http://www.w3.org/2000/svg" xmlns:xlink="http://www.w3.org/1999/xlink">
 <defs>
  <style type="text/css">
*{stroke-linecap:butt;stroke-linejoin:round;}
  </style>
 </defs>
 <g id="figure_1">
  <g id="patch_1">
   <path d="M 0 266.4 
L 360 266.4 
L 360 0 
L 0 0 
z
" style="fill:none;"/>
  </g>
  <g id="axes_1">
   <g id="line2d_1">
    <path clip-path="url(#p5aee9659db)" d="M 46.752273 153.529323 
L 50.368038 153.391855 
L 53.983803 152.714651 
L 57.599568 151.608314 
L 61.215334 150.260901 
L 64.831099 148.979629 
L 68.446864 148.159833 
L 72.062629 148.181882 
L 75.678395 149.275216 
L 79.29416 151.41663 
L 82.909925 154.335215 
L 86.52569 157.644014 
L 90.141456 161.028306 
L 93.757221 164.387213 
L 97.372986 167.831871 
L 100.988751 171.544971 
L 104.604517 175.598274 
L 108.220282 179.847606 
L 111.836047 183.983429 
L 115.451812 187.692758 
L 119.067578 190.819637 
L 122.683343 193.416782 
L 126.299108 195.666091 
L 129.914873 197.731006 
L 133.530639 199.63001 
L 137.146404 201.190817 
L 140.762169 202.084432 
L 144.377934 201.919911 
L 147.9937 200.364373 
L 151.609465 197.252153 
L 155.22523 192.64676 
L 158.840995 186.834333 
L 162.456761 180.263982 
L 166.072526 173.468044 
L 169.688291 166.989906 
L 173.304056 161.319533 
L 176.919822 156.821593 
L 180.535587 153.660782 
L 184.151352 151.752872 
L 187.767117 150.774864 
L 191.382883 150.239938 
L 194.998648 149.607031 
L 198.614413 148.389092 
L 202.230178 146.240111 
L 205.845944 143.02154 
L 209.461709 138.843105 
L 213.077474 134.055789 
L 216.693239 129.174983 
L 220.309005 124.742846 
L 223.92477 121.188602 
L 227.540535 118.752338 
L 231.1563 117.502158 
L 234.772066 117.405727 
L 238.387831 118.398267 
L 242.003596 120.413089 
L 245.619361 123.385733 
L 249.235127 127.257287 
L 252.850892 131.992325 
L 256.466657 137.590537 
L 260.082422 144.075472 
L 263.698188 151.451334 
L 267.313953 159.654997 
L 270.929718 168.531815 
L 274.545483 177.852415 
L 278.161249 187.35088 
L 281.777014 196.746238 
L 285.392779 205.728805 
L 289.008544 213.913376 
L 292.62431 220.801816 
L 296.240075 225.800957 
L 299.85584 228.317285 
L 303.471605 227.910161 
L 307.087371 224.441587 
L 310.703136 218.163398 
L 314.318901 209.702251 
L 317.934666 199.954316 
L 321.550432 189.926787 
L 325.166197 180.58212 
L 328.781962 172.724457 
L 332.397727 166.937223 
" style="fill:none;stroke:#c32e31;stroke-linecap:square;stroke-width:1.5;"/>
   </g>
   <g id="line2d_2">
    <path clip-path="url(#p5aee9659db)" d="M 46.752273 150.977167 
L 50.368038 150.887902 
L 53.983803 150.342733 
L 57.599568 149.4118 
L 61.215334 148.241458 
L 64.831099 147.087931 
L 68.446864 146.292713 
L 72.062629 146.197015 
L 75.678395 147.024884 
L 79.29416 148.790136 
L 82.909925 151.289567 
L 86.52569 154.204284 
L 90.141456 157.256148 
L 93.757221 160.334243 
L 97.372986 163.506867 
L 100.988751 166.915077 
L 104.604517 170.621911 
L 108.220282 174.516704 
L 111.836047 178.344931 
L 115.451812 181.835764 
L 119.067578 184.837877 
L 122.683343 187.372352 
L 126.299108 189.577042 
L 129.914873 191.587994 
L 133.530639 193.430183 
L 137.146404 194.970293 
L 140.762169 195.935997 
L 144.377934 195.989888 
L 147.9937 194.83009 
L 151.609465 192.286944 
L 155.22523 188.383587 
L 158.840995 183.339737 
L 162.456761 177.52801 
L 166.072526 171.408855 
L 169.688291 165.46748 
L 173.304056 160.155019 
L 176.919822 155.82281 
L 180.535587 152.653788 
L 184.151352 150.614529 
L 187.767117 149.45666 
L 191.382883 148.774666 
L 194.998648 148.097111 
L 198.614413 146.981585 
L 202.230178 145.095084 
L 205.845944 142.278115 
L 209.461709 138.587088 
L 213.077474 134.29565 
L 216.693239 129.835539 
L 220.309005 125.682299 
L 223.92477 122.233298 
L 227.540535 119.73386 
L 231.1563 118.280596 
L 234.772066 117.874233 
L 238.387831 118.475344 
L 242.003596 120.033107 
L 245.619361 122.492778 
L 249.235127 125.801284 
L 252.850892 129.923802 
L 256.466657 134.855099 
L 260.082422 140.611855 
L 263.698188 147.197626 
L 267.313953 154.561711 
L 270.929718 162.57588 
L 274.545483 171.044771 
L 278.161249 179.735813 
L 281.777014 188.397854 
L 285.392779 196.751788 
L 289.008544 204.452756 
L 292.62431 211.057797 
L 296.240075 216.037585 
L 299.85584 218.852796 
L 303.471605 219.08325 
L 307.087371 216.559835 
L 310.703136 211.448822 
L 314.318901 204.251498 
L 317.934666 195.724626 
L 321.550432 186.749509 
L 325.166197 178.196014 
L 328.781962 170.816784 
L 332.397727 165.182808 
" style="fill:none;stroke:#d0473d;stroke-linecap:square;stroke-width:1.5;"/>
   </g>
   <g id="line2d_3">
    <path clip-path="url(#p5aee9659db)" d="M 46.752273 148.433638 
L 50.368038 148.39636 
L 53.983803 148.004169 
L 57.599568 147.283417 
L 61.215334 146.332502 
L 64.831099 145.346526 
L 68.446864 144.600357 
L 72.062629 144.383969 
L 75.678395 144.909018 
L 79.29416 146.227666 
L 82.909925 148.213884 
L 86.52569 150.630169 
L 90.141456 153.245928 
L 93.757221 155.944015 
L 97.372986 158.746394 
L 100.988751 161.746077 
L 104.604517 164.994107 
L 108.220282 168.416768 
L 111.836047 171.823574 
L 115.451812 174.995235 
L 119.067578 177.789608 
L 122.683343 180.193977 
L 126.299108 182.295635 
L 129.914873 184.197088 
L 133.530639 185.928361 
L 137.146404 187.399873 
L 140.762169 188.406123 
L 144.377934 188.67555 
L 147.9937 187.947811 
L 151.609465 186.054326 
L 155.22523 182.975531 
L 158.840995 178.855098 
L 162.456761 173.974413 
L 166.072526 168.704933 
L 169.688291 163.456781 
L 173.304056 158.627725 
L 176.919822 154.545857 
L 180.535587 151.40928 
L 184.151352 149.240454 
L 187.767117 147.878306 
L 191.382883 147.016208 
L 194.998648 146.271131 
L 198.614413 145.261581 
L 202.230178 143.678498 
L 205.845944 141.345029 
L 209.461709 138.259379 
L 213.077474 134.605104 
L 216.693239 130.712359 
L 220.309005 126.971674 
L 223.92477 123.734305 
L 227.540535 121.243367 
L 231.1563 119.622703 
L 234.772066 118.908544 
L 238.387831 119.090512 
L 242.003596 120.137226 
L 245.619361 122.006777 
L 249.235127 124.654394 
L 252.850892 128.047179 
L 256.466657 132.174781 
L 260.082422 137.045792 
L 263.698188 142.662276 
L 267.313953 148.987095 
L 270.929718 155.922386 
L 274.545483 163.313082 
L 278.161249 170.967366 
L 281.777014 178.671641 
L 285.392779 186.185781 
L 289.008544 193.215839 
L 292.62431 199.387885 
L 296.240075 204.253143 
L 299.85584 207.343117 
L 303.471605 208.269823 
L 307.087371 206.835241 
L 310.703136 203.109985 
L 314.318901 197.448279 
L 317.934666 190.437778 
L 321.550432 182.801603 
L 325.166197 175.287349 
L 328.781962 168.572852 
L 332.397727 163.201638 
" style="fill:none;stroke:#dc5d4a;stroke-linecap:square;stroke-width:1.5;"/>
   </g>
   <g id="line2d_4">
    <path clip-path="url(#p5aee9659db)" d="M 46.752273 145.80962 
L 50.368038 145.828319 
L 53.983803 145.615693 
L 57.599568 145.150287 
L 61.215334 144.474333 
L 64.831099 143.708564 
L 68.446864 143.044498 
L 72.062629 142.704991 
L 75.678395 142.879942 
L 79.29416 143.661296 
L 82.909925 145.012339 
L 86.52569 146.794313 
L 90.141456 148.838617 
L 93.757221 151.027012 
L 97.372986 153.3305 
L 100.988751 155.78536 
L 104.604517 158.425785 
L 108.220282 161.219093 
L 111.836047 164.050347 
L 115.451812 166.764265 
L 119.067578 169.234298 
L 122.683343 171.411533 
L 126.299108 173.324377 
L 129.914873 175.033803 
L 133.530639 176.572823 
L 137.146404 177.901905 
L 140.762169 178.895767 
L 144.377934 179.365232 
L 147.9937 179.105767 
L 151.609465 177.957186 
L 155.22523 175.854686 
L 158.840995 172.853872 
L 162.456761 169.126016 
L 166.072526 164.931536 
L 169.688291 160.58365 
L 173.304056 156.407959 
L 176.919822 152.696467 
L 180.535587 149.658341 
L 184.151352 147.378338 
L 187.767117 145.79886 
L 191.382883 144.734764 
L 194.998648 143.915534 
L 198.614413 143.041481 
L 202.230178 141.841389 
L 205.845944 140.125351 
L 209.461709 137.826748 
L 213.077474 135.022152 
L 216.693239 131.916546 
L 220.309005 128.791148 
L 223.92477 125.932282 
L 227.540535 123.570826 
L 231.1563 121.856104 
L 234.772066 120.86298 
L 238.387831 120.614874 
L 242.003596 121.10429 
L 245.619361 122.305809 
L 249.235127 124.185741 
L 252.850892 126.714244 
L 256.466657 129.875176 
L 260.082422 133.666969 
L 263.698188 138.088666 
L 267.313953 143.117754 
L 270.929718 148.691573 
L 274.545483 154.703372 
L 278.161249 161.011671 
L 281.777014 167.45058 
L 285.392779 173.830002 
L 289.008544 179.920739 
L 292.62431 185.436175 
L 296.240075 190.03018 
L 299.85584 193.327462 
L 303.471605 194.988536 
L 307.087371 194.790562 
L 310.703136 192.69664 
L 314.318901 188.886936 
L 317.934666 183.742391 
L 321.550432 177.786721 
L 325.166197 171.607341 
L 328.781962 165.77754 
L 332.397727 160.794288 
" style="fill:none;stroke:#e57058;stroke-linecap:square;stroke-width:1.5;"/>
   </g>
   <g id="line2d_5">
    <path clip-path="url(#p5aee9659db)" d="M 46.752273 143.134783 
L 50.368038 143.222379 
L 53.983803 143.247397 
L 57.599568 143.128795 
L 61.215334 142.835223 
L 64.831099 142.387286 
L 68.446864 141.861881 
L 72.062629 141.386402 
L 75.678395 141.114245 
L 79.29416 141.183311 
L 82.909925 141.671455 
L 86.52569 142.570867 
L 90.141456 143.798146 
L 93.757221 145.237278 
L 97.372986 146.793611 
L 100.988751 148.42736 
L 104.604517 150.147912 
L 108.220282 151.975293 
L 111.836047 153.895911 
L 115.451812 155.843764 
L 119.067578 157.718949 
L 122.683343 159.4297 
L 126.299108 160.929043 
L 129.914873 162.223169 
L 133.530639 163.3486 
L 137.146404 164.333039 
L 140.762169 165.161181 
L 144.377934 165.759752 
L 147.9937 166.007131 
L 151.609465 165.763685 
L 155.22523 164.912592 
L 158.840995 163.397522 
L 162.456761 161.244622 
L 166.072526 158.563987 
L 169.688291 155.533958 
L 173.304056 152.375695 
L 176.919822 149.323286 
L 180.535587 146.590582 
L 184.151352 144.33657 
L 187.767117 142.635642 
L 191.382883 141.462488 
L 194.998648 140.698387 
L 198.614413 140.15755 
L 202.230178 139.625746 
L 205.845944 138.902313 
L 209.461709 137.839389 
L 213.077474 136.373186 
L 216.693239 134.540198 
L 220.309005 132.470444 
L 223.92477 130.355479 
L 227.540535 128.400959 
L 231.1563 126.782175 
L 234.772066 125.619379 
L 238.387831 124.976409 
L 242.003596 124.873951 
L 245.619361 125.305373 
L 249.235127 126.248775 
L 252.850892 127.675793 
L 256.466657 129.560032 
L 260.082422 131.883833 
L 263.698188 134.639528 
L 267.313953 137.821796 
L 270.929718 141.413676 
L 274.545483 145.373325 
L 278.161249 149.628854 
L 281.777014 154.082157 
L 285.392779 158.615497 
L 289.008544 163.093163 
L 292.62431 167.354226 
L 296.240075 171.201657 
L 299.85584 174.399814 
L 303.471605 176.691724 
L 307.087371 177.839536 
L 310.703136 177.678513 
L 314.318901 176.166882 
L 317.934666 173.413127 
L 321.550432 169.67107 
L 325.166197 165.304482 
L 328.781962 160.733111 
L 332.397727 156.375696 
" style="fill:none;stroke:#ee8468;stroke-linecap:square;stroke-width:1.5;"/>
   </g>
   <g id="line2d_6">
    <path clip-path="url(#p5aee9659db)" d="M 46.752273 140.310665 
L 50.368038 140.467497 
L 53.983803 140.753992 
L 57.599568 141.028172 
L 61.215334 141.178344 
L 64.831099 141.112199 
L 68.446864 140.774339 
L 72.062629 140.178073 
L 75.678395 139.426565 
L 79.29416 138.700075 
L 82.909925 138.1989 
L 86.52569 138.061381 
L 90.141456 138.304168 
L 93.757221 138.820927 
L 97.372986 139.449531 
L 100.988751 140.067458 
L 104.604517 140.655355 
L 108.220282 141.290602 
L 111.836047 142.073962 
L 115.451812 143.044342 
L 119.067578 144.13944 
L 122.683343 145.226956 
L 126.299108 146.179807 
L 129.914873 146.943243 
L 133.530639 147.555664 
L 137.146404 148.118243 
L 140.762169 148.739548 
L 144.377934 149.480403 
L 147.9937 150.319457 
L 151.609465 151.148776 
L 155.22523 151.800801 
L 158.840995 152.097741 
L 162.456761 151.902055 
L 166.072526 151.14913 
L 169.688291 149.855523 
L 173.304056 148.111738 
L 176.919822 146.071865 
L 180.535587 143.940164 
L 184.151352 141.946321 
L 187.767117 140.304579 
L 191.382883 139.166526 
L 194.998648 138.587255 
L 198.614413 138.51701 
L 202.230178 138.816443 
L 205.845944 139.284181 
L 209.461709 139.690707 
L 213.077474 139.820355 
L 216.693239 139.520781 
L 220.309005 138.746889 
L 223.92477 137.574209 
L 227.540535 136.168849 
L 231.1563 134.725352 
L 234.772066 133.407912 
L 238.387831 132.321806 
L 242.003596 131.517607 
L 245.619361 131.009362 
L 249.235127 130.788951 
L 252.850892 130.830938 
L 256.466657 131.099138 
L 260.082422 131.559489 
L 263.698188 132.198168 
L 267.313953 133.030468 
L 270.929718 134.092826 
L 274.545483 135.420069 
L 278.161249 137.02428 
L 281.777014 138.890998 
L 285.392779 140.992322 
L 289.008544 143.306834 
L 292.62431 145.825192 
L 296.240075 148.530311 
L 299.85584 151.358571 
L 303.471605 154.162962 
L 307.087371 156.70592 
L 310.703136 158.692686 
L 314.318901 159.838688 
L 317.934666 159.943485 
L 321.550432 158.945191 
L 325.166197 156.935863 
L 328.781962 154.137389 
L 332.397727 150.853682 
" style="fill:none;stroke:#f39577;stroke-linecap:square;stroke-width:1.5;"/>
   </g>
   <g id="line2d_7">
    <path clip-path="url(#p5aee9659db)" d="M 46.752273 137.852248 
L 50.368038 138.064992 
L 53.983803 138.58522 
L 57.599568 139.220697 
L 61.215334 139.788052 
L 64.831099 140.090797 
L 68.446864 139.948806 
L 72.062629 139.264521 
L 75.678395 138.086913 
L 79.29416 136.627267 
L 82.909925 135.19357 
L 86.52569 134.059008 
L 90.141456 133.33823 
L 93.757221 132.942983 
L 97.372986 132.657607 
L 100.988751 132.288223 
L 104.604517 131.789503 
L 108.220282 131.289932 
L 111.836047 130.99517 
L 115.451812 131.043772 
L 119.067578 131.414044 
L 122.683343 131.942429 
L 126.299108 132.431189 
L 129.914873 132.768268 
L 133.530639 132.98935 
L 137.146404 133.258151 
L 140.762169 133.793995 
L 144.377934 134.781071 
L 147.9937 136.293318 
L 151.609465 138.256604 
L 155.22523 140.460583 
L 158.840995 142.616621 
L 162.456761 144.433011 
L 166.072526 145.676297 
L 169.688291 146.202629 
L 173.304056 145.968838 
L 176.919822 145.041673 
L 180.535587 143.604187 
L 184.151352 141.941879 
L 187.767117 140.393368 
L 191.382883 139.274748 
L 194.998648 138.808666 
L 198.614413 139.082561 
L 202.230178 140.040088 
L 205.845944 141.492964 
L 209.461709 143.147722 
L 213.077474 144.655655 
L 216.693239 145.691617 
L 220.309005 146.044426 
L 223.92477 145.673528 
L 227.540535 144.697868 
L 231.1563 143.320635 
L 234.772066 141.741066 
L 238.387831 140.10111 
L 242.003596 138.480356 
L 245.619361 136.915253 
L 249.235127 135.414828 
L 252.850892 133.961546 
L 256.466657 132.515635 
L 260.082422 131.033016 
L 263.698188 129.498409 
L 267.313953 127.949554 
L 270.929718 126.475442 
L 274.545483 125.185675 
L 278.161249 124.175031 
L 281.777014 123.512252 
L 285.392779 123.258398 
L 289.008544 123.502917 
L 292.62431 124.381231 
L 296.240075 126.047452 
L 299.85584 128.602953 
L 303.471605 132.009498 
L 307.087371 136.036584 
L 310.703136 140.273058 
L 314.318901 144.207634 
L 317.934666 147.344077 
L 321.550432 149.310387 
L 325.166197 149.923108 
L 328.781962 149.194175 
L 332.397727 147.29524 
" style="fill:none;stroke:#f6a586;stroke-linecap:square;stroke-width:1.5;"/>
   </g>
   <g id="line2d_8">
    <path clip-path="url(#p5aee9659db)" d="M 46.752273 136.059858 
L 50.368038 136.317173 
L 53.983803 137.035353 
L 57.599568 137.981543 
L 61.215334 138.912205 
L 64.831099 139.541888 
L 68.446864 139.58255 
L 72.062629 138.838917 
L 75.678395 137.30934 
L 79.29416 135.226976 
L 82.909925 132.988219 
L 86.52569 130.980041 
L 90.141456 129.401769 
L 93.757221 128.183206 
L 97.372986 127.065838 
L 100.988751 125.796956 
L 104.604517 124.310209 
L 108.220282 122.778695 
L 111.836047 121.499423 
L 115.451812 120.699085 
L 119.067578 120.394464 
L 122.683343 120.398781 
L 126.299108 120.456059 
L 129.914873 120.405696 
L 133.530639 120.280308 
L 137.146404 120.296021 
L 140.762169 120.766475 
L 144.377934 121.982201 
L 147.9937 124.100781 
L 151.609465 127.079922 
L 155.22523 130.675521 
L 158.840995 134.505826 
L 162.456761 138.146979 
L 166.072526 141.21845 
L 169.688291 143.43418 
L 173.304056 144.629714 
L 176.919822 144.788816 
L 180.535587 144.067722 
L 184.151352 142.791815 
L 187.767117 141.400341 
L 191.382883 140.347492 
L 194.998648 140.00019 
L 198.614413 140.567478 
L 202.230178 142.070733 
L 205.845944 144.340886 
L 209.461709 147.037684 
L 213.077474 149.705031 
L 216.693239 151.873648 
L 220.309005 153.190611 
L 223.92477 153.513293 
L 227.540535 152.915435 
L 231.1563 151.602006 
L 234.772066 149.796934 
L 238.387831 147.669191 
L 242.003596 145.31998 
L 245.619361 142.802948 
L 249.235127 140.14109 
L 252.850892 137.324111 
L 256.466657 134.310582 
L 260.082422 131.049767 
L 263.698188 127.5272 
L 267.313953 123.801936 
L 270.929718 120.01024 
L 274.545483 116.32847 
L 278.161249 112.925557 
L 281.777014 109.945384 
L 285.392779 107.529416 
L 289.008544 105.866572 
L 292.62431 105.22118 
L 296.240075 105.899808 
L 299.85584 108.152022 
L 303.471605 112.040478 
L 307.087371 117.348332 
L 310.703136 123.570687 
L 314.318901 130.004718 
L 317.934666 135.898867 
L 321.550432 140.608441 
L 325.166197 143.702289 
L 328.781962 144.997346 
L 332.397727 144.535029 
" style="fill:none;stroke:#f7b396;stroke-linecap:square;stroke-width:1.5;"/>
   </g>
   <g id="line2d_9">
    <path clip-path="url(#p5aee9659db)" d="M 46.752273 134.614605 
L 50.368038 134.903981 
L 53.983803 135.782663 
L 57.599568 136.988128 
L 61.215334 138.229373 
L 64.831099 139.148051 
L 68.446864 139.365248 
L 72.062629 138.600451 
L 75.678395 136.803314 
L 79.29416 134.217314 
L 82.909925 131.305473 
L 86.52569 128.545587 
L 90.141456 126.207617 
L 93.757221 124.239741 
L 97.372986 122.352242 
L 100.988751 120.246825 
L 104.604517 117.841139 
L 108.220282 115.345797 
L 111.836047 113.134903 
L 115.451812 111.511558 
L 119.067578 110.529533 
L 122.683343 109.988092 
L 126.299108 109.586708 
L 129.914873 109.125924 
L 133.530639 108.635205 
L 137.146404 108.373029 
L 140.762169 108.73113 
L 144.377934 110.090261 
L 147.9937 112.68183 
L 151.609465 116.496229 
L 155.22523 121.268027 
L 158.840995 126.543494 
L 162.456761 131.791479 
L 166.072526 136.507902 
L 169.688291 140.283195 
L 173.304056 142.843204 
L 176.919822 144.09113 
L 180.535587 144.14802 
L 184.151352 143.360029 
L 187.767117 142.24031 
L 191.382883 141.352524 
L 194.998648 141.183513 
L 198.614413 142.048515 
L 202.230178 144.042604 
L 205.845944 147.023982 
L 209.461709 150.624902 
L 213.077474 154.309222 
L 216.693239 157.492897 
L 220.309005 159.704934 
L 223.92477 160.712521 
L 227.540535 160.54298 
L 231.1563 159.392573 
L 234.772066 157.496189 
L 238.387831 155.037401 
L 242.003596 152.129597 
L 245.619361 148.836992 
L 249.235127 145.192421 
L 252.850892 141.191549 
L 256.466657 136.792703 
L 260.082422 131.941272 
L 263.698188 126.625062 
L 267.313953 120.922205 
L 270.929718 115.009718 
L 274.545483 109.121619 
L 278.161249 103.491725 
L 281.777014 98.330789 
L 285.392779 93.852564 
L 289.008544 90.334966 
L 292.62431 88.157089 
L 296.240075 87.761646 
L 299.85584 89.533222 
L 303.471605 93.632384 
L 307.087371 99.868536 
L 310.703136 107.672251 
L 314.318901 116.19051 
L 317.934666 124.46186 
L 321.550432 131.609358 
L 325.166197 136.982733 
L 328.781962 140.21757 
L 332.397727 141.224114 
" style="fill:none;stroke:#f5c0a7;stroke-linecap:square;stroke-width:1.5;"/>
   </g>
   <g id="line2d_10">
    <path clip-path="url(#p5aee9659db)" d="M 46.752273 133.383573 
L 50.368038 133.691097 
L 53.983803 134.672958 
L 57.599568 136.048744 
L 61.215334 137.497525 
L 64.831099 138.614344 
L 68.446864 138.961156 
L 72.062629 138.200451 
L 75.678395 136.246941 
L 79.29416 133.346328 
L 82.909925 130.000303 
L 86.52569 126.742012 
L 90.141456 123.885269 
L 93.757221 121.389827 
L 97.372986 118.946513 
L 100.988751 116.228854 
L 104.604517 113.14583 
L 108.220282 109.934447 
L 111.836047 107.021337 
L 115.451812 104.762119 
L 119.067578 103.237581 
L 122.683343 102.240587 
L 126.299108 101.443732 
L 129.914873 100.623674 
L 133.530639 99.808794 
L 137.146404 99.285928 
L 140.762169 99.498729 
L 144.377934 100.888411 
L 147.9937 103.737141 
L 151.609465 108.060266 
L 155.22523 113.582797 
L 158.840995 119.808388 
L 162.456761 126.139304 
L 166.072526 131.992455 
L 169.688291 136.87678 
L 173.304056 140.442781 
L 176.919822 142.534562 
L 180.535587 143.241598 
L 184.151352 142.914144 
L 187.767117 142.104802 
L 191.382883 141.442061 
L 194.998648 141.487636 
L 198.614413 142.626343 
L 202.230178 145.0051 
L 205.845944 148.506355 
L 209.461709 152.752255 
L 213.077474 157.162003 
L 216.693239 161.082326 
L 220.309005 163.967679 
L 223.92477 165.525252 
L 227.540535 165.747666 
L 231.1563 164.818867 
L 234.772066 162.973117 
L 238.387831 160.395764 
L 242.003596 157.20134 
L 245.619361 153.45579 
L 249.235127 149.195184 
L 252.850892 144.417832 
L 256.466657 139.082127 
L 260.082422 133.131996 
L 263.698188 126.558008 
L 267.313953 119.451937 
L 270.929718 112.018518 
L 274.545483 104.530595 
L 278.161249 97.265973 
L 281.777014 90.481273 
L 285.392779 84.440397 
L 289.008544 79.483411 
L 292.62431 76.06967 
L 296.240075 74.73778 
L 299.85584 75.969428 
L 303.471605 79.999719 
L 307.087371 86.666788 
L 310.703136 95.37035 
L 314.318901 105.168729 
L 317.934666 114.969333 
L 321.550432 123.744778 
L 325.166197 130.697592 
L 328.781962 135.335631 
L 332.397727 137.469855 
" style="fill:none;stroke:#f2cbb7;stroke-linecap:square;stroke-width:1.5;"/>
   </g>
   <g id="line2d_11">
    <path clip-path="url(#p5aee9659db)" d="M 46.752273 132.603853 
L 50.368038 132.917254 
L 53.983803 133.965084 
L 57.599568 135.45909 
L 61.215334 137.060077 
L 64.831099 138.331965 
L 68.446864 138.794826 
L 72.062629 138.067729 
L 75.678395 136.034274 
L 79.29416 132.933276 
L 82.909925 129.28576 
L 86.52569 125.659174 
L 90.141456 122.398045 
L 93.757221 119.473855 
L 97.372986 116.568517 
L 100.988751 113.339056 
L 104.604517 109.689059 
L 108.220282 105.873041 
L 111.836047 102.354053 
L 115.451812 99.526449 
L 119.067578 97.494259 
L 122.683343 96.051006 
L 126.299108 94.854318 
L 129.914873 93.665634 
L 133.530639 92.512027 
L 137.146404 91.699062 
L 140.762169 91.706699 
L 144.377934 93.020825 
L 147.9937 95.964349 
L 151.609465 100.577647 
L 155.22523 106.587524 
L 158.840995 113.475269 
L 162.456761 120.601167 
L 166.072526 127.327531 
L 169.688291 133.102727 
L 173.304056 137.517109 
L 176.919822 140.362892 
L 180.535587 141.695095 
L 184.151352 141.85451 
L 187.767117 141.411308 
L 191.382883 141.033527 
L 194.998648 141.334664 
L 198.614413 142.75262 
L 202.230178 145.478807 
L 205.845944 149.422921 
L 209.461709 154.210331 
L 213.077474 159.237045 
L 216.693239 163.80514 
L 220.309005 167.315172 
L 223.92477 169.425495 
L 227.540535 170.094272 
L 231.1563 169.485808 
L 234.772066 167.824272 
L 238.387831 165.288893 
L 242.003596 161.990082 
L 245.619361 157.992193 
L 249.235127 153.332539 
L 252.850892 148.011644 
L 256.466657 141.988989 
L 260.082422 135.208364 
L 263.698188 127.662357 
L 267.313953 119.45152 
L 270.929718 110.798932 
L 274.545483 102.00427 
L 278.161249 93.377148 
L 281.777014 85.208891 
L 285.392779 77.802483 
L 289.008544 71.546627 
L 292.62431 66.963526 
L 296.240075 64.667902 
L 299.85584 65.22138 
L 303.471605 68.92634 
L 307.087371 75.658009 
L 310.703136 84.810861 
L 314.318901 95.393905 
L 317.934666 106.229202 
L 321.550432 116.182689 
L 325.166197 124.344795 
L 328.781962 130.118609 
L 332.397727 133.22624 
" style="fill:none;stroke:#ebd3c6;stroke-linecap:square;stroke-width:1.5;"/>
   </g>
   <g id="line2d_12">
    <path clip-path="url(#p5aee9659db)" d="M 46.752273 132.850392 
L 50.368038 133.164741 
L 53.983803 134.270023 
L 57.599568 135.87379 
L 61.215334 137.621814 
L 64.831099 139.050354 
L 68.446864 139.640407 
L 72.062629 138.968336 
L 75.678395 136.884186 
L 79.29416 133.614343 
L 82.909925 129.692088 
L 86.52569 125.713085 
L 90.141456 122.049599 
L 93.757221 118.685495 
L 97.372986 115.296539 
L 100.988751 111.525561 
L 104.604517 107.27058 
L 108.220282 102.800858 
L 111.836047 98.612268 
L 115.451812 95.135873 
L 119.067578 92.499995 
L 122.683343 90.502414 
L 126.299108 88.790228 
L 129.914873 87.112906 
L 133.530639 85.497351 
L 137.146404 84.267276 
L 140.762169 83.937832 
L 144.377934 85.039513 
L 147.9937 87.938122 
L 151.609465 92.7041 
L 155.22523 99.073514 
L 158.840995 106.513843 
L 162.456761 114.351449 
L 166.072526 121.900169 
L 169.688291 128.551246 
L 173.304056 133.835306 
L 176.919822 137.489983 
L 180.535587 139.530224 
L 184.151352 140.279541 
L 187.767117 140.316962 
L 191.382883 140.342139 
L 194.998648 141.014589 
L 198.614413 142.822451 
L 202.230178 146.001788 
L 205.845944 150.492356 
L 209.461709 155.927488 
L 213.077474 161.685502 
L 216.693239 167.028425 
L 220.309005 171.305102 
L 223.92477 174.123892 
L 227.540535 175.404447 
L 231.1563 175.286028 
L 234.772066 173.977356 
L 238.387831 171.647204 
L 242.003596 168.398519 
L 245.619361 164.291428 
L 249.235127 159.362217 
L 252.850892 153.611558 
L 256.466657 146.997991 
L 260.082422 139.462869 
L 263.698188 130.997799 
L 267.313953 121.708309 
L 270.929718 111.831639 
L 274.545483 101.690516 
L 278.161249 91.623754 
L 281.777014 81.956229 
L 285.392779 73.03008 
L 289.008544 65.283459 
L 292.62431 59.302803 
L 296.240075 55.781504 
L 299.85584 55.366095 
L 303.471605 58.43478 
L 307.087371 64.912359 
L 310.703136 74.203809 
L 314.318901 85.28564 
L 317.934666 96.909996 
L 321.550432 107.84779 
L 325.166197 117.08376 
L 328.781962 123.917195 
L 332.397727 127.977493 
" style="fill:none;stroke:#e2dad5;stroke-linecap:square;stroke-width:1.5;"/>
   </g>
   <g id="line2d_13">
    <path clip-path="url(#p5aee9659db)" d="M 46.752273 133.514555 
L 50.368038 133.823431 
L 53.983803 134.967752 
L 57.599568 136.654725 
L 61.215334 138.519458 
L 64.831099 140.077703 
L 68.446864 140.780594 
L 72.062629 140.170274 
L 75.678395 138.067617 
L 79.29416 134.684761 
L 82.909925 130.559884 
L 86.52569 126.307541 
L 90.141456 122.320808 
L 93.757221 118.594174 
L 97.372986 114.799802 
L 100.988751 110.569333 
L 104.604517 105.794673 
L 108.220282 100.754044 
L 111.836047 95.967281 
L 115.451812 91.894515 
L 119.067578 88.685383 
L 122.683343 86.144111 
L 126.299108 83.912037 
L 129.914873 81.730531 
L 133.530639 79.626577 
L 137.146404 77.938164 
L 140.762169 77.208735 
L 144.377934 78.005697 
L 147.9937 80.732163 
L 151.609465 85.487351 
L 155.22523 92.020731 
L 158.840995 99.795158 
L 162.456761 108.115624 
L 166.072526 116.261584 
L 169.688291 123.581215 
L 173.304056 129.557977 
L 176.919822 133.884216 
L 180.535587 136.539021 
L 184.151352 137.826648 
L 187.767117 138.327234 
L 191.382883 138.760417 
L 194.998648 139.818781 
L 198.614413 142.028808 
L 202.230178 145.662337 
L 205.845944 150.684899 
L 209.461709 156.739203 
L 213.077474 163.19284 
L 216.693239 169.278513 
L 220.309005 174.304536 
L 223.92477 177.837937 
L 227.540535 179.764538 
L 231.1563 180.199881 
L 234.772066 179.336879 
L 238.387831 177.332821 
L 242.003596 174.281758 
L 245.619361 170.23746 
L 249.235127 165.232392 
L 252.850892 159.264581 
L 256.466657 152.289184 
L 260.082422 144.242807 
L 263.698188 135.113007 
L 267.313953 125.005603 
L 270.929718 114.165456 
L 274.545483 102.93067 
L 278.161249 91.661469 
L 281.777014 80.708639 
L 285.392779 70.445496 
L 289.008544 61.350096 
L 292.62431 54.061303 
L 296.240075 49.337852 
L 299.85584 47.898922 
L 303.471605 50.191155 
L 307.087371 56.189845 
L 310.703136 65.321036 
L 314.318901 76.548268 
L 317.934666 88.57928 
L 321.550432 100.117667 
L 325.166197 110.068723 
L 328.781962 117.650159 
L 332.397727 122.415332 
" style="fill:none;stroke:#d7dce3;stroke-linecap:square;stroke-width:1.5;"/>
   </g>
   <g id="line2d_14">
    <path clip-path="url(#p5aee9659db)" d="M 46.752273 134.003375 
L 50.368038 134.302873 
L 53.983803 135.469825 
L 57.599568 137.213468 
L 61.215334 139.162636 
L 64.831099 140.820437 
L 68.446864 141.61839 
L 72.062629 141.074046 
L 75.678395 138.984595 
L 79.29416 135.546732 
L 82.909925 131.295928 
L 86.52569 126.854987 
L 90.141456 122.628908 
L 93.757221 118.619287 
L 97.372986 114.496603 
L 100.988751 109.885296 
L 104.604517 104.672654 
L 108.220282 99.14209 
L 111.836047 93.829457 
L 115.451812 89.215714 
L 119.067578 85.46732 
L 122.683343 82.39588 
L 126.299108 79.641638 
L 129.914873 76.94251 
L 133.530639 74.327101 
L 137.146404 72.144515 
L 140.762169 70.959268 
L 144.377934 71.366866 
L 147.9937 73.800345 
L 151.609465 78.384801 
L 155.22523 84.886398 
L 158.840995 92.772534 
L 162.456761 101.340267 
L 166.072526 109.850076 
L 169.688291 117.622329 
L 173.304056 124.106637 
L 176.919822 128.959612 
L 180.535587 132.128511 
L 184.151352 133.895804 
L 187.767117 134.834061 
L 191.382883 135.670065 
L 194.998648 137.115256 
L 198.614413 139.721693 
L 202.230178 143.7879 
L 205.845944 149.301536 
L 209.461709 155.917414 
L 213.077474 163.001251 
L 216.693239 169.769346 
L 220.309005 175.502976 
L 223.92477 179.738298 
L 227.540535 182.332825 
L 231.1563 183.379366 
L 234.772066 183.053115 
L 238.387831 181.496901 
L 242.003596 178.79266 
L 245.619361 174.984563 
L 249.235127 170.098225 
L 252.850892 164.126399 
L 256.466657 157.018918 
L 260.082422 148.706073 
L 263.698188 139.169232 
L 267.313953 128.510728 
L 270.929718 116.977179 
L 274.545483 104.914598 
L 278.161249 92.696493 
L 281.777014 80.691423 
L 285.392779 69.295424 
L 289.008544 59.016634 
L 292.62431 50.534331 
L 296.240075 44.658821 
L 299.85584 42.168925 
L 303.471605 43.571041 
L 307.087371 48.890344 
L 310.703136 57.583713 
L 314.318901 68.621138 
L 317.934666 80.692411 
L 321.550432 92.46282 
L 325.166197 102.785646 
L 328.781962 110.819614 
L 332.397727 116.058085 
" style="fill:none;stroke:#ccd9ed;stroke-linecap:square;stroke-width:1.5;"/>
   </g>
   <g id="line2d_15">
    <path clip-path="url(#p5aee9659db)" d="M 46.752273 134.405052 
L 50.368038 134.692566 
L 53.983803 135.866162 
L 57.599568 137.638855 
L 61.215334 139.637955 
L 64.831099 141.36249 
L 68.446864 142.23529 
L 72.062629 141.7595 
L 75.678395 139.714402 
L 79.29416 136.280092 
L 82.909925 131.981433 
L 86.52569 127.438356 
L 90.141456 123.058528 
L 93.757221 118.847287 
L 97.372986 114.476264 
L 100.988751 109.568126 
L 104.604517 104.008386 
L 108.220282 98.082534 
L 111.836047 92.334069 
L 115.451812 87.255404 
L 119.067578 83.024212 
L 122.683343 79.45976 
L 126.299108 76.20584 
L 129.914873 73.002146 
L 133.530639 69.880567 
L 137.146404 67.197667 
L 140.762169 65.53064 
L 144.377934 65.492614 
L 147.9937 67.537671 
L 151.609465 71.81276 
L 155.22523 78.103362 
L 158.840995 85.890489 
L 162.456761 94.476705 
L 166.072526 103.118909 
L 169.688291 111.124702 
L 173.304056 117.922799 
L 176.919822 123.143323 
L 180.535587 126.705625 
L 184.151352 128.868021 
L 187.767117 130.18722 
L 191.382883 131.384836 
L 194.998648 133.177634 
L 198.614413 136.131336 
L 202.230178 140.563123 
L 205.845944 146.480223 
L 209.461709 153.553327 
L 213.077474 161.156011 
L 216.693239 168.501755 
L 220.309005 174.858689 
L 223.92477 179.74271 
L 227.540535 182.988319 
L 231.1563 184.665983 
L 234.772066 184.930756 
L 238.387831 183.907892 
L 242.003596 181.664469 
L 245.619361 178.232943 
L 249.235127 173.630302 
L 252.850892 167.842781 
L 256.466657 160.814133 
L 260.082422 152.467815 
L 263.698188 142.777736 
L 267.313953 131.839647 
L 270.929718 119.896451 
L 274.545483 107.294664 
L 278.161249 94.412783 
L 281.777014 81.628618 
L 285.392779 69.35205 
L 289.008544 58.110968 
L 292.62431 48.61219 
L 296.240075 41.702639 
L 299.85584 38.205729 
L 303.471605 38.67674 
L 307.087371 43.187823 
L 310.703136 51.234279 
L 314.318901 61.81047 
L 317.934666 73.613288 
L 321.550432 85.297687 
L 325.166197 95.691118 
L 328.781962 103.914723 
L 332.397727 109.416821 
" style="fill:none;stroke:#c0d4f5;stroke-linecap:square;stroke-width:1.5;"/>
   </g>
   <g id="line2d_16">
    <path clip-path="url(#p5aee9659db)" d="M 46.752273 135.211627 
L 50.368038 135.482699 
L 53.983803 136.658138 
L 57.599568 138.456588 
L 61.215334 140.50369 
L 64.831099 142.294326 
L 68.446864 143.242784 
L 72.062629 142.837706 
L 75.678395 140.839919 
L 79.29416 137.412207 
L 82.909925 133.068664 
L 86.52569 128.427355 
L 90.141456 123.900704 
L 93.757221 119.500095 
L 97.372986 114.899438 
L 100.988751 109.718632 
L 104.604517 103.838483 
L 108.220282 97.54289 
L 111.836047 91.380295 
L 115.451812 85.853716 
L 119.067578 81.152913 
L 122.683343 77.105987 
L 126.299108 73.360567 
L 129.914873 69.6569 
L 133.530639 66.027985 
L 137.146404 62.83556 
L 140.762169 60.667923 
L 144.377934 60.155317 
L 147.9937 61.773366 
L 151.609465 65.691948 
L 155.22523 71.716983 
L 158.840995 79.343769 
L 162.456761 87.88062 
L 166.072526 96.580908 
L 169.688291 104.739962 
L 173.304056 111.766914 
L 176.919822 117.267424 
L 180.535587 121.135365 
L 184.151352 123.607379 
L 187.767117 125.226642 
L 191.382883 126.711693 
L 194.998648 128.786243 
L 198.614413 132.030531 
L 202.230178 136.78033 
L 205.845944 143.061613 
L 209.461709 150.55974 
L 213.077474 158.654859 
L 216.693239 166.556421 
L 220.309005 173.51829 
L 223.92477 179.035363 
L 227.540535 182.919285 
L 231.1563 185.219588 
L 234.772066 186.073777 
L 238.387831 185.592455 
L 242.003596 183.830273 
L 245.619361 180.809272 
L 249.235127 176.537957 
L 252.850892 170.995384 
L 256.466657 164.118097 
L 260.082422 155.821239 
L 263.698188 146.069426 
L 267.313953 134.949812 
L 270.929718 122.699589 
L 274.545483 109.66403 
L 278.161249 96.22513 
L 281.777014 82.768385 
L 285.392779 69.715405 
L 289.008544 57.610862 
L 292.62431 47.18545 
L 296.240075 39.318795 
L 299.85584 34.875504 
L 303.471605 34.457437 
L 307.087371 38.182551 
L 310.703136 45.584285 
L 314.318901 55.681318 
L 317.934666 67.177967 
L 321.550432 78.719505 
L 325.166197 89.109188 
L 328.781962 97.433453 
L 332.397727 103.100039 
" style="fill:none;stroke:#b3cdfb;stroke-linecap:square;stroke-width:1.5;"/>
   </g>
   <g id="line2d_17">
    <path clip-path="url(#p5aee9659db)" d="M 46.752273 136.281216 
L 50.368038 136.532143 
L 53.983803 137.699809 
L 57.599568 139.509787 
L 61.215334 141.587393 
L 64.831099 143.426653 
L 68.446864 144.438135 
L 72.062629 144.100763 
L 75.678395 142.15999 
L 79.29416 138.761633 
L 82.909925 134.406879 
L 86.52569 129.708846 
L 90.141456 125.082598 
L 93.757221 120.545573 
L 97.372986 115.775588 
L 100.988751 110.391191 
L 104.604517 104.267828 
L 108.220282 97.684417 
L 111.836047 91.189399 
L 115.451812 85.292106 
L 119.067578 80.1923 
L 122.683343 75.727319 
L 126.299108 71.550054 
L 129.914873 67.402011 
L 133.530639 63.31596 
L 137.146404 59.655298 
L 140.762169 57.014338 
L 144.377934 56.034881 
L 147.9937 57.209435 
L 151.609465 60.728159 
L 155.22523 66.41734 
L 158.840995 73.788863 
L 162.456761 82.161006 
L 166.072526 90.789164 
L 169.688291 98.962889 
L 173.304056 106.078617 
L 176.919822 111.723983 
L 180.535587 115.772145 
L 184.151352 118.440244 
L 187.767117 120.257245 
L 191.382883 121.935562 
L 194.998648 124.201419 
L 198.614413 127.644744 
L 202.230178 132.615704 
L 205.845944 139.15643 
L 209.461709 146.966855 
L 213.077474 155.436394 
L 216.693239 163.77537 
L 220.309005 171.229133 
L 223.92477 177.276781 
L 227.540535 181.710993 
L 231.1563 184.563236 
L 234.772066 185.955703 
L 238.387831 185.986351 
L 242.003596 184.698917 
L 245.619361 182.105943 
L 249.235127 178.207718 
L 252.850892 172.976116 
L 256.466657 166.340468 
L 260.082422 158.20761 
L 263.698188 148.532509 
L 267.313953 137.392425 
L 270.929718 125.016411 
L 274.545483 111.745134 
L 278.161249 97.960086 
L 281.777014 84.049877 
L 285.392779 70.44235 
L 289.008544 57.691852 
L 292.62431 46.543802 
L 296.240075 37.899794 
L 299.85584 32.654668 
L 303.471605 31.447629 
L 307.087371 34.436856 
L 310.703136 41.193165 
L 314.318901 50.763798 
L 317.934666 61.868552 
L 321.550432 73.153601 
L 325.166197 83.409646 
L 328.781962 91.70009 
L 332.397727 97.402871 
" style="fill:none;stroke:#a5c3fe;stroke-linecap:square;stroke-width:1.5;"/>
   </g>
   <g id="line2d_18">
    <path clip-path="url(#p5aee9659db)" d="M 46.752273 137.36856 
L 50.368038 137.602354 
L 53.983803 138.76442 
L 57.599568 140.582953 
L 61.215334 142.681388 
L 64.831099 144.554291 
L 68.446864 145.61185 
L 72.062629 145.327653 
L 75.678395 143.436399 
L 79.29416 140.07074 
L 82.909925 135.72072 
L 86.52569 130.993501 
L 90.141456 126.303488 
L 93.757221 121.670268 
L 97.372986 116.773105 
L 100.988751 111.229269 
L 104.604517 104.910804 
L 108.220282 98.093649 
L 111.836047 91.326226 
L 115.451812 85.121516 
L 119.067578 79.685112 
L 122.683343 74.859937 
L 126.299108 70.302677 
L 129.914873 65.756914 
L 133.530639 61.256982 
L 137.146404 57.168793 
L 140.762169 54.091426 
L 144.377934 52.674757 
L 147.9937 53.423108 
L 151.609465 56.5418 
L 155.22523 61.873603 
L 158.840995 68.945409 
L 162.456761 77.086588 
L 166.072526 85.558056 
L 169.688291 93.648749 
L 173.304056 100.748387 
L 176.919822 106.432654 
L 180.535587 110.55948 
L 184.151352 113.33056 
L 187.767117 115.262475 
L 191.382883 117.060682 
L 194.998648 119.450649 
L 198.614413 123.027218 
L 202.230178 128.149853 
L 205.845944 134.87261 
L 209.461709 142.907501 
L 213.077474 151.65309 
L 216.693239 160.323091 
L 220.309005 168.159202 
L 223.92477 174.630869 
L 227.540535 179.517739 
L 231.1563 182.837572 
L 234.772066 184.699594 
L 238.387831 185.189827 
L 242.003596 184.341188 
L 245.619361 182.156672 
L 249.235127 178.628542 
L 252.850892 173.721743 
L 256.466657 167.358656 
L 260.082422 159.438257 
L 263.698188 149.906449 
L 267.313953 138.831212 
L 270.929718 126.433524 
L 274.545483 113.048442 
L 278.161249 99.05474 
L 281.777014 84.840974 
L 285.392779 70.837457 
L 289.008544 57.604044 
L 292.62431 45.896065 
L 296.240075 36.630889 
L 299.85584 30.725938 
L 303.471605 28.8489 
L 307.087371 31.189872 
L 310.703136 37.350797 
L 314.318901 46.405214 
L 317.934666 57.090817 
L 321.550432 68.061229 
L 325.166197 78.104014 
L 328.781962 86.26999 
L 332.397727 91.917265 
" style="fill:none;stroke:#97b8ff;stroke-linecap:square;stroke-width:1.5;"/>
   </g>
   <g id="line2d_19">
    <path clip-path="url(#p5aee9659db)" d="M 46.752273 138.465488 
L 50.368038 138.682223 
L 53.983803 139.834711 
L 57.599568 141.652143 
L 61.215334 143.756635 
L 64.831099 145.646397 
L 68.446864 146.735636 
L 72.062629 146.497007 
L 75.678395 144.65781 
L 79.29416 141.338995 
L 82.909925 137.018636 
L 86.52569 132.295456 
L 90.141456 127.580483 
L 93.757221 122.894113 
L 97.372986 117.91773 
L 100.988751 112.269283 
L 104.604517 105.818969 
L 108.220282 98.839225 
L 111.836047 91.875742 
L 115.451812 85.441301 
L 119.067578 79.744233 
L 122.683343 74.631922 
L 126.299108 69.76562 
L 129.914873 64.892297 
L 133.530639 60.048084 
L 137.146404 55.599615 
L 140.762169 52.146759 
L 144.377934 50.342187 
L 147.9937 50.696932 
L 151.609465 53.427497 
L 155.22523 58.391327 
L 158.840995 65.130853 
L 162.456761 72.98907 
L 166.072526 81.236423 
L 169.688291 89.166089 
L 173.304056 96.16634 
L 176.919822 101.805782 
L 180.535587 105.93095 
L 184.151352 108.73004 
L 187.767117 110.7069 
L 191.382883 112.557552 
L 194.998648 115.002773 
L 198.614413 118.637951 
L 202.230178 123.828088 
L 205.845944 130.636826 
L 209.461709 138.787991 
L 213.077474 147.691371 
L 216.693239 156.568218 
L 220.309005 164.661867 
L 223.92477 171.437285 
L 227.540535 176.665134 
L 231.1563 180.352083 
L 234.772066 182.59589 
L 238.387831 183.471744 
L 242.003596 183.002765 
L 245.619361 181.183618 
L 249.235127 177.999662 
L 252.850892 173.410003 
L 256.466657 167.331224 
L 260.082422 159.655636 
L 263.698188 150.321185 
L 267.313953 139.387116 
L 270.929718 127.06592 
L 274.545483 113.685534 
L 278.161249 99.619603 
L 281.777014 85.253495 
L 285.392779 71.016307 
L 289.008544 57.468628 
L 292.62431 45.369391 
L 296.240075 35.643794 
L 299.85584 29.222689 
L 303.471605 26.793436 
L 307.087371 28.571204 
L 310.703136 34.185862 
L 314.318901 42.738126 
L 317.934666 52.9883 
L 321.550432 63.60497 
L 325.166197 73.381077 
L 328.781962 81.363514 
L 332.397727 86.898332 
" style="fill:none;stroke:#89acfd;stroke-linecap:square;stroke-width:1.5;"/>
   </g>
   <g id="line2d_20">
    <path clip-path="url(#p5aee9659db)" d="M 46.752273 139.566578 
L 50.368038 139.766053 
L 53.983803 140.904562 
L 57.599568 142.711089 
L 61.215334 144.807457 
L 64.831099 146.69872 
L 68.446864 147.807125 
L 72.062629 147.60812 
L 75.678395 145.824291 
L 79.29416 142.565829 
L 82.909925 138.297852 
L 86.52569 133.60835 
L 90.141456 128.902819 
L 93.757221 124.201832 
L 97.372986 119.190184 
L 100.988751 113.488698 
L 104.604517 106.967079 
L 108.220282 99.893465 
L 111.836047 92.807901 
L 115.451812 86.219408 
L 119.067578 80.336576 
L 122.683343 75.010878 
L 126.299108 69.90929 
L 129.914873 64.783435 
L 133.530639 59.671128 
L 137.146404 54.937468 
L 140.762169 51.179044 
L 144.377934 49.046377 
L 147.9937 49.052538 
L 151.609465 51.421922 
L 155.22523 56.025217 
L 158.840995 62.42092 
L 162.456761 69.96778 
L 166.072526 77.949046 
L 169.688291 85.666129 
L 173.304056 92.510052 
L 176.919822 98.046387 
L 180.535587 102.113318 
L 184.151352 104.886911 
L 187.767117 106.857633 
L 191.382883 108.709599 
L 194.998648 111.155334 
L 198.614413 114.787062 
L 202.230178 119.972206 
L 205.845944 126.78222 
L 209.461709 134.952767 
L 213.077474 143.906912 
L 216.693239 152.877223 
L 220.309005 161.113291 
L 223.92477 168.079951 
L 227.540535 173.542114 
L 231.1563 177.497342 
L 234.772066 180.033227 
L 238.387831 181.215274 
L 242.003596 181.058197 
L 245.619361 179.549772 
L 249.235127 176.669857 
L 252.850892 172.373006 
L 256.466657 166.571363 
L 260.082422 159.152026 
L 263.698188 150.046353 
L 267.313953 139.30567 
L 270.929718 127.133853 
L 274.545483 113.850592 
L 278.161249 99.822496 
L 281.777014 85.42934 
L 285.392779 71.095937 
L 289.008544 57.379603 
L 292.62431 45.037213 
L 296.240075 34.994479 
L 299.85584 28.187375 
L 303.471605 25.314973 
L 307.087371 26.611476 
L 310.703136 31.732076 
L 314.318901 39.80559 
L 317.934666 49.619132 
L 321.550432 59.862325 
L 325.166197 69.340618 
L 328.781962 77.103808 
L 332.397727 82.492125 
" style="fill:none;stroke:#7b9ff9;stroke-linecap:square;stroke-width:1.5;"/>
   </g>
   <g id="line2d_21">
    <path clip-path="url(#p5aee9659db)" d="M 46.752273 140.671252 
L 50.368038 140.853533 
L 53.983803 141.97443 
L 57.599568 143.76153 
L 61.215334 145.837532 
L 64.831099 147.717285 
L 68.446864 148.834352 
L 72.062629 148.669864 
L 75.678395 146.943799 
L 79.29416 143.756435 
L 82.909925 139.559193 
L 86.52569 134.927527 
L 90.141456 130.25971 
L 93.757221 125.576163 
L 97.372986 120.566403 
L 100.988751 114.856175 
L 104.604517 108.315904 
L 108.220282 101.208705 
L 111.836047 94.06646 
L 115.451812 87.391421 
L 119.067578 81.390572 
L 122.683343 75.919356 
L 126.299108 70.651643 
L 129.914873 65.344805 
L 133.530639 60.038073 
L 137.146404 55.092931 
L 140.762169 51.099113 
L 144.377934 48.700848 
L 147.9937 48.409333 
L 151.609465 50.454095 
L 155.22523 54.717798 
L 158.840995 60.775227 
L 162.456761 68.002358 
L 166.072526 75.6977 
L 169.688291 83.173885 
L 173.304056 89.828017 
L 176.919822 95.225784 
L 180.535587 99.199449 
L 184.151352 101.914048 
L 187.767117 103.846078 
L 191.382883 105.66565 
L 194.998648 108.074113 
L 198.614413 111.657443 
L 202.230178 116.782965 
L 205.845944 123.528484 
L 209.461709 131.641475 
L 213.077474 140.559887 
L 216.693239 149.530619 
L 220.309005 157.813257 
L 223.92477 164.876002 
L 227.540535 170.480593 
L 231.1563 174.617083 
L 234.772066 177.36399 
L 238.387831 178.778256 
L 242.003596 178.867545 
L 245.619361 177.614206 
L 249.235127 174.99396 
L 252.850892 170.958099 
L 256.466657 165.415613 
L 260.082422 158.249886 
L 263.698188 149.387118 
L 267.313953 138.8717 
L 270.929718 126.899057 
L 274.545483 113.779939 
L 278.161249 99.872568 
L 281.777014 85.54939 
L 285.392779 71.228711 
L 289.008544 57.461408 
L 292.62431 44.997772 
L 296.240075 34.757986 
L 299.85584 27.676057 
L 303.471605 24.45608 
L 307.087371 25.346237 
L 310.703136 30.024503 
L 314.318901 37.648514 
L 317.934666 47.035221 
L 321.550432 56.900007 
L 325.166197 66.066164 
L 328.781962 73.59172 
L 332.397727 78.815999 
" style="fill:none;stroke:#6c8ff1;stroke-linecap:square;stroke-width:1.5;"/>
   </g>
   <g id="line2d_22">
    <path clip-path="url(#p5aee9659db)" d="M 46.752273 141.784268 
L 50.368038 141.949549 
L 53.983803 143.046983 
L 57.599568 144.802993 
L 61.215334 146.844339 
L 64.831099 148.699864 
L 68.446864 149.818067 
L 72.062629 149.688341 
L 75.678395 148.029295 
L 79.29416 144.930666 
L 82.909925 140.82766 
L 86.52569 136.279912 
L 90.141456 131.676345 
L 93.757221 127.037707 
L 97.372986 122.061124 
L 100.988751 116.380622 
L 104.604517 109.868847 
L 108.220282 102.782285 
L 111.836047 95.640796 
L 115.451812 88.936103 
L 119.067578 82.872019 
L 122.683343 77.309242 
L 126.299108 71.931225 
L 129.914873 66.503045 
L 133.530639 61.064864 
L 137.146404 55.971519 
L 140.762169 51.801271 
L 144.377934 49.187267 
L 147.9937 48.635337 
L 151.609465 50.378471 
L 155.22523 54.311697 
L 158.840995 60.028185 
L 162.456761 66.924187 
L 166.072526 74.316648 
L 169.688291 81.532501 
L 173.304056 87.977568 
L 176.919822 93.219674 
L 180.535587 97.086035 
L 184.151352 99.72984 
L 187.767117 101.611145 
L 191.382883 103.382488 
L 194.998648 105.730341 
L 198.614413 109.231571 
L 202.230178 114.251892 
L 205.845944 120.875452 
L 209.461709 128.863256 
L 213.077474 137.67138 
L 216.693239 146.565299 
L 220.309005 154.818721 
L 223.92477 161.906095 
L 227.540535 167.587056 
L 231.1563 171.843933 
L 234.772066 174.745687 
L 238.387831 176.340891 
L 242.003596 176.631154 
L 245.619361 175.594796 
L 249.235127 173.204725 
L 252.850892 169.410159 
L 256.466657 164.118256 
L 260.082422 157.210154 
L 263.698188 148.608251 
L 267.313953 138.35065 
L 270.929718 126.623936 
L 274.545483 113.728634 
L 278.161249 100.012934 
L 281.777014 85.840202 
L 285.392779 71.62029 
L 289.008544 57.894796 
L 292.62431 45.403058 
L 296.240075 35.053768 
L 299.85584 27.772536 
L 303.471605 24.262989 
L 307.087371 24.784408 
L 310.703136 29.038254 
L 314.318901 36.214584 
L 317.934666 45.16578 
L 321.550432 54.638967 
L 325.166197 63.480353 
L 328.781962 70.760098 
L 332.397727 75.819332 
" style="fill:none;stroke:#5f7fe8;stroke-linecap:square;stroke-width:1.5;"/>
   </g>
   <g id="line2d_23">
    <path clip-path="url(#p5aee9659db)" d="M 46.752273 142.898674 
L 50.368038 143.047796 
L 53.983803 144.120376 
L 57.599568 145.840578 
L 61.215334 147.840388 
L 64.831099 149.664357 
L 68.446864 150.777157 
L 72.062629 150.677545 
L 75.678395 149.084076 
L 79.29416 146.077064 
L 82.909925 142.07585 
L 86.52569 137.623815 
L 90.141456 133.09992 
L 93.757221 128.525177 
L 97.372986 123.605046 
L 100.988751 117.982882 
L 104.604517 111.534146 
L 108.220282 104.508288 
L 111.836047 97.411863 
L 115.451812 90.724656 
L 119.067578 84.646498 
L 122.683343 79.043378 
L 126.299108 73.608853 
L 129.914873 68.115976 
L 133.530639 62.605395 
L 137.146404 57.424024 
L 140.762169 53.136715 
L 144.377934 50.363481 
L 147.9937 49.602645 
L 151.609465 51.088837 
L 155.22523 54.728063 
L 158.840995 60.131095 
L 162.456761 66.714369 
L 166.072526 73.813925 
L 169.688291 80.772143 
L 173.304056 87.00528 
L 176.919822 92.085254 
L 180.535587 95.835959 
L 184.151352 98.399961 
L 187.767117 100.221086 
L 191.382883 101.933636 
L 194.998648 104.207918 
L 198.614413 107.610067 
L 202.230178 112.502625 
L 205.845944 118.974836 
L 209.461709 126.8005 
L 213.077474 135.453956 
L 216.693239 144.220299 
L 220.309005 152.389092 
L 223.92477 159.442924 
L 227.540535 165.140989 
L 231.1563 169.45919 
L 234.772066 172.458105 
L 238.387831 174.179161 
L 242.003596 174.619232 
L 245.619361 173.753826 
L 249.235127 171.554037 
L 252.850892 167.967904 
L 256.466657 162.901692 
L 260.082422 156.235495 
L 263.698188 147.889135 
L 267.313953 137.895471 
L 270.929718 126.432828 
L 274.545483 113.791568 
L 278.161249 100.309533 
L 281.777014 86.340466 
L 285.392779 72.284876 
L 289.008544 58.673534 
L 292.62431 46.232409 
L 296.240075 35.855267 
L 299.85584 28.455091 
L 303.471605 24.73071 
L 307.087371 24.948853 
L 310.703136 28.832006 
L 314.318901 35.601604 
L 317.934666 44.145844 
L 321.550432 53.245038 
L 325.166197 61.770657 
L 328.781962 68.807762 
L 332.397727 73.702364 
" style="fill:none;stroke:#536edd;stroke-linecap:square;stroke-width:1.5;"/>
   </g>
   <g id="line2d_24">
    <path clip-path="url(#p5aee9659db)" d="M 46.752273 144.014025 
L 50.368038 144.147946 
L 53.983803 145.194681 
L 57.599568 146.87524 
L 61.215334 148.828093 
L 64.831099 150.614835 
L 68.446864 151.716971 
L 72.062629 151.643331 
L 75.678395 150.113561 
L 79.29416 147.199658 
L 82.909925 143.305549 
L 86.52569 138.958101 
L 90.141456 134.525886 
L 93.757221 130.030185 
L 97.372986 125.185375 
L 100.988751 119.644977 
L 104.604517 113.287677 
L 108.220282 106.355565 
L 111.836047 99.34097 
L 115.451812 92.710735 
L 119.067578 86.660154 
L 122.683343 81.060588 
L 126.299108 75.616073 
L 129.914873 70.107712 
L 133.530639 64.576224 
L 137.146404 59.359546 
L 140.762169 55.007816 
L 144.377934 52.126239 
L 147.9937 51.204075 
L 151.609465 52.475984 
L 155.22523 55.857707 
L 158.840995 60.976755 
L 162.456761 67.269553 
L 166.072526 74.091469 
L 169.688291 80.801228 
L 173.304056 86.826777 
L 176.919822 91.745636 
L 180.535587 95.379897 
L 184.151352 97.862512 
L 187.767117 99.621339 
L 191.382883 101.272022 
L 194.998648 103.467699 
L 198.614413 106.762605 
L 202.230178 111.514804 
L 205.845944 117.81749 
L 209.461709 125.456541 
L 213.077474 133.924471 
L 216.693239 142.526677 
L 220.309005 150.569835 
L 223.92477 157.546146 
L 227.540535 163.215686 
L 231.1563 167.549035 
L 234.772066 170.599403 
L 238.387831 172.40219 
L 242.003596 172.950665 
L 245.619361 172.218552 
L 249.235127 170.175964 
L 252.850892 166.770482 
L 256.466657 161.908336 
L 260.082422 155.469578 
L 263.698188 147.37259 
L 267.313953 137.645923 
L 270.929718 126.460204 
L 274.545483 114.095811 
L 278.161249 100.880137 
L 281.777014 87.156985 
L 285.392779 73.316951 
L 289.008544 59.878904 
L 292.62431 47.553535 
L 296.240075 37.216954 
L 299.85584 29.766227 
L 303.471605 25.891863 
L 307.087371 25.865039 
L 310.703136 29.426982 
L 314.318901 35.829461 
L 317.934666 43.996491 
L 321.550432 52.742437 
L 325.166197 60.96566 
L 328.781962 67.768289 
L 332.397727 72.503665 
" style="fill:none;stroke:#465ecf;stroke-linecap:square;stroke-width:1.5;"/>
   </g>
   <g id="line2d_25">
    <path clip-path="url(#p5aee9659db)" d="M 46.752273 145.129939 
L 50.368038 145.249706 
L 53.983803 146.269914 
L 57.599568 147.907761 
L 61.215334 149.809523 
L 64.831099 151.554784 
L 68.446864 152.64206 
L 72.062629 152.590692 
L 75.678395 151.12246 
L 79.29416 148.302118 
L 82.909925 144.518651 
L 86.52569 140.282286 
L 90.141456 135.950925 
L 93.757221 131.546164 
L 97.372986 126.79177 
L 100.988751 121.352008 
L 104.604517 115.1091 
L 108.220282 108.297528 
L 111.836047 101.394726 
L 115.451812 94.853936 
L 119.067578 88.865617 
L 122.683343 83.306527 
L 126.299108 77.891356 
L 129.914873 72.409299 
L 133.530639 66.900734 
L 137.146404 61.693848 
L 140.762169 57.323064 
L 144.377934 54.377697 
L 147.9937 53.336649 
L 151.609465 54.43334 
L 155.22523 57.592028 
L 158.840995 62.456206 
L 162.456761 68.481811 
L 166.072526 75.043735 
L 169.688291 81.517546 
L 173.304056 87.343859 
L 176.919822 92.107026 
L 180.535587 95.628575 
L 184.151352 98.032665 
L 187.767117 99.731561 
L 191.382883 101.321965 
L 194.998648 103.439218 
L 198.614413 106.624684 
L 202.230178 111.230929 
L 205.845944 117.354122 
L 209.461709 124.79145 
L 213.077474 133.053373 
L 216.693239 141.465991 
L 220.309005 149.353997 
L 223.92477 156.220308 
L 227.540535 161.826936 
L 231.1563 166.140065 
L 234.772066 169.206454 
L 238.387831 171.056444 
L 242.003596 171.680683 
L 245.619361 171.051941 
L 249.235127 169.140016 
L 252.850892 165.892617 
L 256.466657 161.216652 
L 260.082422 154.993031 
L 263.698188 147.139646 
L 267.313953 137.68156 
L 270.929718 126.782236 
L 274.545483 114.712304 
L 278.161249 101.788734 
L 281.777014 88.345287 
L 285.392779 74.762266 
L 289.008544 61.545849 
L 292.62431 49.390043 
L 296.240075 39.151234 
L 299.85584 31.707901 
L 303.471605 27.739511 
L 307.087371 27.519149 
L 310.703136 30.804912 
L 314.318901 36.877719 
L 317.934666 44.697091 
L 321.550432 53.111908 
L 325.166197 61.048549 
L 328.781962 67.627801 
L 332.397727 72.212419 
" style="fill:none;stroke:#3b4cc0;stroke-linecap:square;stroke-width:1.5;"/>
   </g>
  </g>
 </g>
 <defs>
  <clipPath id="p5aee9659db">
   <rect height="224.459726" width="314.21" x="32.47" y="14.060274"/>
  </clipPath>
 </defs>
</svg>
