<?xml version="1.0" encoding="utf-8" standalone="no"?>
<!DOCTYPE svg PUBLIC "-//W3C//DTD SVG 1.1//EN"
  "http://www.w3.org/Graphics/SVG/1.1/DTD/svg11.dtd">
<!-- Created with matplotlib (https://matplotlib.org/) -->
<svg height="216pt" version="1.1" viewBox="0 0 504 216" width="504pt" xmlns="http://www.w3.org/2000/svg" xmlns:xlink="http://www.w3.org/1999/xlink">
 <defs>
  <style type="text/css">
*{stroke-linecap:butt;stroke-linejoin:round;}
  </style>
 </defs>
 <g id="figure_1">
  <g id="patch_1">
   <path d="M 0 216 
L 504 216 
L 504 0 
L 0 0 
z
" style="fill:#ffffff;"/>
  </g>
  <g id="axes_1">
   <g id="patch_2">
    <path d="M 63 192.24 
L 453.6 192.24 
L 453.6 25.92 
L 63 25.92 
z
" style="fill:#ffffff;"/>
   </g>
   <g id="matplotlib.axis_1">
    <g id="xtick_1">
     <g id="line2d_1">
      <defs>
       <path d="M 0 0 
L 0 3.5 
" id="mf380fa8452" style="stroke:#000000;stroke-width:0.8;"/>
      </defs>
      <g>
       <use style="stroke:#000000;stroke-width:0.8;" x="80.754545" xlink:href="#mf380fa8452" y="192.24"/>
      </g>
     </g>
     <g id="text_1">
      <!-- 0 -->
      <defs>
       <path d="M 31.78125 66.40625 
Q 24.171875 66.40625 20.328125 58.90625 
Q 16.5 51.421875 16.5 36.375 
Q 16.5 21.390625 20.328125 13.890625 
Q 24.171875 6.390625 31.78125 6.390625 
Q 39.453125 6.390625 43.28125 13.890625 
Q 47.125 21.390625 47.125 36.375 
Q 47.125 51.421875 43.28125 58.90625 
Q 39.453125 66.40625 31.78125 66.40625 
z
M 31.78125 74.21875 
Q 44.046875 74.21875 50.515625 64.515625 
Q 56.984375 54.828125 56.984375 36.375 
Q 56.984375 17.96875 50.515625 8.265625 
Q 44.046875 -1.421875 31.78125 -1.421875 
Q 19.53125 -1.421875 13.0625 8.265625 
Q 6.59375 17.96875 6.59375 36.375 
Q 6.59375 54.828125 13.0625 64.515625 
Q 19.53125 74.21875 31.78125 74.21875 
z
" id="DejaVuSans-48"/>
      </defs>
      <g transform="translate(77.573295 206.838437)scale(0.1 -0.1)">
       <use xlink:href="#DejaVuSans-48"/>
      </g>
     </g>
    </g>
    <g id="xtick_2">
     <g id="line2d_2">
      <g>
       <use style="stroke:#000000;stroke-width:0.8;" x="126.279021" xlink:href="#mf380fa8452" y="192.24"/>
      </g>
     </g>
     <g id="text_2">
      <!-- 5 -->
      <defs>
       <path d="M 10.796875 72.90625 
L 49.515625 72.90625 
L 49.515625 64.59375 
L 19.828125 64.59375 
L 19.828125 46.734375 
Q 21.96875 47.46875 24.109375 47.828125 
Q 26.265625 48.1875 28.421875 48.1875 
Q 40.625 48.1875 47.75 41.5 
Q 54.890625 34.8125 54.890625 23.390625 
Q 54.890625 11.625 47.5625 5.09375 
Q 40.234375 -1.421875 26.90625 -1.421875 
Q 22.3125 -1.421875 17.546875 -0.640625 
Q 12.796875 0.140625 7.71875 1.703125 
L 7.71875 11.625 
Q 12.109375 9.234375 16.796875 8.0625 
Q 21.484375 6.890625 26.703125 6.890625 
Q 35.15625 6.890625 40.078125 11.328125 
Q 45.015625 15.765625 45.015625 23.390625 
Q 45.015625 31 40.078125 35.4375 
Q 35.15625 39.890625 26.703125 39.890625 
Q 22.75 39.890625 18.8125 39.015625 
Q 14.890625 38.140625 10.796875 36.28125 
z
" id="DejaVuSans-53"/>
      </defs>
      <g transform="translate(123.097771 206.838437)scale(0.1 -0.1)">
       <use xlink:href="#DejaVuSans-53"/>
      </g>
     </g>
    </g>
    <g id="xtick_3">
     <g id="line2d_3">
      <g>
       <use style="stroke:#000000;stroke-width:0.8;" x="171.803497" xlink:href="#mf380fa8452" y="192.24"/>
      </g>
     </g>
     <g id="text_3">
      <!-- 10 -->
      <defs>
       <path d="M 12.40625 8.296875 
L 28.515625 8.296875 
L 28.515625 63.921875 
L 10.984375 60.40625 
L 10.984375 69.390625 
L 28.421875 72.90625 
L 38.28125 72.90625 
L 38.28125 8.296875 
L 54.390625 8.296875 
L 54.390625 0 
L 12.40625 0 
z
" id="DejaVuSans-49"/>
      </defs>
      <g transform="translate(165.440997 206.838437)scale(0.1 -0.1)">
       <use xlink:href="#DejaVuSans-49"/>
       <use x="63.623047" xlink:href="#DejaVuSans-48"/>
      </g>
     </g>
    </g>
    <g id="xtick_4">
     <g id="line2d_4">
      <g>
       <use style="stroke:#000000;stroke-width:0.8;" x="217.327972" xlink:href="#mf380fa8452" y="192.24"/>
      </g>
     </g>
     <g id="text_4">
      <!-- 15 -->
      <g transform="translate(210.965472 206.838437)scale(0.1 -0.1)">
       <use xlink:href="#DejaVuSans-49"/>
       <use x="63.623047" xlink:href="#DejaVuSans-53"/>
      </g>
     </g>
    </g>
    <g id="xtick_5">
     <g id="line2d_5">
      <g>
       <use style="stroke:#000000;stroke-width:0.8;" x="262.852448" xlink:href="#mf380fa8452" y="192.24"/>
      </g>
     </g>
     <g id="text_5">
      <!-- 20 -->
      <defs>
       <path d="M 19.1875 8.296875 
L 53.609375 8.296875 
L 53.609375 0 
L 7.328125 0 
L 7.328125 8.296875 
Q 12.9375 14.109375 22.625 23.890625 
Q 32.328125 33.6875 34.8125 36.53125 
Q 39.546875 41.84375 41.421875 45.53125 
Q 43.3125 49.21875 43.3125 52.78125 
Q 43.3125 58.59375 39.234375 62.25 
Q 35.15625 65.921875 28.609375 65.921875 
Q 23.96875 65.921875 18.8125 64.3125 
Q 13.671875 62.703125 7.8125 59.421875 
L 7.8125 69.390625 
Q 13.765625 71.78125 18.9375 73 
Q 24.125 74.21875 28.421875 74.21875 
Q 39.75 74.21875 46.484375 68.546875 
Q 53.21875 62.890625 53.21875 53.421875 
Q 53.21875 48.921875 51.53125 44.890625 
Q 49.859375 40.875 45.40625 35.40625 
Q 44.1875 33.984375 37.640625 27.21875 
Q 31.109375 20.453125 19.1875 8.296875 
z
" id="DejaVuSans-50"/>
      </defs>
      <g transform="translate(256.489948 206.838437)scale(0.1 -0.1)">
       <use xlink:href="#DejaVuSans-50"/>
       <use x="63.623047" xlink:href="#DejaVuSans-48"/>
      </g>
     </g>
    </g>
    <g id="xtick_6">
     <g id="line2d_6">
      <g>
       <use style="stroke:#000000;stroke-width:0.8;" x="308.376923" xlink:href="#mf380fa8452" y="192.24"/>
      </g>
     </g>
     <g id="text_6">
      <!-- 25 -->
      <g transform="translate(302.014423 206.838437)scale(0.1 -0.1)">
       <use xlink:href="#DejaVuSans-50"/>
       <use x="63.623047" xlink:href="#DejaVuSans-53"/>
      </g>
     </g>
    </g>
    <g id="xtick_7">
     <g id="line2d_7">
      <g>
       <use style="stroke:#000000;stroke-width:0.8;" x="353.901399" xlink:href="#mf380fa8452" y="192.24"/>
      </g>
     </g>
     <g id="text_7">
      <!-- 30 -->
      <defs>
       <path d="M 40.578125 39.3125 
Q 47.65625 37.796875 51.625 33 
Q 55.609375 28.21875 55.609375 21.1875 
Q 55.609375 10.40625 48.1875 4.484375 
Q 40.765625 -1.421875 27.09375 -1.421875 
Q 22.515625 -1.421875 17.65625 -0.515625 
Q 12.796875 0.390625 7.625 2.203125 
L 7.625 11.71875 
Q 11.71875 9.328125 16.59375 8.109375 
Q 21.484375 6.890625 26.8125 6.890625 
Q 36.078125 6.890625 40.9375 10.546875 
Q 45.796875 14.203125 45.796875 21.1875 
Q 45.796875 27.640625 41.28125 31.265625 
Q 36.765625 34.90625 28.71875 34.90625 
L 20.21875 34.90625 
L 20.21875 43.015625 
L 29.109375 43.015625 
Q 36.375 43.015625 40.234375 45.921875 
Q 44.09375 48.828125 44.09375 54.296875 
Q 44.09375 59.90625 40.109375 62.90625 
Q 36.140625 65.921875 28.71875 65.921875 
Q 24.65625 65.921875 20.015625 65.03125 
Q 15.375 64.15625 9.8125 62.3125 
L 9.8125 71.09375 
Q 15.4375 72.65625 20.34375 73.4375 
Q 25.25 74.21875 29.59375 74.21875 
Q 40.828125 74.21875 47.359375 69.109375 
Q 53.90625 64.015625 53.90625 55.328125 
Q 53.90625 49.265625 50.4375 45.09375 
Q 46.96875 40.921875 40.578125 39.3125 
z
" id="DejaVuSans-51"/>
      </defs>
      <g transform="translate(347.538899 206.838437)scale(0.1 -0.1)">
       <use xlink:href="#DejaVuSans-51"/>
       <use x="63.623047" xlink:href="#DejaVuSans-48"/>
      </g>
     </g>
    </g>
    <g id="xtick_8">
     <g id="line2d_8">
      <g>
       <use style="stroke:#000000;stroke-width:0.8;" x="399.425874" xlink:href="#mf380fa8452" y="192.24"/>
      </g>
     </g>
     <g id="text_8">
      <!-- 35 -->
      <g transform="translate(393.063374 206.838437)scale(0.1 -0.1)">
       <use xlink:href="#DejaVuSans-51"/>
       <use x="63.623047" xlink:href="#DejaVuSans-53"/>
      </g>
     </g>
    </g>
    <g id="xtick_9">
     <g id="line2d_9">
      <g>
       <use style="stroke:#000000;stroke-width:0.8;" x="444.95035" xlink:href="#mf380fa8452" y="192.24"/>
      </g>
     </g>
     <g id="text_9">
      <!-- 40 -->
      <defs>
       <path d="M 37.796875 64.3125 
L 12.890625 25.390625 
L 37.796875 25.390625 
z
M 35.203125 72.90625 
L 47.609375 72.90625 
L 47.609375 25.390625 
L 58.015625 25.390625 
L 58.015625 17.1875 
L 47.609375 17.1875 
L 47.609375 0 
L 37.796875 0 
L 37.796875 17.1875 
L 4.890625 17.1875 
L 4.890625 26.703125 
z
" id="DejaVuSans-52"/>
      </defs>
      <g transform="translate(438.58785 206.838437)scale(0.1 -0.1)">
       <use xlink:href="#DejaVuSans-52"/>
       <use x="63.623047" xlink:href="#DejaVuSans-48"/>
      </g>
     </g>
    </g>
   </g>
   <g id="matplotlib.axis_2">
    <g id="ytick_1">
     <g id="line2d_10">
      <defs>
       <path d="M 0 0 
L -3.5 0 
" id="m528ef29178" style="stroke:#000000;stroke-width:0.8;"/>
      </defs>
      <g>
       <use style="stroke:#000000;stroke-width:0.8;" x="63" xlink:href="#m528ef29178" y="168.068535"/>
      </g>
     </g>
     <g id="text_10">
      <!-- −2 -->
      <defs>
       <path d="M 10.59375 35.5 
L 73.1875 35.5 
L 73.1875 27.203125 
L 10.59375 27.203125 
z
" id="DejaVuSans-8722"/>
      </defs>
      <g transform="translate(41.257812 171.867754)scale(0.1 -0.1)">
       <use xlink:href="#DejaVuSans-8722"/>
       <use x="83.789062" xlink:href="#DejaVuSans-50"/>
      </g>
     </g>
    </g>
    <g id="ytick_2">
     <g id="line2d_11">
      <g>
       <use style="stroke:#000000;stroke-width:0.8;" x="63" xlink:href="#m528ef29178" y="137.050557"/>
      </g>
     </g>
     <g id="text_11">
      <!-- −1 -->
      <g transform="translate(41.257812 140.849775)scale(0.1 -0.1)">
       <use xlink:href="#DejaVuSans-8722"/>
       <use x="83.789062" xlink:href="#DejaVuSans-49"/>
      </g>
     </g>
    </g>
    <g id="ytick_3">
     <g id="line2d_12">
      <g>
       <use style="stroke:#000000;stroke-width:0.8;" x="63" xlink:href="#m528ef29178" y="106.032578"/>
      </g>
     </g>
     <g id="text_12">
      <!-- 0 -->
      <g transform="translate(49.6375 109.831797)scale(0.1 -0.1)">
       <use xlink:href="#DejaVuSans-48"/>
      </g>
     </g>
    </g>
    <g id="ytick_4">
     <g id="line2d_13">
      <g>
       <use style="stroke:#000000;stroke-width:0.8;" x="63" xlink:href="#m528ef29178" y="75.0146"/>
      </g>
     </g>
     <g id="text_13">
      <!-- 1 -->
      <g transform="translate(49.6375 78.813819)scale(0.1 -0.1)">
       <use xlink:href="#DejaVuSans-49"/>
      </g>
     </g>
    </g>
    <g id="ytick_5">
     <g id="line2d_14">
      <g>
       <use style="stroke:#000000;stroke-width:0.8;" x="63" xlink:href="#m528ef29178" y="43.996622"/>
      </g>
     </g>
     <g id="text_14">
      <!-- 2 -->
      <g transform="translate(49.6375 47.795841)scale(0.1 -0.1)">
       <use xlink:href="#DejaVuSans-50"/>
      </g>
     </g>
    </g>
   </g>
   <g id="line2d_15">
    <path clip-path="url(#pf748c05dbc)" d="M 80.754545 131.790898 
L 89.859441 87.29463 
L 98.964336 127.66622 
L 108.069231 68.925354 
L 117.174126 134.596291 
L 126.279021 97.219015 
L 135.383916 113.513252 
L 144.488811 110.230009 
L 153.593706 126.319111 
L 162.698601 92.474737 
L 171.803497 112.639948 
L 180.908392 105.610781 
L 190.013287 104.730809 
L 199.118182 90.710067 
L 208.223077 134.326758 
L 217.327972 89.265835 
L 226.432867 126.84512 
L 235.537762 98.623187 
L 244.642657 131.995631 
L 253.747552 73.601372 
L 262.852448 134.609329 
L 271.957343 85.510314 
L 281.062238 116.257147 
L 290.167133 95.672039 
L 299.272028 131.169493 
L 308.376923 92.02196 
L 317.481818 120.925568 
L 326.586713 109.21276 
L 335.691608 107.013887 
L 344.796503 95.470032 
L 353.901399 120.172859 
L 363.006294 94.321247 
L 372.111189 112.845184 
L 381.216084 105.632178 
L 390.320979 125.149783 
L 399.425874 87.573921 
L 408.530769 132.005467 
L 417.635664 91.252795 
L 426.740559 116.816711 
L 435.845455 89.608429 
" style="fill:none;stroke:#1f77b4;stroke-linecap:square;stroke-opacity:0.3;stroke-width:1.5;"/>
   </g>
   <g id="line2d_16">
    <path clip-path="url(#pf748c05dbc)" d="M 80.754545 63.380927 
L 89.859441 79.197323 
L 98.964336 59.686019 
L 108.069231 102.295009 
L 117.174126 151.25073 
L 126.279021 184.68 
L 135.383916 180.240812 
L 144.488811 151.255953 
L 153.593706 157.071477 
L 162.698601 134.844544 
L 171.803497 121.770902 
L 180.908392 78.390211 
L 190.013287 69.190445 
L 199.118182 58.926246 
L 208.223077 42.053354 
L 217.327972 38.259918 
L 226.432867 46.287799 
L 235.537762 101.164833 
L 244.642657 120.767813 
L 253.747552 136.368573 
L 262.852448 129.205405 
L 271.957343 151.587747 
L 281.062238 174.143216 
L 290.167133 165.731929 
L 299.272028 145.431097 
L 308.376923 106.407482 
L 317.481818 100.147353 
L 326.586713 73.819028 
L 335.691608 62.389235 
L 344.796503 49.143916 
L 353.901399 58.206596 
L 363.006294 73.765637 
L 372.111189 73.06635 
L 381.216084 92.193212 
L 390.320979 110.900705 
L 399.425874 154.022169 
L 408.530769 160.126611 
L 417.635664 154.863789 
L 426.740559 140.151212 
L 435.845455 135.196628 
" style="fill:none;stroke:#1f77b4;stroke-linecap:square;stroke-opacity:0.3;stroke-width:1.5;"/>
   </g>
   <g id="line2d_17">
    <path clip-path="url(#pf748c05dbc)" d="M 80.754545 151.08875 
L 89.859441 85.60731 
L 98.964336 94.353577 
L 108.069231 39.71734 
L 117.174126 127.604285 
L 126.279021 139.764548 
L 135.383916 96.633646 
L 144.488811 182.744498 
L 153.593706 81.81585 
L 162.698601 93.816825 
L 171.803497 56.382394 
L 180.908392 117.837396 
L 190.013287 96.560129 
L 199.118182 113.216699 
L 208.223077 175.485449 
L 217.327972 65.631662 
L 226.432867 111.209973 
L 235.537762 64.339578 
L 244.642657 100.721702 
L 253.747552 85.927547 
L 262.852448 136.266032 
L 271.957343 157.854918 
L 281.062238 77.529864 
L 290.167133 140.772143 
L 299.272028 61.920623 
L 308.376923 95.519947 
L 317.481818 88.368363 
L 326.586713 135.3658 
L 335.691608 130.841335 
L 344.796503 95.565814 
L 353.901399 145.294153 
L 363.006294 48.02881 
L 372.111189 100.556318 
L 381.216084 84.17808 
L 390.320979 121.961576 
L 399.425874 118.984478 
L 408.530769 118.340637 
L 417.635664 140.300744 
L 426.740559 53.869359 
L 435.845455 119.222874 
" style="fill:none;stroke:#1f77b4;stroke-linecap:square;stroke-opacity:0.3;stroke-width:1.5;"/>
   </g>
   <g id="line2d_18">
    <path clip-path="url(#pf748c05dbc)" d="M 80.754545 82.100091 
L 89.859441 73.245673 
L 98.964336 72.969934 
L 108.069231 91.666776 
L 117.174126 86.843471 
L 126.279021 101.000604 
L 135.383916 89.314236 
L 144.488811 95.391669 
L 153.593706 87.004237 
L 162.698601 106.527387 
L 171.803497 94.947631 
L 180.908392 125.785848 
L 190.013287 94.405367 
L 199.118182 127.348862 
L 208.223077 91.301889 
L 217.327972 125.505939 
L 226.432867 107.155548 
L 235.537762 126.915959 
L 244.642657 124.179571 
L 253.747552 117.427585 
L 262.852448 127.490079 
L 271.957343 109.859614 
L 281.062238 132.460156 
L 290.167133 116.214894 
L 299.272028 137.352669 
L 308.376923 118.262705 
L 317.481818 132.134567 
L 326.586713 112.855314 
L 335.691608 130.06967 
L 344.796503 114.105529 
L 353.901399 133.657438 
L 363.006294 115.966518 
L 372.111189 127.55499 
L 381.216084 113.522988 
L 390.320979 116.580313 
L 399.425874 117.67032 
L 408.530769 111.310765 
L 417.635664 123.841442 
L 426.740559 104.842421 
L 435.845455 120.721425 
" style="fill:none;stroke:#1f77b4;stroke-linecap:square;stroke-opacity:0.3;stroke-width:1.5;"/>
   </g>
   <g id="line2d_19">
    <path clip-path="url(#pf748c05dbc)" d="M 80.754545 139.655092 
L 89.859441 86.535894 
L 98.964336 112.679631 
L 108.069231 120.75631 
L 117.174126 92.092258 
L 126.279021 112.583273 
L 135.383916 102.717399 
L 144.488811 122.155861 
L 153.593706 83.743737 
L 162.698601 131.233912 
L 171.803497 109.411239 
L 180.908392 96.927229 
L 190.013287 129.995917 
L 199.118182 104.422814 
L 208.223077 114.00551 
L 217.327972 101.836882 
L 226.432867 126.57971 
L 235.537762 94.213906 
L 244.642657 103.901141 
L 253.747552 126.767723 
L 262.852448 84.921638 
L 271.957343 119.020667 
L 281.062238 105.572586 
L 290.167133 115.199087 
L 299.272028 98.033798 
L 308.376923 121.951702 
L 317.481818 116.401595 
L 326.586713 92.363463 
L 335.691608 132.823821 
L 344.796503 100.575238 
L 353.901399 108.703148 
L 363.006294 109.554174 
L 372.111189 112.742965 
L 381.216084 102.716909 
L 390.320979 99.643227 
L 399.425874 128.180726 
L 408.530769 86.210052 
L 417.635664 119.338397 
L 426.740559 112.38605 
L 435.845455 106.355588 
" style="fill:none;stroke:#1f77b4;stroke-linecap:square;stroke-opacity:0.3;stroke-width:1.5;"/>
   </g>
   <g id="line2d_20">
    <path clip-path="url(#pf748c05dbc)" d="M 80.754545 114.32003 
L 89.859441 81.144117 
L 98.964336 90.714849 
L 108.069231 69.311159 
L 117.174126 127.467851 
L 126.279021 91.002954 
L 135.383916 101.156071 
L 144.488811 74.75393 
L 153.593706 107.665859 
L 162.698601 105.491389 
L 171.803497 116.31703 
L 180.908392 98.583281 
L 190.013287 82.971314 
L 199.118182 120.344576 
L 208.223077 114.815337 
L 217.327972 126.436734 
L 226.432867 86.24549 
L 235.537762 121.060543 
L 244.642657 101.591306 
L 253.747552 144.235421 
L 262.852448 110.10178 
L 271.957343 111.605121 
L 281.062238 101.321781 
L 290.167133 133.665539 
L 299.272028 130.573878 
L 308.376923 110.912866 
L 317.481818 115.411752 
L 326.586713 100.965694 
L 335.691608 137.900929 
L 344.796503 116.638302 
L 353.901399 126.089066 
L 363.006294 82.511972 
L 372.111189 127.521686 
L 381.216084 112.677976 
L 390.320979 126.443161 
L 399.425874 95.813987 
L 408.530769 100.860329 
L 417.635664 103.076695 
L 426.740559 115.858709 
L 435.845455 117.683326 
" style="fill:none;stroke:#1f77b4;stroke-linecap:square;stroke-opacity:0.3;stroke-width:1.5;"/>
   </g>
   <g id="line2d_21">
    <path clip-path="url(#pf748c05dbc)" d="M 80.754545 144.779782 
L 89.859441 75.789396 
L 98.964336 94.122986 
L 108.069231 97.383925 
L 117.174126 105.348261 
L 126.279021 86.212629 
L 135.383916 149.454979 
L 144.488811 92.092394 
L 153.593706 124.377976 
L 162.698601 106.553059 
L 171.803497 101.694919 
L 180.908392 83.611711 
L 190.013287 117.394856 
L 199.118182 83.341487 
L 208.223077 123.127956 
L 217.327972 104.724491 
L 226.432867 120.707917 
L 235.537762 104.246765 
L 244.642657 113.233342 
L 253.747552 91.044444 
L 262.852448 112.392558 
L 271.957343 86.44869 
L 281.062238 115.175946 
L 290.167133 104.117516 
L 299.272028 112.457384 
L 308.376923 107.296418 
L 317.481818 119.196146 
L 326.586713 91.475906 
L 335.691608 113.066673 
L 344.796503 97.317701 
L 353.901399 103.20183 
L 363.006294 102.684462 
L 372.111189 115.53566 
L 381.216084 100.272977 
L 390.320979 116.705547 
L 399.425874 103.632436 
L 408.530769 108.078672 
L 417.635664 99.41587 
L 426.740559 107.854623 
L 435.845455 99.72975 
" style="fill:none;stroke:#1f77b4;stroke-linecap:square;stroke-opacity:0.3;stroke-width:1.5;"/>
   </g>
   <g id="line2d_22">
    <path clip-path="url(#pf748c05dbc)" d="M 80.754545 130.587975 
L 89.859441 177.398817 
L 98.964336 130.345816 
L 108.069231 142.386556 
L 117.174126 103.627759 
L 126.279021 160.323272 
L 135.383916 120.464424 
L 144.488811 119.882774 
L 153.593706 115.815725 
L 162.698601 168.991582 
L 171.803497 132.102739 
L 180.908392 143.437803 
L 190.013287 84.555795 
L 199.118182 128.867087 
L 208.223077 139.235462 
L 217.327972 155.47251 
L 226.432867 112.303523 
L 235.537762 138.238266 
L 244.642657 103.6434 
L 253.747552 143.898203 
L 262.852448 114.080909 
L 271.957343 130.209612 
L 281.062238 125.017457 
L 290.167133 151.906648 
L 299.272028 105.569041 
L 308.376923 130.162762 
L 317.481818 99.90617 
L 326.586713 139.623687 
L 335.691608 131.546163 
L 344.796503 137.063284 
L 353.901399 103.32609 
L 363.006294 134.558178 
L 372.111189 103.645574 
L 381.216084 137.942519 
L 390.320979 115.481261 
L 399.425874 131.347761 
L 408.530769 118.045604 
L 417.635664 135.131853 
L 426.740559 97.623704 
L 435.845455 131.710531 
" style="fill:none;stroke:#1f77b4;stroke-linecap:square;stroke-opacity:0.3;stroke-width:1.5;"/>
   </g>
   <g id="line2d_23">
    <path clip-path="url(#pf748c05dbc)" d="M 80.754545 90.296949 
L 89.859441 121.09129 
L 98.964336 59.788955 
L 108.069231 150.239092 
L 117.174126 82.925677 
L 126.279021 128.762035 
L 135.383916 75.392695 
L 144.488811 135.917 
L 153.593706 90.508377 
L 162.698601 129.380619 
L 171.803497 57.690239 
L 180.908392 142.743705 
L 190.013287 91.146162 
L 199.118182 132.710817 
L 208.223077 73.415623 
L 217.327972 127.043941 
L 226.432867 87.677976 
L 235.537762 138.849096 
L 244.642657 62.431602 
L 253.747552 133.893707 
L 262.852448 92.393134 
L 271.957343 135.582136 
L 281.062238 74.737141 
L 290.167133 121.698803 
L 299.272028 83.014962 
L 308.376923 145.463035 
L 317.481818 71.036716 
L 326.586713 126.282565 
L 335.691608 88.491139 
L 344.796503 136.433911 
L 353.901399 78.901144 
L 363.006294 121.11069 
L 372.111189 77.988882 
L 381.216084 146.789651 
L 390.320979 80.18567 
L 399.425874 121.934638 
L 408.530769 82.750146 
L 417.635664 135.177072 
L 426.740559 84.011338 
L 435.845455 124.417678 
" style="fill:none;stroke:#1f77b4;stroke-linecap:square;stroke-opacity:0.3;stroke-width:1.5;"/>
   </g>
   <g id="line2d_24">
    <path clip-path="url(#pf748c05dbc)" d="M 80.754545 93.800981 
L 89.859441 126.71157 
L 98.964336 58.91001 
L 108.069231 148.911427 
L 117.174126 107.080018 
L 126.279021 121.13168 
L 135.383916 67.926926 
L 144.488811 122.887986 
L 153.593706 91.086435 
L 162.698601 120.396097 
L 171.803497 84.805772 
L 180.908392 141.986512 
L 190.013287 97.646666 
L 199.118182 109.999131 
L 208.223077 76.251064 
L 217.327972 123.034661 
L 226.432867 94.382756 
L 235.537762 121.190011 
L 244.642657 96.903564 
L 253.747552 130.674491 
L 262.852448 89.88252 
L 271.957343 105.396173 
L 281.062238 86.329211 
L 290.167133 123.251546 
L 299.272028 99.259653 
L 308.376923 121.000657 
L 317.481818 99.573649 
L 326.586713 118.781515 
L 335.691608 87.034996 
L 344.796503 106.402152 
L 353.901399 96.086125 
L 363.006294 123.193234 
L 372.111189 102.199434 
L 381.216084 117.512059 
L 390.320979 97.598365 
L 399.425874 110.257502 
L 408.530769 89.49192 
L 417.635664 110.525406 
L 426.740559 103.57269 
L 435.845455 121.262951 
" style="fill:none;stroke:#1f77b4;stroke-linecap:square;stroke-opacity:0.3;stroke-width:1.5;"/>
   </g>
   <g id="line2d_25">
    <path clip-path="url(#pf748c05dbc)" d="M 80.754545 123.39064 
L 89.859441 67.516337 
L 98.964336 165.792483 
L 108.069231 87.855851 
L 117.174126 67.366168 
L 126.279021 148.87597 
L 135.383916 105.075446 
L 144.488811 77.071376 
L 153.593706 137.599674 
L 162.698601 98.400706 
L 171.803497 89.887235 
L 180.908392 123.57898 
L 190.013287 103.547234 
L 199.118182 95.047814 
L 208.223077 120.930564 
L 217.327972 97.346953 
L 226.432867 103.915531 
L 235.537762 114.970111 
L 244.642657 99.693724 
L 253.747552 102.605699 
L 262.852448 117.318957 
L 271.957343 96.87544 
L 281.062238 105.408057 
L 290.167133 113.343658 
L 299.272028 101.843752 
L 308.376923 101.93492 
L 317.481818 114.014054 
L 326.586713 101.747568 
L 335.691608 104.621033 
L 344.796503 108.867067 
L 353.901399 105.980362 
L 363.006294 103.435626 
L 372.111189 108.788309 
L 381.216084 104.323902 
L 390.320979 107.085562 
L 399.425874 105.458619 
L 408.530769 105.898591 
L 417.635664 106.18846 
L 426.740559 107.236955 
L 435.845455 103.430381 
" style="fill:none;stroke:#1f77b4;stroke-linecap:square;stroke-opacity:0.3;stroke-width:1.5;"/>
   </g>
   <g id="line2d_26">
    <path clip-path="url(#pf748c05dbc)" d="M 80.754545 83.260552 
L 89.859441 65.413599 
L 98.964336 80.739591 
L 108.069231 101.569948 
L 117.174126 90.032969 
L 126.279021 112.508586 
L 135.383916 126.033552 
L 144.488811 112.803306 
L 153.593706 114.950909 
L 162.698601 106.932555 
L 171.803497 100.342037 
L 180.908392 98.976724 
L 190.013287 88.515932 
L 199.118182 98.726901 
L 208.223077 109.262212 
L 217.327972 106.947416 
L 226.432867 118.736646 
L 235.537762 125.802591 
L 244.642657 122.860856 
L 253.747552 121.367382 
L 262.852448 114.347784 
L 271.957343 110.723859 
L 281.062238 106.366565 
L 290.167133 98.149786 
L 299.272028 101.218586 
L 308.376923 104.856097 
L 317.481818 104.049454 
L 326.586713 108.633715 
L 335.691608 111.620554 
L 344.796503 111.425972 
L 353.901399 109.399311 
L 363.006294 104.520254 
L 372.111189 102.378613 
L 381.216084 99.135027 
L 390.320979 94.427691 
L 399.425874 95.575188 
L 408.530769 97.969518 
L 417.635664 99.377644 
L 426.740559 102.688252 
L 435.845455 105.723772 
" style="fill:none;stroke:#1f77b4;stroke-linecap:square;stroke-opacity:0.3;stroke-width:1.5;"/>
   </g>
   <g id="line2d_27">
    <path clip-path="url(#pf748c05dbc)" d="M 80.754545 74.202847 
L 89.859441 113.222855 
L 98.964336 137.83742 
L 108.069231 142.43038 
L 117.174126 105.514745 
L 126.279021 98.482505 
L 135.383916 93.132211 
L 144.488811 117.878662 
L 153.593706 117.37638 
L 162.698601 100.8496 
L 171.803497 82.837648 
L 180.908392 85.790771 
L 190.013287 114.387508 
L 199.118182 146.455385 
L 208.223077 139.400024 
L 217.327972 117.994036 
L 226.432867 74.907851 
L 235.537762 76.498332 
L 244.642657 91.949479 
L 253.747552 121.510439 
L 262.852448 128.094186 
L 271.957343 113.273201 
L 281.062238 101.352647 
L 290.167133 105.519715 
L 299.272028 117.635371 
L 308.376923 128.200431 
L 317.481818 104.10534 
L 326.586713 87.632727 
L 335.691608 73.069536 
L 344.796503 98.514514 
L 353.901399 128.029741 
L 363.006294 142.649914 
L 372.111189 129.74421 
L 381.216084 99.935036 
L 390.320979 83.522998 
L 399.425874 92.863195 
L 408.530769 105.657669 
L 417.635664 119.671461 
L 426.740559 105.05131 
L 435.845455 101.534056 
" style="fill:none;stroke:#1f77b4;stroke-linecap:square;stroke-opacity:0.3;stroke-width:1.5;"/>
   </g>
   <g id="line2d_28">
    <path clip-path="url(#pf748c05dbc)" d="M 80.754545 105.776021 
L 89.859441 146.526381 
L 98.964336 55.35625 
L 108.069231 85.948771 
L 117.174126 65.402882 
L 126.279021 136.611712 
L 135.383916 57.955035 
L 144.488811 117.346962 
L 153.593706 73.164382 
L 162.698601 112.7088 
L 171.803497 52.803009 
L 180.908392 132.540314 
L 190.013287 120.049718 
L 199.118182 122.773296 
L 208.223077 77.711663 
L 217.327972 116.853631 
L 226.432867 135.040039 
L 235.537762 118.780204 
L 244.642657 127.892469 
L 253.747552 118.106788 
L 262.852448 134.646259 
L 271.957343 77.321027 
L 281.062238 136.122205 
L 290.167133 115.04396 
L 299.272028 143.870478 
L 308.376923 58.408919 
L 317.481818 117.245497 
L 326.586713 84.15341 
L 335.691608 124.166433 
L 344.796503 68.827795 
L 353.901399 120.275835 
L 363.006294 78.93757 
L 372.111189 87.066934 
L 381.216084 73.55975 
L 390.320979 119.574783 
L 399.425874 110.923755 
L 408.530769 83.965085 
L 417.635664 95.308843 
L 426.740559 101.743876 
L 435.845455 127.391477 
" style="fill:none;stroke:#1f77b4;stroke-linecap:square;stroke-opacity:0.3;stroke-width:1.5;"/>
   </g>
   <g id="line2d_29">
    <path clip-path="url(#pf748c05dbc)" d="M 80.754545 95.762231 
L 89.859441 92.675171 
L 98.964336 107.35728 
L 108.069231 113.150574 
L 117.174126 76.827626 
L 126.279021 100.081812 
L 135.383916 99.81326 
L 144.488811 120.432398 
L 153.593706 112.367985 
L 162.698601 91.085764 
L 171.803497 122.502768 
L 180.908392 114.168724 
L 190.013287 126.403542 
L 199.118182 102.316438 
L 208.223077 97.812831 
L 217.327972 127.136444 
L 226.432867 109.95448 
L 235.537762 115.155077 
L 244.642657 85.159817 
L 253.747552 97.387495 
L 262.852448 114.752877 
L 271.957343 93.488572 
L 281.062238 100.923512 
L 290.167133 81.681384 
L 299.272028 112.105406 
L 308.376923 114.481543 
L 317.481818 94.603392 
L 326.586713 103.994688 
L 335.691608 95.008349 
L 344.796503 130.632907 
L 353.901399 115.642112 
L 363.006294 103.873524 
L 372.111189 113.294838 
L 381.216084 107.706054 
L 390.320979 131.222074 
L 399.425874 98.04486 
L 408.530769 98.237244 
L 417.635664 107.41004 
L 426.740559 106.638873 
L 435.845455 117.895999 
" style="fill:none;stroke:#1f77b4;stroke-linecap:square;stroke-opacity:0.3;stroke-width:1.5;"/>
   </g>
   <g id="line2d_30">
    <path clip-path="url(#pf748c05dbc)" d="M 80.754545 139.946308 
L 89.859441 76.521224 
L 98.964336 153.958935 
L 108.069231 58.519737 
L 117.174126 132.073586 
L 126.279021 35.5768 
L 135.383916 138.111687 
L 144.488811 80.830054 
L 153.593706 140.009062 
L 162.698601 99.246082 
L 171.803497 123.010422 
L 180.908392 135.177264 
L 190.013287 93.286463 
L 199.118182 121.106579 
L 208.223077 48.205743 
L 217.327972 137.792691 
L 226.432867 56.572154 
L 235.537762 144.999238 
L 244.642657 62.081142 
L 253.747552 158.663576 
L 262.852448 100.807888 
L 271.957343 140.453194 
L 281.062238 91.827572 
L 290.167133 98.146848 
L 299.272028 110.983497 
L 308.376923 75.652789 
L 317.481818 115.785517 
L 326.586713 60.959188 
L 335.691608 152.783746 
L 344.796503 85.755175 
L 353.901399 157.382772 
L 363.006294 76.607624 
L 372.111189 141.748574 
L 381.216084 89.184599 
L 390.320979 109.817455 
L 399.425874 81.408757 
L 408.530769 83.67908 
L 417.635664 121.579897 
L 426.740559 89.220584 
L 435.845455 141.819755 
" style="fill:none;stroke:#1f77b4;stroke-linecap:square;stroke-opacity:0.3;stroke-width:1.5;"/>
   </g>
   <g id="line2d_31">
    <path clip-path="url(#pf748c05dbc)" d="M 80.754545 154.129985 
L 89.859441 143.772155 
L 98.964336 52.326241 
L 108.069231 127.055276 
L 117.174126 154.386381 
L 126.279021 85.840924 
L 135.383916 76.550096 
L 144.488811 154.781365 
L 153.593706 120.916999 
L 162.698601 60.478132 
L 171.803497 125.216399 
L 180.908392 158.539338 
L 190.013287 67.167895 
L 199.118182 101.341119 
L 208.223077 154.840442 
L 217.327972 111.433518 
L 226.432867 69.660305 
L 235.537762 137.687279 
L 244.642657 141.651705 
L 253.747552 70.829543 
L 262.852448 99.654098 
L 271.957343 161.098684 
L 281.062238 87.509863 
L 290.167133 82.640428 
L 299.272028 141.246586 
L 308.376923 130.582694 
L 317.481818 71.905758 
L 326.586713 116.443973 
L 335.691608 151.497411 
L 344.796503 90.326498 
L 353.901399 82.800571 
L 363.006294 154.798655 
L 372.111189 110.42509 
L 381.216084 77.147873 
L 390.320979 122.840026 
L 399.425874 141.852385 
L 408.530769 82.048823 
L 417.635664 96.339968 
L 426.740559 148.211969 
L 435.845455 110.18057 
" style="fill:none;stroke:#1f77b4;stroke-linecap:square;stroke-opacity:0.3;stroke-width:1.5;"/>
   </g>
   <g id="line2d_32">
    <path clip-path="url(#pf748c05dbc)" d="M 80.754545 88.477331 
L 89.859441 162.948804 
L 98.964336 64.493819 
L 108.069231 118.751839 
L 117.174126 121.692134 
L 126.279021 75.586041 
L 135.383916 117.878234 
L 144.488811 107.035702 
L 153.593706 81.510138 
L 162.698601 122.801286 
L 171.803497 90.410401 
L 180.908392 100.368399 
L 190.013287 110.29281 
L 199.118182 94.464354 
L 208.223077 103.144297 
L 217.327972 108.058918 
L 226.432867 93.241367 
L 235.537762 110.365952 
L 244.642657 98.994697 
L 253.747552 102.15207 
L 262.852448 105.607796 
L 271.957343 101.076054 
L 281.062238 102.428144 
L 290.167133 106.678197 
L 299.272028 98.686899 
L 308.376923 107.337486 
L 317.481818 101.785199 
L 326.586713 103.337938 
L 335.691608 104.913565 
L 344.796503 103.330226 
L 353.901399 102.836664 
L 363.006294 106.435393 
L 372.111189 101.3129 
L 381.216084 106.091211 
L 390.320979 103.592327 
L 399.425874 103.957093 
L 408.530769 104.771139 
L 417.635664 104.69351 
L 426.740559 103.318614 
L 435.845455 106.186386 
" style="fill:none;stroke:#1f77b4;stroke-linecap:square;stroke-opacity:0.3;stroke-width:1.5;"/>
   </g>
   <g id="line2d_33">
    <path clip-path="url(#pf748c05dbc)" d="M 80.754545 36.796314 
L 89.859441 60.752625 
L 98.964336 166.49942 
L 108.069231 149.507956 
L 117.174126 40.708911 
L 126.279021 50.961128 
L 135.383916 148.589277 
L 144.488811 158.624441 
L 153.593706 60.971592 
L 162.698601 43.078074 
L 171.803497 140.363028 
L 180.908392 177.827044 
L 190.013287 78.402332 
L 199.118182 42.823107 
L 208.223077 137.555575 
L 217.327972 183.477362 
L 226.432867 93.546294 
L 235.537762 45.899782 
L 244.642657 119.364538 
L 253.747552 179.153565 
L 262.852448 107.920952 
L 271.957343 38.166636 
L 281.062238 96.145187 
L 290.167133 175.258337 
L 299.272028 114.070025 
L 308.376923 33.48 
L 317.481818 83.292275 
L 326.586713 167.537464 
L 335.691608 123.969345 
L 344.796503 44.736877 
L 353.901399 73.500511 
L 363.006294 162.202673 
L 372.111189 144.404467 
L 381.216084 57.854126 
L 390.320979 65.652362 
L 399.425874 161.636566 
L 408.530769 157.632005 
L 417.635664 67.108812 
L 426.740559 61.428084 
L 435.845455 150.618099 
" style="fill:none;stroke:#1f77b4;stroke-linecap:square;stroke-opacity:0.3;stroke-width:1.5;"/>
   </g>
   <g id="line2d_34">
    <path clip-path="url(#pf748c05dbc)" d="M 80.754545 159.534617 
L 89.859441 93.775032 
L 98.964336 104.188822 
L 108.069231 91.480838 
L 117.174126 151.002351 
L 126.279021 118.755998 
L 135.383916 119.888168 
L 144.488811 50.864928 
L 153.593706 76.23274 
L 162.698601 66.821028 
L 171.803497 117.431647 
L 180.908392 91.168872 
L 190.013287 89.505536 
L 199.118182 46.745471 
L 208.223077 65.362946 
L 217.327972 79.425053 
L 226.432867 110.281685 
L 235.537762 103.698175 
L 244.642657 87.836263 
L 253.747552 77.046286 
L 262.852448 81.690507 
L 271.957343 113.339686 
L 281.062238 123.130333 
L 290.167133 130.69792 
L 299.272028 101.416575 
L 308.376923 106.916299 
L 317.481818 102.870747 
L 326.586713 136.501686 
L 335.691608 131.877649 
L 344.796503 139.032827 
L 353.901399 107.877376 
L 363.006294 112.495808 
L 372.111189 108.503286 
L 381.216084 132.931234 
L 390.320979 126.021351 
L 399.425874 122.589601 
L 408.530769 100.50605 
L 417.635664 98.695231 
L 426.740559 101.685544 
L 435.845455 113.822528 
" style="fill:none;stroke:#1f77b4;stroke-linecap:square;stroke-opacity:0.3;stroke-width:1.5;"/>
   </g>
   <g id="patch_3">
    <path d="M 63 192.24 
L 63 25.92 
" style="fill:none;stroke:#000000;stroke-linecap:square;stroke-linejoin:miter;stroke-width:0.8;"/>
   </g>
   <g id="patch_4">
    <path d="M 453.6 192.24 
L 453.6 25.92 
" style="fill:none;stroke:#000000;stroke-linecap:square;stroke-linejoin:miter;stroke-width:0.8;"/>
   </g>
   <g id="patch_5">
    <path d="M 63 192.24 
L 453.6 192.24 
" style="fill:none;stroke:#000000;stroke-linecap:square;stroke-linejoin:miter;stroke-width:0.8;"/>
   </g>
   <g id="patch_6">
    <path d="M 63 25.92 
L 453.6 25.92 
" style="fill:none;stroke:#000000;stroke-linecap:square;stroke-linejoin:miter;stroke-width:0.8;"/>
   </g>
  </g>
 </g>
 <defs>
  <clipPath id="pf748c05dbc">
   <rect height="166.32" width="390.6" x="63" y="25.92"/>
  </clipPath>
 </defs>
</svg>
