<?xml version="1.0" encoding="utf-8" standalone="no"?>
<!DOCTYPE svg PUBLIC "-//W3C//DTD SVG 1.1//EN"
  "http://www.w3.org/Graphics/SVG/1.1/DTD/svg11.dtd">
<!-- Created with matplotlib (https://matplotlib.org/) -->
<svg height="216pt" version="1.1" viewBox="0 0 504 216" width="504pt" xmlns="http://www.w3.org/2000/svg" xmlns:xlink="http://www.w3.org/1999/xlink">
 <defs>
  <style type="text/css">
*{stroke-linecap:butt;stroke-linejoin:round;}
  </style>
 </defs>
 <g id="figure_1">
  <g id="patch_1">
   <path d="M 0 216 
L 504 216 
L 504 0 
L 0 0 
z
" style="fill:#ffffff;"/>
  </g>
  <g id="axes_1">
   <g id="patch_2">
    <path d="M 63 192.24 
L 453.6 192.24 
L 453.6 25.92 
L 63 25.92 
z
" style="fill:#ffffff;"/>
   </g>
   <g id="matplotlib.axis_1">
    <g id="xtick_1">
     <g id="line2d_1">
      <defs>
       <path d="M 0 0 
L 0 3.5 
" id="m6409e53dcd" style="stroke:#000000;stroke-width:0.8;"/>
      </defs>
      <g>
       <use style="stroke:#000000;stroke-width:0.8;" x="80.754545" xlink:href="#m6409e53dcd" y="192.24"/>
      </g>
     </g>
     <g id="text_1">
      <!-- 0 -->
      <defs>
       <path d="M 31.78125 66.40625 
Q 24.171875 66.40625 20.328125 58.90625 
Q 16.5 51.421875 16.5 36.375 
Q 16.5 21.390625 20.328125 13.890625 
Q 24.171875 6.390625 31.78125 6.390625 
Q 39.453125 6.390625 43.28125 13.890625 
Q 47.125 21.390625 47.125 36.375 
Q 47.125 51.421875 43.28125 58.90625 
Q 39.453125 66.40625 31.78125 66.40625 
z
M 31.78125 74.21875 
Q 44.046875 74.21875 50.515625 64.515625 
Q 56.984375 54.828125 56.984375 36.375 
Q 56.984375 17.96875 50.515625 8.265625 
Q 44.046875 -1.421875 31.78125 -1.421875 
Q 19.53125 -1.421875 13.0625 8.265625 
Q 6.59375 17.96875 6.59375 36.375 
Q 6.59375 54.828125 13.0625 64.515625 
Q 19.53125 74.21875 31.78125 74.21875 
z
" id="DejaVuSans-48"/>
      </defs>
      <g transform="translate(77.573295 206.838437)scale(0.1 -0.1)">
       <use xlink:href="#DejaVuSans-48"/>
      </g>
     </g>
    </g>
    <g id="xtick_2">
     <g id="line2d_2">
      <g>
       <use style="stroke:#000000;stroke-width:0.8;" x="126.279021" xlink:href="#m6409e53dcd" y="192.24"/>
      </g>
     </g>
     <g id="text_2">
      <!-- 5 -->
      <defs>
       <path d="M 10.796875 72.90625 
L 49.515625 72.90625 
L 49.515625 64.59375 
L 19.828125 64.59375 
L 19.828125 46.734375 
Q 21.96875 47.46875 24.109375 47.828125 
Q 26.265625 48.1875 28.421875 48.1875 
Q 40.625 48.1875 47.75 41.5 
Q 54.890625 34.8125 54.890625 23.390625 
Q 54.890625 11.625 47.5625 5.09375 
Q 40.234375 -1.421875 26.90625 -1.421875 
Q 22.3125 -1.421875 17.546875 -0.640625 
Q 12.796875 0.140625 7.71875 1.703125 
L 7.71875 11.625 
Q 12.109375 9.234375 16.796875 8.0625 
Q 21.484375 6.890625 26.703125 6.890625 
Q 35.15625 6.890625 40.078125 11.328125 
Q 45.015625 15.765625 45.015625 23.390625 
Q 45.015625 31 40.078125 35.4375 
Q 35.15625 39.890625 26.703125 39.890625 
Q 22.75 39.890625 18.8125 39.015625 
Q 14.890625 38.140625 10.796875 36.28125 
z
" id="DejaVuSans-53"/>
      </defs>
      <g transform="translate(123.097771 206.838437)scale(0.1 -0.1)">
       <use xlink:href="#DejaVuSans-53"/>
      </g>
     </g>
    </g>
    <g id="xtick_3">
     <g id="line2d_3">
      <g>
       <use style="stroke:#000000;stroke-width:0.8;" x="171.803497" xlink:href="#m6409e53dcd" y="192.24"/>
      </g>
     </g>
     <g id="text_3">
      <!-- 10 -->
      <defs>
       <path d="M 12.40625 8.296875 
L 28.515625 8.296875 
L 28.515625 63.921875 
L 10.984375 60.40625 
L 10.984375 69.390625 
L 28.421875 72.90625 
L 38.28125 72.90625 
L 38.28125 8.296875 
L 54.390625 8.296875 
L 54.390625 0 
L 12.40625 0 
z
" id="DejaVuSans-49"/>
      </defs>
      <g transform="translate(165.440997 206.838437)scale(0.1 -0.1)">
       <use xlink:href="#DejaVuSans-49"/>
       <use x="63.623047" xlink:href="#DejaVuSans-48"/>
      </g>
     </g>
    </g>
    <g id="xtick_4">
     <g id="line2d_4">
      <g>
       <use style="stroke:#000000;stroke-width:0.8;" x="217.327972" xlink:href="#m6409e53dcd" y="192.24"/>
      </g>
     </g>
     <g id="text_4">
      <!-- 15 -->
      <g transform="translate(210.965472 206.838437)scale(0.1 -0.1)">
       <use xlink:href="#DejaVuSans-49"/>
       <use x="63.623047" xlink:href="#DejaVuSans-53"/>
      </g>
     </g>
    </g>
    <g id="xtick_5">
     <g id="line2d_5">
      <g>
       <use style="stroke:#000000;stroke-width:0.8;" x="262.852448" xlink:href="#m6409e53dcd" y="192.24"/>
      </g>
     </g>
     <g id="text_5">
      <!-- 20 -->
      <defs>
       <path d="M 19.1875 8.296875 
L 53.609375 8.296875 
L 53.609375 0 
L 7.328125 0 
L 7.328125 8.296875 
Q 12.9375 14.109375 22.625 23.890625 
Q 32.328125 33.6875 34.8125 36.53125 
Q 39.546875 41.84375 41.421875 45.53125 
Q 43.3125 49.21875 43.3125 52.78125 
Q 43.3125 58.59375 39.234375 62.25 
Q 35.15625 65.921875 28.609375 65.921875 
Q 23.96875 65.921875 18.8125 64.3125 
Q 13.671875 62.703125 7.8125 59.421875 
L 7.8125 69.390625 
Q 13.765625 71.78125 18.9375 73 
Q 24.125 74.21875 28.421875 74.21875 
Q 39.75 74.21875 46.484375 68.546875 
Q 53.21875 62.890625 53.21875 53.421875 
Q 53.21875 48.921875 51.53125 44.890625 
Q 49.859375 40.875 45.40625 35.40625 
Q 44.1875 33.984375 37.640625 27.21875 
Q 31.109375 20.453125 19.1875 8.296875 
z
" id="DejaVuSans-50"/>
      </defs>
      <g transform="translate(256.489948 206.838437)scale(0.1 -0.1)">
       <use xlink:href="#DejaVuSans-50"/>
       <use x="63.623047" xlink:href="#DejaVuSans-48"/>
      </g>
     </g>
    </g>
    <g id="xtick_6">
     <g id="line2d_6">
      <g>
       <use style="stroke:#000000;stroke-width:0.8;" x="308.376923" xlink:href="#m6409e53dcd" y="192.24"/>
      </g>
     </g>
     <g id="text_6">
      <!-- 25 -->
      <g transform="translate(302.014423 206.838437)scale(0.1 -0.1)">
       <use xlink:href="#DejaVuSans-50"/>
       <use x="63.623047" xlink:href="#DejaVuSans-53"/>
      </g>
     </g>
    </g>
    <g id="xtick_7">
     <g id="line2d_7">
      <g>
       <use style="stroke:#000000;stroke-width:0.8;" x="353.901399" xlink:href="#m6409e53dcd" y="192.24"/>
      </g>
     </g>
     <g id="text_7">
      <!-- 30 -->
      <defs>
       <path d="M 40.578125 39.3125 
Q 47.65625 37.796875 51.625 33 
Q 55.609375 28.21875 55.609375 21.1875 
Q 55.609375 10.40625 48.1875 4.484375 
Q 40.765625 -1.421875 27.09375 -1.421875 
Q 22.515625 -1.421875 17.65625 -0.515625 
Q 12.796875 0.390625 7.625 2.203125 
L 7.625 11.71875 
Q 11.71875 9.328125 16.59375 8.109375 
Q 21.484375 6.890625 26.8125 6.890625 
Q 36.078125 6.890625 40.9375 10.546875 
Q 45.796875 14.203125 45.796875 21.1875 
Q 45.796875 27.640625 41.28125 31.265625 
Q 36.765625 34.90625 28.71875 34.90625 
L 20.21875 34.90625 
L 20.21875 43.015625 
L 29.109375 43.015625 
Q 36.375 43.015625 40.234375 45.921875 
Q 44.09375 48.828125 44.09375 54.296875 
Q 44.09375 59.90625 40.109375 62.90625 
Q 36.140625 65.921875 28.71875 65.921875 
Q 24.65625 65.921875 20.015625 65.03125 
Q 15.375 64.15625 9.8125 62.3125 
L 9.8125 71.09375 
Q 15.4375 72.65625 20.34375 73.4375 
Q 25.25 74.21875 29.59375 74.21875 
Q 40.828125 74.21875 47.359375 69.109375 
Q 53.90625 64.015625 53.90625 55.328125 
Q 53.90625 49.265625 50.4375 45.09375 
Q 46.96875 40.921875 40.578125 39.3125 
z
" id="DejaVuSans-51"/>
      </defs>
      <g transform="translate(347.538899 206.838437)scale(0.1 -0.1)">
       <use xlink:href="#DejaVuSans-51"/>
       <use x="63.623047" xlink:href="#DejaVuSans-48"/>
      </g>
     </g>
    </g>
    <g id="xtick_8">
     <g id="line2d_8">
      <g>
       <use style="stroke:#000000;stroke-width:0.8;" x="399.425874" xlink:href="#m6409e53dcd" y="192.24"/>
      </g>
     </g>
     <g id="text_8">
      <!-- 35 -->
      <g transform="translate(393.063374 206.838437)scale(0.1 -0.1)">
       <use xlink:href="#DejaVuSans-51"/>
       <use x="63.623047" xlink:href="#DejaVuSans-53"/>
      </g>
     </g>
    </g>
    <g id="xtick_9">
     <g id="line2d_9">
      <g>
       <use style="stroke:#000000;stroke-width:0.8;" x="444.95035" xlink:href="#m6409e53dcd" y="192.24"/>
      </g>
     </g>
     <g id="text_9">
      <!-- 40 -->
      <defs>
       <path d="M 37.796875 64.3125 
L 12.890625 25.390625 
L 37.796875 25.390625 
z
M 35.203125 72.90625 
L 47.609375 72.90625 
L 47.609375 25.390625 
L 58.015625 25.390625 
L 58.015625 17.1875 
L 47.609375 17.1875 
L 47.609375 0 
L 37.796875 0 
L 37.796875 17.1875 
L 4.890625 17.1875 
L 4.890625 26.703125 
z
" id="DejaVuSans-52"/>
      </defs>
      <g transform="translate(438.58785 206.838437)scale(0.1 -0.1)">
       <use xlink:href="#DejaVuSans-52"/>
       <use x="63.623047" xlink:href="#DejaVuSans-48"/>
      </g>
     </g>
    </g>
   </g>
   <g id="matplotlib.axis_2">
    <g id="ytick_1">
     <g id="line2d_10">
      <defs>
       <path d="M 0 0 
L -3.5 0 
" id="m9a5adf0145" style="stroke:#000000;stroke-width:0.8;"/>
      </defs>
      <g>
       <use style="stroke:#000000;stroke-width:0.8;" x="63" xlink:href="#m9a5adf0145" y="182.075988"/>
      </g>
     </g>
     <g id="text_10">
      <!-- −1.0 -->
      <defs>
       <path d="M 10.59375 35.5 
L 73.1875 35.5 
L 73.1875 27.203125 
L 10.59375 27.203125 
z
" id="DejaVuSans-8722"/>
       <path d="M 10.6875 12.40625 
L 21 12.40625 
L 21 0 
L 10.6875 0 
z
" id="DejaVuSans-46"/>
      </defs>
      <g transform="translate(31.717187 185.875207)scale(0.1 -0.1)">
       <use xlink:href="#DejaVuSans-8722"/>
       <use x="83.789062" xlink:href="#DejaVuSans-49"/>
       <use x="147.412109" xlink:href="#DejaVuSans-46"/>
       <use x="179.199219" xlink:href="#DejaVuSans-48"/>
      </g>
     </g>
    </g>
    <g id="ytick_2">
     <g id="line2d_11">
      <g>
       <use style="stroke:#000000;stroke-width:0.8;" x="63" xlink:href="#m9a5adf0145" y="150.04755"/>
      </g>
     </g>
     <g id="text_11">
      <!-- −0.5 -->
      <g transform="translate(31.717187 153.846769)scale(0.1 -0.1)">
       <use xlink:href="#DejaVuSans-8722"/>
       <use x="83.789062" xlink:href="#DejaVuSans-48"/>
       <use x="147.412109" xlink:href="#DejaVuSans-46"/>
       <use x="179.199219" xlink:href="#DejaVuSans-53"/>
      </g>
     </g>
    </g>
    <g id="ytick_3">
     <g id="line2d_12">
      <g>
       <use style="stroke:#000000;stroke-width:0.8;" x="63" xlink:href="#m9a5adf0145" y="118.019112"/>
      </g>
     </g>
     <g id="text_12">
      <!-- 0.0 -->
      <g transform="translate(40.096875 121.818331)scale(0.1 -0.1)">
       <use xlink:href="#DejaVuSans-48"/>
       <use x="63.623047" xlink:href="#DejaVuSans-46"/>
       <use x="95.410156" xlink:href="#DejaVuSans-48"/>
      </g>
     </g>
    </g>
    <g id="ytick_4">
     <g id="line2d_13">
      <g>
       <use style="stroke:#000000;stroke-width:0.8;" x="63" xlink:href="#m9a5adf0145" y="85.990674"/>
      </g>
     </g>
     <g id="text_13">
      <!-- 0.5 -->
      <g transform="translate(40.096875 89.789893)scale(0.1 -0.1)">
       <use xlink:href="#DejaVuSans-48"/>
       <use x="63.623047" xlink:href="#DejaVuSans-46"/>
       <use x="95.410156" xlink:href="#DejaVuSans-53"/>
      </g>
     </g>
    </g>
    <g id="ytick_5">
     <g id="line2d_14">
      <g>
       <use style="stroke:#000000;stroke-width:0.8;" x="63" xlink:href="#m9a5adf0145" y="53.962236"/>
      </g>
     </g>
     <g id="text_14">
      <!-- 1.0 -->
      <g transform="translate(40.096875 57.761455)scale(0.1 -0.1)">
       <use xlink:href="#DejaVuSans-49"/>
       <use x="63.623047" xlink:href="#DejaVuSans-46"/>
       <use x="95.410156" xlink:href="#DejaVuSans-48"/>
      </g>
     </g>
    </g>
   </g>
   <g id="line2d_15">
    <path clip-path="url(#p635897690b)" d="M 80.754545 116.413834 
L 89.859441 119.108974 
L 98.964336 117.358419 
L 108.069231 109.049091 
L 117.174126 94.374392 
L 126.279021 75.778184 
L 135.383916 57.26392 
L 144.488811 43.286154 
L 153.593706 37.543697 
L 162.698601 42.004514 
L 171.803497 56.41338 
L 180.908392 78.391543 
L 190.013287 104.073833 
L 199.118182 129.088656 
L 208.223077 149.606172 
L 217.327972 163.177616 
L 226.432867 169.160704 
L 235.537762 168.64876 
L 244.642657 163.958041 
L 253.747552 157.842897 
L 262.852448 152.669557 
L 271.957343 149.776378 
L 281.062238 149.182648 
L 290.167133 149.703483 
L 299.272028 149.413799 
L 308.376923 146.311985 
L 317.481818 138.987168 
L 326.586713 127.103184 
L 335.691608 111.571485 
L 344.796503 94.376103 
L 353.901399 78.109718 
L 363.006294 65.354855 
L 372.111189 58.07965 
L 381.216084 57.205095 
L 390.320979 62.447825 
L 399.425874 72.463615 
L 408.530769 85.236774 
L 417.635664 98.598963 
L 426.740559 110.734392 
L 435.845455 120.541565 
" style="fill:none;stroke:#1f77b4;stroke-linecap:square;stroke-opacity:0.2;stroke-width:1.5;"/>
   </g>
   <g id="line2d_16">
    <path clip-path="url(#p635897690b)" d="M 80.754545 114.364156 
L 89.859441 105.093931 
L 98.964336 99.285858 
L 108.069231 96.171509 
L 117.174126 94.729814 
L 126.279021 94.231332 
L 135.383916 94.567681 
L 144.488811 96.265287 
L 153.593706 100.193772 
L 162.698601 107.083107 
L 171.803497 117.027787 
L 180.908392 129.162846 
L 190.013287 141.643961 
L 199.118182 151.969442 
L 208.223077 157.57376 
L 217.327972 156.533217 
L 226.432867 148.181471 
L 235.537762 133.447704 
L 244.642657 114.800937 
L 253.747552 95.789492 
L 262.852448 80.275784 
L 271.957343 71.552356 
L 281.062238 71.561416 
L 290.167133 80.417286 
L 299.272028 96.354899 
L 308.376923 116.119428 
L 317.481818 135.70044 
L 326.586713 151.228943 
L 335.691608 159.818815 
L 344.796503 160.153703 
L 353.901399 152.690335 
L 363.006294 139.44849 
L 372.111189 123.461084 
L 381.216084 108.036712 
L 390.320979 96.023296 
L 399.425874 89.247501 
L 408.530769 88.247477 
L 417.635664 92.332976 
L 426.740559 99.921556 
L 435.845455 109.034671 
" style="fill:none;stroke:#1f77b4;stroke-linecap:square;stroke-opacity:0.2;stroke-width:1.5;"/>
   </g>
   <g id="line2d_17">
    <path clip-path="url(#p635897690b)" d="M 80.754545 115.554878 
L 89.859441 119.106442 
L 98.964336 120.611196 
L 108.069231 118.271354 
L 117.174126 111.264444 
L 126.279021 99.883484 
L 135.383916 85.446341 
L 144.488811 70.004045 
L 153.593706 55.91578 
L 162.698601 45.380971 
L 171.803497 40.022316 
L 180.908392 40.598702 
L 190.013287 46.897286 
L 199.118182 57.81645 
L 208.223077 71.613246 
L 217.327972 86.258481 
L 226.432867 99.824611 
L 235.537762 110.829332 
L 244.642657 118.470839 
L 253.747552 122.715378 
L 262.852448 124.228886 
L 271.957343 124.175452 
L 281.062238 123.93022 
L 290.167133 124.768349 
L 299.272028 127.593012 
L 308.376923 132.754113 
L 317.481818 139.98886 
L 326.586713 148.489436 
L 335.691608 157.078008 
L 344.796503 164.448975 
L 353.901399 169.427451 
L 363.006294 171.192431 
L 372.111189 169.422774 
L 381.216084 164.341289 
L 390.320979 156.653689 
L 399.425874 147.399638 
L 408.530769 137.749491 
L 417.635664 128.788863 
L 426.740559 121.33347 
L 435.845455 115.80813 
" style="fill:none;stroke:#1f77b4;stroke-linecap:square;stroke-opacity:0.2;stroke-width:1.5;"/>
   </g>
   <g id="line2d_18">
    <path clip-path="url(#p635897690b)" d="M 80.754545 120.595023 
L 89.859441 124.658046 
L 98.964336 125.809085 
L 108.069231 122.263514 
L 117.174126 113.547666 
L 126.279021 100.562248 
L 135.383916 85.313937 
L 144.488811 70.39593 
L 153.593706 58.353579 
L 162.698601 51.091539 
L 171.803497 49.460711 
L 180.908392 53.113743 
L 190.013287 60.649368 
L 199.118182 69.996447 
L 208.223077 78.934375 
L 217.327972 85.619423 
L 226.432867 88.992193 
L 235.537762 88.975932 
L 244.642657 86.429878 
L 253.747552 82.881633 
L 262.852448 80.113886 
L 271.957343 79.711352 
L 281.062238 82.677655 
L 290.167133 89.209732 
L 299.272028 98.675307 
L 308.376923 109.788421 
L 317.481818 120.931431 
L 326.586713 130.53964 
L 335.691608 137.45437 
L 344.796503 141.162523 
L 353.901399 141.871954 
L 363.006294 140.413403 
L 372.111189 138.001456 
L 381.216084 135.918565 
L 390.320979 135.201171 
L 399.425874 136.402242 
L 408.530769 139.48261 
L 417.635664 143.850082 
L 426.740559 148.529332 
L 435.845455 152.415444 
" style="fill:none;stroke:#1f77b4;stroke-linecap:square;stroke-opacity:0.2;stroke-width:1.5;"/>
   </g>
   <g id="line2d_19">
    <path clip-path="url(#p635897690b)" d="M 80.754545 116.176051 
L 89.859441 108.626715 
L 98.964336 100.666003 
L 108.069231 91.73064 
L 117.174126 82.316567 
L 126.279021 73.96095 
L 135.383916 68.835359 
L 144.488811 69.082038 
L 153.593706 76.098041 
L 162.698601 89.98304 
L 171.803497 109.31625 
L 180.908392 131.33285 
L 190.013287 152.458966 
L 199.118182 169.068307 
L 208.223077 178.267309 
L 217.327972 178.51364 
L 226.432867 169.921371 
L 235.537762 154.190767 
L 244.642657 134.19669 
L 253.747552 113.350869 
L 262.852448 94.900821 
L 271.957343 81.330389 
L 281.062238 73.988391 
L 290.167133 73.003935 
L 299.272028 77.471433 
L 308.376923 85.823958 
L 317.481818 96.277258 
L 326.586713 107.224606 
L 335.691608 117.492545 
L 344.796503 126.417851 
L 353.901399 133.761327 
L 363.006294 139.518554 
L 372.111189 143.709934 
L 381.216084 146.228468 
L 390.320979 146.796378 
L 399.425874 145.04161 
L 408.530769 140.663892 
L 417.635664 133.630683 
L 426.740559 124.332948 
L 435.845455 113.642085 
" style="fill:none;stroke:#1f77b4;stroke-linecap:square;stroke-opacity:0.2;stroke-width:1.5;"/>
   </g>
   <g id="line2d_20">
    <path clip-path="url(#p635897690b)" d="M 80.754545 117.758961 
L 89.859441 118.834856 
L 98.964336 116.530121 
L 108.069231 109.345987 
L 117.174126 97.376904 
L 126.279021 82.232542 
L 135.383916 66.581034 
L 144.488811 53.454102 
L 153.593706 45.50166 
L 162.698601 44.380853 
L 171.803497 50.417371 
L 180.908392 62.599762 
L 190.013287 78.882285 
L 199.118182 96.699693 
L 208.223077 113.554153 
L 217.327972 127.529334 
L 226.432867 137.616557 
L 235.537762 143.793412 
L 244.642657 146.860161 
L 253.747552 148.097559 
L 262.852448 148.847233 
L 271.957343 150.125653 
L 281.062238 152.364721 
L 290.167133 155.332612 
L 299.272028 158.239509 
L 308.376923 159.987009 
L 317.481818 159.487462 
L 326.586713 155.968453 
L 335.691608 149.1874 
L 344.796503 139.509276 
L 353.901399 127.837023 
L 363.006294 115.420888 
L 372.111189 103.600002 
L 381.216084 93.541505 
L 390.320979 86.038005 
L 399.425874 81.404941 
L 408.530769 79.492343 
L 417.635664 79.796656 
L 426.740559 81.63597 
L 435.845455 84.340039 
" style="fill:none;stroke:#1f77b4;stroke-linecap:square;stroke-opacity:0.2;stroke-width:1.5;"/>
   </g>
   <g id="line2d_21">
    <path clip-path="url(#p635897690b)" d="M 80.754545 114.4576 
L 89.859441 121.494519 
L 98.964336 121.766916 
L 108.069231 111.085124 
L 117.174126 90.404204 
L 126.279021 65.469665 
L 135.383916 44.537425 
L 144.488811 35.123809 
L 153.593706 41.091601 
L 162.698601 61.203846 
L 171.803497 89.665236 
L 180.908392 118.376612 
L 190.013287 139.96951 
L 199.118182 150.41763 
L 208.223077 150.232521 
L 217.327972 143.841984 
L 226.432867 137.475816 
L 235.537762 136.455648 
L 244.642657 142.984297 
L 253.747552 155.292128 
L 262.852448 168.431102 
L 271.957343 176.347242 
L 281.062238 174.370336 
L 290.167133 161.123749 
L 299.272028 139.1172 
L 308.376923 113.825961 
L 317.481818 91.658728 
L 326.586713 77.636902 
L 335.691608 73.691668 
L 344.796503 78.21131 
L 353.901399 86.960144 
L 363.006294 94.950339 
L 372.111189 98.492526 
L 381.216084 96.611665 
L 390.320979 91.296159 
L 399.425874 86.527906 
L 408.530769 86.523672 
L 417.635664 93.914347 
L 426.740559 108.588737 
L 435.845455 127.642981 
" style="fill:none;stroke:#1f77b4;stroke-linecap:square;stroke-opacity:0.2;stroke-width:1.5;"/>
   </g>
   <g id="line2d_22">
    <path clip-path="url(#p635897690b)" d="M 80.754545 118.40093 
L 89.859441 119.977533 
L 98.964336 119.948668 
L 108.069231 117.009707 
L 117.174126 110.469495 
L 126.279021 100.376972 
L 135.383916 87.523144 
L 144.488811 73.32131 
L 153.593706 59.587344 
L 162.698601 48.256487 
L 171.803497 41.082323 
L 180.908392 39.364917 
L 190.013287 43.749242 
L 199.118182 54.123463 
L 208.223077 69.630201 
L 217.327972 88.786507 
L 226.432867 109.691965 
L 235.537762 130.291432 
L 244.642657 148.651789 
L 253.747552 163.211395 
L 262.852448 172.966326 
L 271.957343 177.568347 
L 281.062238 177.32379 
L 290.167133 173.097973 
L 299.272028 166.143732 
L 308.376923 157.883552 
L 317.481818 149.680664 
L 326.586713 142.634464 
L 335.691608 137.430808 
L 344.796503 134.267544 
L 353.901399 132.863651 
L 363.006294 132.546663 
L 372.111189 132.401253 
L 381.216084 131.452902 
L 390.320979 128.855913 
L 399.425874 124.0555 
L 408.530769 116.89861 
L 417.635664 107.676977 
L 426.740559 97.09695 
L 435.845455 86.182264 
" style="fill:none;stroke:#1f77b4;stroke-linecap:square;stroke-opacity:0.2;stroke-width:1.5;"/>
   </g>
   <g id="line2d_23">
    <path clip-path="url(#p635897690b)" d="M 80.754545 115.958937 
L 89.859441 115.354967 
L 98.964336 111.55731 
L 108.069231 102.028029 
L 117.174126 86.986235 
L 126.279021 69.426563 
L 135.383916 54.149067 
L 144.488811 46.14946 
L 153.593706 48.920521 
L 162.698601 63.230002 
L 171.803497 86.769522 
L 180.908392 114.77448 
L 190.013287 141.397816 
L 199.118182 161.383745 
L 208.223077 171.506106 
L 217.327972 171.32989 
L 226.432867 163.087762 
L 235.537762 150.754282 
L 244.642657 138.653595 
L 253.747552 130.070212 
L 262.852448 126.309174 
L 271.957343 126.484684 
L 281.062238 128.065685 
L 290.167133 127.957343 
L 299.272028 123.730562 
L 308.376923 114.578445 
L 317.481818 101.684823 
L 326.586713 87.895614 
L 335.691608 76.817991 
L 344.796503 71.657548 
L 353.901399 74.181174 
L 363.006294 84.141479 
L 372.111189 99.339305 
L 381.216084 116.28905 
L 390.320979 131.258649 
L 399.425874 141.343485 
L 408.530769 145.23522 
L 417.635664 143.457629 
L 426.740559 138.021638 
L 435.845455 131.640441 
" style="fill:none;stroke:#1f77b4;stroke-linecap:square;stroke-opacity:0.2;stroke-width:1.5;"/>
   </g>
   <g id="line2d_24">
    <path clip-path="url(#p635897690b)" d="M 80.754545 115.108426 
L 89.859441 122.33568 
L 98.964336 124.049848 
L 108.069231 116.620533 
L 117.174126 100.097545 
L 126.279021 78.157868 
L 135.383916 56.790935 
L 144.488811 42.209499 
L 153.593706 38.724151 
L 162.698601 47.310273 
L 171.803497 65.338289 
L 180.908392 87.526275 
L 190.013287 107.755353 
L 199.118182 121.10428 
L 208.223077 125.404849 
L 217.327972 121.804701 
L 226.432867 114.179153 
L 235.537762 107.631666 
L 244.642657 106.626515 
L 253.747552 113.405952 
L 262.852448 127.226602 
L 271.957343 144.652747 
L 281.062238 160.775337 
L 290.167133 170.912229 
L 299.272028 172.193885 
L 308.376923 164.495303 
L 317.481818 150.414613 
L 326.586713 134.333145 
L 335.691608 120.904554 
L 344.796503 113.504727 
L 353.901399 113.171356 
L 363.006294 118.378379 
L 372.111189 125.694684 
L 381.216084 131.072687 
L 390.320979 131.305084 
L 399.425874 125.144868 
L 408.530769 113.714487 
L 417.635664 100.084781 
L 426.740559 88.192098 
L 435.845455 81.483449 
" style="fill:none;stroke:#1f77b4;stroke-linecap:square;stroke-opacity:0.2;stroke-width:1.5;"/>
   </g>
   <g id="line2d_25">
    <path clip-path="url(#p635897690b)" d="M 80.754545 117.821386 
L 89.859441 123.531062 
L 98.964336 123.215178 
L 108.069231 113.5533 
L 117.174126 95.025873 
L 126.279021 71.718675 
L 135.383916 49.874653 
L 144.488811 35.74156 
L 153.593706 33.48 
L 162.698601 43.84122 
L 171.803497 64.029517 
L 180.908392 88.742629 
L 190.013287 111.983798 
L 199.118182 128.997127 
L 208.223077 137.668095 
L 217.327972 138.945602 
L 226.432867 136.197278 
L 235.537762 133.777474 
L 244.642657 135.342051 
L 253.747552 142.503773 
L 262.852448 154.276437 
L 271.957343 167.46408 
L 281.062238 177.819981 
L 290.167133 181.544606 
L 299.272028 176.594772 
L 308.376923 163.364214 
L 317.481818 144.529631 
L 326.586713 124.149302 
L 335.691608 106.350886 
L 344.796503 94.06846 
L 353.901399 88.249476 
L 363.006294 87.772125 
L 372.111189 90.060278 
L 381.216084 92.146592 
L 390.320979 91.794637 
L 399.425874 88.290618 
L 408.530769 82.648069 
L 417.635664 77.182725 
L 426.740559 74.63325 
L 435.845455 77.151287 
" style="fill:none;stroke:#1f77b4;stroke-linecap:square;stroke-opacity:0.2;stroke-width:1.5;"/>
   </g>
   <g id="line2d_26">
    <path clip-path="url(#p635897690b)" d="M 80.754545 118.100249 
L 89.859441 117.899565 
L 98.964336 114.748918 
L 108.069231 107.17829 
L 117.174126 95.163013 
L 126.279021 80.127902 
L 135.383916 64.592742 
L 144.488811 51.560866 
L 153.593706 43.807094 
L 162.698601 43.23629 
L 171.803497 50.45808 
L 180.908392 64.665679 
L 190.013287 83.831737 
L 199.118182 105.160709 
L 208.223077 125.682219 
L 217.327972 142.844434 
L 226.432867 154.975269 
L 235.537762 161.517569 
L 244.642657 163.002252 
L 253.747552 160.785333 
L 262.852448 156.627375 
L 271.957343 152.224417 
L 281.062238 148.803056 
L 290.167133 146.869642 
L 299.272028 146.161369 
L 308.376923 145.7964 
L 317.481818 144.573493 
L 326.586713 141.339411 
L 335.691608 135.331145 
L 344.796503 126.411276 
L 353.901399 115.144453 
L 363.006294 102.703026 
L 372.111189 90.630494 
L 381.216084 80.523032 
L 390.320979 73.705215 
L 399.425874 70.973556 
L 408.530769 72.461946 
L 417.635664 77.652277 
L 426.740559 85.519534 
L 435.845455 94.770672 
" style="fill:none;stroke:#1f77b4;stroke-linecap:square;stroke-opacity:0.2;stroke-width:1.5;"/>
   </g>
   <g id="line2d_27">
    <path clip-path="url(#p635897690b)" d="M 80.754545 116.055351 
L 89.859441 121.149882 
L 98.964336 120.872952 
L 108.069231 111.686571 
L 117.174126 93.777326 
L 126.279021 71.011692 
L 135.383916 49.581195 
L 144.488811 35.846955 
L 153.593706 34.155007 
L 162.698601 45.379741 
L 171.803497 66.677353 
L 180.908392 92.497608 
L 190.013287 116.467082 
L 199.118182 133.469745 
L 208.223077 141.20646 
L 217.327972 140.720341 
L 226.432867 135.750314 
L 235.537762 131.185035 
L 244.642657 131.190598 
L 253.747552 137.677552 
L 262.852448 149.631138 
L 271.957343 163.510355 
L 281.062238 174.542726 
L 290.167133 178.435721 
L 299.272028 172.896382 
L 308.376923 158.436045 
L 317.481818 138.201266 
L 326.586713 116.916727 
L 335.691608 99.329609 
L 344.796503 88.70387 
L 353.901399 85.876834 
L 363.006294 89.178693 
L 372.111189 95.207348 
L 381.216084 100.156194 
L 390.320979 101.212478 
L 399.425874 97.537389 
L 408.530769 90.501729 
L 417.635664 83.12134 
L 426.740559 78.916637 
L 435.845455 80.613475 
" style="fill:none;stroke:#1f77b4;stroke-linecap:square;stroke-opacity:0.2;stroke-width:1.5;"/>
   </g>
   <g id="line2d_28">
    <path clip-path="url(#p635897690b)" d="M 80.754545 123.536137 
L 89.859441 130.098169 
L 98.964336 132.328455 
L 108.069231 128.558036 
L 117.174126 118.535718 
L 126.279021 103.442642 
L 135.383916 85.599038 
L 144.488811 67.938551 
L 153.593706 53.371846 
L 162.698601 44.179678 
L 171.803497 41.56338 
L 180.908392 45.441716 
L 190.013287 54.526825 
L 199.118182 66.651111 
L 208.223077 79.264625 
L 217.327972 89.989758 
L 226.432867 97.112738 
L 235.537762 99.909815 
L 244.642657 98.746152 
L 253.747552 94.93614 
L 262.852448 90.405458 
L 271.957343 87.23576 
L 281.062238 87.194353 
L 290.167133 91.350196 
L 299.272028 99.85468 
L 308.376923 111.927354 
L 317.481818 126.041132 
L 326.586713 140.259398 
L 335.691608 152.646965 
L 344.796503 161.664447 
L 353.901399 166.462978 
L 363.006294 167.020938 
L 372.111189 164.100586 
L 381.216084 159.041666 
L 390.320979 153.443166 
L 399.425874 148.805885 
L 408.530769 146.213866 
L 417.635664 146.120781 
L 426.740559 148.282467 
L 435.845455 151.843548 
" style="fill:none;stroke:#1f77b4;stroke-linecap:square;stroke-opacity:0.2;stroke-width:1.5;"/>
   </g>
   <g id="line2d_29">
    <path clip-path="url(#p635897690b)" d="M 80.754545 119.312434 
L 89.859441 113.340708 
L 98.964336 106.435236 
L 108.069231 98.367652 
L 117.174126 89.496398 
L 126.279021 80.771318 
L 135.383916 73.584895 
L 144.488811 69.501096 
L 153.593706 69.918329 
L 162.698601 75.736773 
L 171.803497 87.099695 
L 180.908392 103.264326 
L 190.013287 122.632785 
L 199.118182 142.943231 
L 208.223077 161.591052 
L 217.327972 176.02553 
L 226.432867 184.153501 
L 235.537762 184.68 
L 244.642657 177.327452 
L 253.747552 162.89601 
L 262.852448 143.155792 
L 271.957343 120.590059 
L 281.062238 98.033111 
L 290.167133 78.262839 
L 299.272028 63.613571 
L 308.376923 55.668761 
L 317.481818 55.07766 
L 326.586713 61.517861 
L 335.691608 73.800755 
L 344.796503 90.094335 
L 353.901399 108.220612 
L 363.006294 125.976208 
L 372.111189 141.425139 
L 381.216084 153.121821 
L 390.320979 160.237598 
L 399.425874 162.582659 
L 408.530769 160.533182 
L 417.635664 154.88845 
L 426.740559 146.691157 
L 435.845455 137.046438 
" style="fill:none;stroke:#1f77b4;stroke-linecap:square;stroke-opacity:0.2;stroke-width:1.5;"/>
   </g>
   <g id="line2d_30">
    <path clip-path="url(#p635897690b)" d="M 80.754545 118.86062 
L 89.859441 120.296259 
L 98.964336 119.564247 
L 108.069231 115.248478 
L 117.174126 106.947196 
L 126.279021 95.337747 
L 135.383916 82.009287 
L 144.488811 69.108066 
L 153.593706 58.876394 
L 162.698601 53.184454 
L 171.803497 53.151084 
L 180.908392 58.927674 
L 190.013287 69.682642 
L 199.118182 83.781789 
L 208.223077 99.120221 
L 217.327972 113.532971 
L 226.432867 125.198563 
L 235.537762 132.955272 
L 244.642657 136.470985 
L 253.747552 136.239955 
L 262.852448 133.415829 
L 271.957343 129.523105 
L 281.062238 126.111515 
L 290.167133 124.426464 
L 299.272028 125.161657 
L 308.376923 128.340301 
L 317.481818 133.342733 
L 326.586713 139.067812 
L 335.691608 144.188581 
L 344.796503 147.445375 
L 353.901399 147.914534 
L 363.006294 145.198543 
L 372.111189 139.501972 
L 381.216084 131.582304 
L 390.320979 122.590732 
L 399.425874 113.839696 
L 408.530769 106.547126 
L 417.635664 101.609901 
L 426.740559 99.450767 
L 435.845455 99.96609 
" style="fill:none;stroke:#1f77b4;stroke-linecap:square;stroke-opacity:0.2;stroke-width:1.5;"/>
   </g>
   <g id="line2d_31">
    <path clip-path="url(#p635897690b)" d="M 80.754545 118.846246 
L 89.859441 127.607023 
L 98.964336 130.050081 
L 108.069231 123.792163 
L 117.174126 109.193489 
L 126.279021 89.147265 
L 135.383916 68.148015 
L 144.488811 50.942152 
L 153.593706 41.169406 
L 162.698601 40.386019 
L 171.803497 47.731561 
L 180.908392 60.3029 
L 190.013287 74.092647 
L 199.118182 85.194084 
L 208.223077 90.912918 
L 217.327972 90.470803 
L 226.432867 85.119097 
L 235.537762 77.659669 
L 244.642657 71.540535 
L 253.747552 69.808024 
L 262.852448 74.224433 
L 271.957343 84.797232 
L 281.062238 99.835189 
L 290.167133 116.489643 
L 299.272028 131.601477 
L 308.376923 142.595631 
L 317.481818 148.163944 
L 326.586713 148.550927 
L 335.691608 145.380528 
L 344.796503 141.096978 
L 353.901399 138.200065 
L 363.006294 138.505382 
L 372.111189 142.64128 
L 381.216084 149.915649 
L 390.320979 158.572522 
L 399.425874 166.345438 
L 408.530769 171.133545 
L 417.635664 171.599909 
L 426.740559 167.52368 
L 435.845455 159.816944 
" style="fill:none;stroke:#1f77b4;stroke-linecap:square;stroke-opacity:0.2;stroke-width:1.5;"/>
   </g>
   <g id="line2d_32">
    <path clip-path="url(#p635897690b)" d="M 80.754545 118.713758 
L 89.859441 122.655498 
L 98.964336 124.203436 
L 108.069231 121.322086 
L 117.174126 113.48328 
L 126.279021 101.72704 
L 135.383916 88.3341 
L 144.488811 76.20783 
L 153.593706 68.12723 
L 162.698601 66.055822 
L 171.803497 70.669285 
L 180.908392 81.205664 
L 190.013287 95.660929 
L 199.118182 111.270055 
L 208.223077 125.148927 
L 217.327972 134.9399 
L 226.432867 139.309811 
L 235.537762 138.190541 
L 244.642657 132.717507 
L 253.747552 124.894326 
L 262.852448 117.074722 
L 271.957343 111.391463 
L 281.062238 109.26834 
L 290.167133 111.125404 
L 299.272028 116.337058 
L 308.376923 123.440317 
L 317.481818 130.531903 
L 326.586713 135.751241 
L 335.691608 137.731074 
L 344.796503 135.910511 
L 353.901399 130.642747 
L 363.006294 123.081153 
L 372.111189 114.880491 
L 381.216084 107.791954 
L 390.320979 103.252148 
L 399.425874 102.063084 
L 408.530769 104.234399 
L 417.635664 109.017687 
L 426.740559 115.116212 
L 435.845455 121.012877 
" style="fill:none;stroke:#1f77b4;stroke-linecap:square;stroke-opacity:0.2;stroke-width:1.5;"/>
   </g>
   <g id="line2d_33">
    <path clip-path="url(#p635897690b)" d="M 80.754545 119.065484 
L 89.859441 115.411777 
L 98.964336 109.993595 
L 108.069231 102.271105 
L 117.174126 92.479508 
L 126.279021 81.608461 
L 135.383916 71.216723 
L 144.488811 63.125577 
L 153.593706 59.055924 
L 162.698601 60.281285 
L 171.803497 67.362875 
L 180.908392 80.013966 
L 190.013287 97.115315 
L 199.118182 116.874157 
L 208.223077 137.094221 
L 217.327972 155.505815 
L 226.432867 170.097251 
L 235.537762 179.392052 
L 244.642657 182.629206 
L 253.747552 179.82324 
L 262.852448 171.703089 
L 271.957343 159.549487 
L 281.062238 144.966184 
L 290.167133 129.628388 
L 299.272028 115.051752 
L 308.376923 102.417125 
L 317.481818 92.473227 
L 326.586713 85.523088 
L 335.691608 81.484606 
L 344.796503 80.003497 
L 353.901399 80.589646 
L 363.006294 82.747236 
L 372.111189 86.073611 
L 381.216084 90.311098 
L 390.320979 95.347252 
L 399.425874 101.170156 
L 408.530769 107.79434 
L 417.635664 115.177963 
L 426.740559 123.15243 
L 435.845455 131.381982 
" style="fill:none;stroke:#1f77b4;stroke-linecap:square;stroke-opacity:0.2;stroke-width:1.5;"/>
   </g>
   <g id="line2d_34">
    <path clip-path="url(#p635897690b)" d="M 80.754545 120.034316 
L 89.859441 115.664237 
L 98.964336 110.66318 
L 108.069231 104.324087 
L 117.174126 96.553596 
L 126.279021 87.96882 
L 135.383916 79.81055 
L 144.488811 73.694585 
L 153.593706 71.257103 
L 162.698601 73.771749 
L 171.803497 81.821124 
L 180.908392 95.093445 
L 190.013287 112.349056 
L 199.118182 131.567135 
L 208.223077 150.247171 
L 217.327972 165.809817 
L 226.432867 176.022915 
L 235.537762 179.374699 
L 244.642657 175.326969 
L 253.747552 164.404345 
L 262.852448 148.106475 
L 271.957343 128.662389 
L 281.062238 108.673479 
L 290.167133 90.709763 
L 299.272028 76.92949 
L 308.376923 68.784483 
L 317.481818 66.855535 
L 326.586713 70.836735 
L 335.691608 79.6604 
L 344.796503 91.730514 
L 353.901399 105.21604 
L 363.006294 118.34879 
L 372.111189 129.674987 
L 381.216084 138.222212 
L 390.320979 143.562825 
L 399.425874 145.775691 
L 408.530769 145.326707 
L 417.635664 142.901795 
L 426.740559 139.231426 
L 435.845455 134.942981 
" style="fill:none;stroke:#1f77b4;stroke-linecap:square;stroke-opacity:0.2;stroke-width:1.5;"/>
   </g>
   <g id="patch_3">
    <path d="M 63 192.24 
L 63 25.92 
" style="fill:none;stroke:#000000;stroke-linecap:square;stroke-linejoin:miter;stroke-width:0.8;"/>
   </g>
   <g id="patch_4">
    <path d="M 453.6 192.24 
L 453.6 25.92 
" style="fill:none;stroke:#000000;stroke-linecap:square;stroke-linejoin:miter;stroke-width:0.8;"/>
   </g>
   <g id="patch_5">
    <path d="M 63 192.24 
L 453.6 192.24 
" style="fill:none;stroke:#000000;stroke-linecap:square;stroke-linejoin:miter;stroke-width:0.8;"/>
   </g>
   <g id="patch_6">
    <path d="M 63 25.92 
L 453.6 25.92 
" style="fill:none;stroke:#000000;stroke-linecap:square;stroke-linejoin:miter;stroke-width:0.8;"/>
   </g>
  </g>
 </g>
 <defs>
  <clipPath id="p635897690b">
   <rect height="166.32" width="390.6" x="63" y="25.92"/>
  </clipPath>
 </defs>
</svg>
