<?xml version="1.0" encoding="utf-8" standalone="no"?>
<!DOCTYPE svg PUBLIC "-//W3C//DTD SVG 1.1//EN"
  "http://www.w3.org/Graphics/SVG/1.1/DTD/svg11.dtd">
<!-- Created with matplotlib (https://matplotlib.org/) -->
<svg height="288pt" version="1.1" viewBox="0 0 432 288" width="432pt" xmlns="http://www.w3.org/2000/svg" xmlns:xlink="http://www.w3.org/1999/xlink">
 <defs>
  <style type="text/css">
*{stroke-linecap:butt;stroke-linejoin:round;}
  </style>
 </defs>
 <g id="figure_1">
  <g id="patch_1">
   <path d="M 0 288 
L 432 288 
L 432 0 
L 0 0 
z
" style="fill:#ffffff;"/>
  </g>
  <g id="axes_1">
   <g id="line2d_1">
    <path clip-path="url(#p1b0e37e202)" d="M 69.218182 89.557272 
L 73.022727 92.042885 
L 76.827273 92.091047 
L 80.631818 90.058145 
L 84.436364 86.520521 
L 88.240909 84.40555 
L 92.045455 85.338628 
L 95.85 89.565738 
L 99.654545 96.12062 
L 103.459091 102.863571 
L 107.263636 109.806467 
L 111.068182 117.83456 
L 114.872727 127.13042 
L 118.677273 136.51082 
L 122.481818 143.311606 
L 126.286364 147.274731 
L 130.090909 149.497364 
L 133.895455 150.50561 
L 137.7 150.569647 
L 141.504545 149.294355 
L 145.309091 144.989605 
L 149.113636 135.899779 
L 152.918182 121.800032 
L 156.722727 104.683277 
L 160.527273 86.3865 
L 164.331818 68.383083 
L 168.136364 54.366785 
L 171.940909 46.81317 
L 175.745455 44.64 
L 179.55 45.382084 
L 183.354545 48.188763 
L 187.159091 52.624487 
L 190.963636 56.789183 
L 194.768182 59.056934 
L 198.572727 59.065689 
L 202.377273 56.219638 
L 206.181818 51.083191 
L 209.986364 47.227421 
L 213.790909 49.139407 
L 217.595455 56.640741 
L 221.4 65.160584 
L 225.204545 71.487857 
L 229.009091 75.177009 
L 232.813636 76.087216 
L 236.618182 75.508939 
L 240.422727 75.790913 
L 244.227273 77.432978 
L 248.031818 80.679604 
L 251.836364 85.441533 
L 255.640909 90.731763 
L 259.445455 94.616262 
L 263.25 96.061118 
L 267.054545 97.382802 
L 270.859091 99.469456 
L 274.663636 100.497973 
L 278.468182 99.046796 
L 282.272727 94.278793 
L 286.077273 87.711684 
L 289.881818 82.940677 
L 293.686364 82.798332 
L 297.490909 88.426345 
L 301.295455 97.94927 
L 305.1 108.420297 
L 308.904545 118.6765 
L 312.709091 127.579088 
L 316.513636 133.784353 
L 320.318182 136.850277 
L 324.122727 137.50463 
L 327.927273 136.748536 
L 331.731818 135.015044 
L 335.536364 131.926416 
L 339.340909 127.17371 
L 343.145455 121.493669 
L 346.95 115.374299 
L 350.754545 108.135365 
L 354.559091 98.967724 
L 358.363636 88.075698 
L 362.168182 77.523187 
L 365.972727 69.307055 
L 369.777273 64.827339 
L 373.581818 65.150249 
" style="fill:none;stroke:#1f77b4;stroke-linecap:square;stroke-width:1.5;"/>
   </g>
   <g id="line2d_2">
    <path clip-path="url(#p1b0e37e202)" d="M 69.218182 129.285442 
L 73.022727 128.590057 
L 76.827273 126.803615 
L 80.631818 124.268035 
L 84.436364 122.047407 
L 88.240909 121.701341 
L 92.045455 124.342479 
L 95.85 130.052292 
L 99.654545 136.850946 
L 103.459091 142.601112 
L 107.263636 147.197208 
L 111.068182 151.770859 
L 114.872727 157.250834 
L 118.677273 163.831664 
L 122.481818 170.880204 
L 126.286364 177.535805 
L 130.090909 183.021137 
L 133.895455 186.547091 
L 137.7 188.029968 
L 141.504545 187.547971 
L 145.309091 184.547914 
L 149.113636 178.734727 
L 152.918182 170.614738 
L 156.722727 161.168417 
L 160.527273 151.361007 
L 164.331818 142.085128 
L 168.136364 135.385178 
L 171.940909 132.26332 
L 175.745455 131.227133 
L 179.55 131.138088 
L 183.354545 131.75922 
L 187.159091 133.086621 
L 190.963636 135.30905 
L 194.768182 138.339347 
L 198.572727 141.588108 
L 202.377273 143.113071 
L 206.181818 141.520056 
L 209.986364 138.125472 
L 213.790909 135.241683 
L 217.595455 133.896316 
L 221.4 133.749381 
L 225.204545 134.223651 
L 229.009091 135.198444 
L 232.813636 136.809341 
L 236.618182 139.372487 
L 240.422727 143.272665 
L 244.227273 147.901405 
L 248.031818 151.896549 
L 251.836364 154.294021 
L 255.640909 155.009052 
L 259.445455 154.479625 
L 263.25 153.5141 
L 267.054545 153.102474 
L 270.859091 152.944547 
L 274.663636 152.237263 
L 278.468182 150.280382 
L 282.272727 147.072166 
L 286.077273 144.279594 
L 289.881818 143.847203 
L 293.686364 146.563661 
L 297.490909 151.217198 
L 301.295455 155.250499 
L 305.1 157.724072 
L 308.904545 159.13554 
L 312.709091 160.431475 
L 316.513636 163.021532 
L 320.318182 166.839615 
L 324.122727 170.668622 
L 327.927273 173.218459 
L 331.731818 173.42631 
L 335.536364 171.90365 
L 339.340909 169.89699 
L 343.145455 167.628014 
L 346.95 164.943095 
L 350.754545 160.95762 
L 354.559091 155.580714 
L 358.363636 149.099471 
L 362.168182 142.380869 
L 365.972727 137.266324 
L 369.777273 133.90282 
L 373.581818 131.485906 
" style="fill:none;stroke:#ff7f0e;stroke-linecap:square;stroke-width:1.5;"/>
   </g>
   <g id="line2d_3">
    <path clip-path="url(#p1b0e37e202)" d="M 69.218182 121.4173 
L 73.022727 123.812179 
L 76.827273 127.172816 
L 80.631818 129.406464 
L 84.436364 128.538845 
L 88.240909 124.837097 
L 92.045455 120.839013 
L 95.85 119.609471 
L 99.654545 122.475728 
L 103.459091 129.224677 
L 107.263636 138.490496 
L 111.068182 148.04236 
L 114.872727 156.007295 
L 118.677273 161.76305 
L 122.481818 166.463908 
L 126.286364 171.950991 
L 130.090909 178.016072 
L 133.895455 182.50732 
L 137.7 183.024227 
L 141.504545 179.22652 
L 145.309091 172.553096 
L 149.113636 164.06071 
L 152.918182 155.15208 
L 156.722727 146.482029 
L 160.527273 136.814825 
L 164.331818 126.250745 
L 168.136364 117.003339 
L 171.940909 111.2372 
L 175.745455 109.858178 
L 179.55 111.09983 
L 183.354545 113.188006 
L 187.159091 115.711694 
L 190.963636 118.384008 
L 194.768182 121.34164 
L 198.572727 124.87128 
L 202.377273 128.081297 
L 206.181818 128.621822 
L 209.986364 125.229439 
L 213.790909 120.335572 
L 217.595455 117.316717 
L 221.4 117.031345 
L 225.204545 118.772708 
L 229.009091 121.370511 
L 232.813636 122.855225 
L 236.618182 121.617617 
L 240.422727 119.408129 
L 244.227273 119.469165 
L 248.031818 122.736229 
L 251.836364 128.108506 
L 255.640909 133.104554 
L 259.445455 135.046654 
L 263.25 133.267279 
L 267.054545 129.164319 
L 270.859091 124.731112 
L 274.663636 121.395089 
L 278.468182 119.732819 
L 282.272727 119.971509 
L 286.077273 122.49049 
L 289.881818 127.705445 
L 293.686364 134.932748 
L 297.490909 141.955818 
L 301.295455 147.091629 
L 305.1 151.378128 
L 308.904545 157.167442 
L 312.709091 165.157921 
L 316.513636 175.014176 
L 320.318182 184.466148 
L 324.122727 190.245886 
L 327.927273 190.817375 
L 331.731818 186.344018 
L 335.536364 178.701452 
L 339.340909 170.566182 
L 343.145455 164.115003 
L 346.95 159.81556 
L 350.754545 156.56955 
L 354.559091 152.853468 
L 358.363636 147.036646 
L 362.168182 139.247002 
L 365.972727 131.51374 
L 369.777273 124.926526 
L 373.581818 120.51985 
" style="fill:none;stroke:#2ca02c;stroke-linecap:square;stroke-width:1.5;"/>
   </g>
   <g id="line2d_4">
    <path clip-path="url(#p1b0e37e202)" d="M 69.218182 163.818995 
L 73.022727 161.045462 
L 76.827273 157.620134 
L 80.631818 155.74257 
L 84.436364 156.182654 
L 88.240909 157.982681 
L 92.045455 160.10973 
L 95.85 161.633961 
L 99.654545 161.469878 
L 103.459091 160.665823 
L 107.263636 162.179436 
L 111.068182 167.039897 
L 114.872727 173.600441 
L 118.677273 180.226425 
L 122.481818 185.488324 
L 126.286364 188.622956 
L 130.090909 190.537887 
L 133.895455 191.979705 
L 137.7 192.929453 
L 141.504545 193.187984 
L 145.309091 192.29976 
L 149.113636 189.101011 
L 152.918182 182.307345 
L 156.722727 173.079268 
L 160.527273 163.951105 
L 164.331818 156.144264 
L 168.136364 150.615325 
L 171.940909 148.100647 
L 175.745455 147.841716 
L 179.55 147.596197 
L 183.354545 146.876469 
L 187.159091 147.134577 
L 190.963636 149.299181 
L 194.768182 153.34985 
L 198.572727 158.216018 
L 202.377273 161.71298 
L 206.181818 161.647504 
L 209.986364 158.020347 
L 213.790909 153.394005 
L 217.595455 149.205644 
L 221.4 145.909158 
L 225.204545 143.620726 
L 229.009091 141.868675 
L 232.813636 141.683836 
L 236.618182 144.461875 
L 240.422727 149.97309 
L 244.227273 156.388236 
L 248.031818 162.266983 
L 251.836364 167.052004 
L 255.640909 169.435418 
L 259.445455 168.821341 
L 263.25 166.778969 
L 267.054545 164.869324 
L 270.859091 163.77865 
L 274.663636 163.819147 
L 278.468182 164.599136 
L 282.272727 164.911841 
L 286.077273 164.508155 
L 289.881818 164.665419 
L 293.686364 166.477746 
L 297.490909 169.486299 
L 301.295455 172.502852 
L 305.1 175.114566 
L 308.904545 177.925331 
L 312.709091 181.38735 
L 316.513636 185.76688 
L 320.318182 190.775352 
L 324.122727 195.058969 
L 327.927273 197.0867 
L 331.731818 196.095125 
L 335.536364 192.04219 
L 339.340909 185.729102 
L 343.145455 179.317024 
L 346.95 175.049184 
L 350.754545 173.303722 
L 354.559091 172.740512 
L 358.363636 171.74009 
L 362.168182 169.167404 
L 365.972727 164.925587 
L 369.777273 159.919631 
L 373.581818 155.784457 
" style="fill:none;stroke:#d62728;stroke-linecap:square;stroke-width:1.5;"/>
   </g>
   <g id="line2d_5">
    <path clip-path="url(#p1b0e37e202)" d="M 69.218182 146.045494 
L 73.022727 146.53719 
L 76.827273 148.399458 
L 80.631818 151.868182 
L 84.436364 156.835529 
L 88.240909 162.366534 
L 92.045455 167.935062 
L 95.85 173.741402 
L 99.654545 179.573209 
L 103.459091 185.043094 
L 107.263636 190.676747 
L 111.068182 196.807613 
L 114.872727 202.758815 
L 118.677273 207.923818 
L 122.481818 212.117429 
L 126.286364 215.627995 
L 130.090909 218.340594 
L 133.895455 220.32755 
L 137.7 221.862107 
L 141.504545 222.82561 
L 145.309091 223.338792 
L 149.113636 223.530442 
L 152.918182 223.111861 
L 156.722727 222.08142 
L 160.527273 220.536213 
L 164.331818 218.171174 
L 168.136364 215.06822 
L 171.940909 212.126003 
L 175.745455 209.705341 
L 179.55 207.809893 
L 183.354545 206.609885 
L 187.159091 205.736525 
L 190.963636 204.307723 
L 194.768182 201.668666 
L 198.572727 197.867655 
L 202.377273 191.846809 
L 206.181818 182.670813 
L 209.986364 171.816159 
L 213.790909 161.518014 
L 217.595455 152.619425 
L 221.4 144.74235 
L 225.204545 138.191728 
L 229.009091 133.595219 
L 232.813636 130.620882 
L 236.618182 129.238208 
L 240.422727 129.22841 
L 244.227273 130.296999 
L 248.031818 131.880082 
L 251.836364 133.319951 
L 255.640909 134.369989 
L 259.445455 134.792389 
L 263.25 135.280463 
L 267.054545 136.473435 
L 270.859091 138.628117 
L 274.663636 142.349644 
L 278.468182 147.142779 
L 282.272727 151.533796 
L 286.077273 155.029576 
L 289.881818 159.035862 
L 293.686364 164.607085 
L 297.490909 171.007736 
L 301.295455 177.847546 
L 305.1 184.78848 
L 308.904545 190.341159 
L 312.709091 193.603235 
L 316.513636 196.113673 
L 320.318182 199.712251 
L 324.122727 204.358875 
L 327.927273 209.129917 
L 331.731818 213.078477 
L 335.536364 215.498053 
L 339.340909 216.771339 
L 343.145455 217.799443 
L 346.95 218.794094 
L 350.754545 218.970858 
L 354.559091 217.617655 
L 358.363636 215.250879 
L 362.168182 212.934304 
L 365.972727 210.447642 
L 369.777273 206.79316 
L 373.581818 200.896908 
" style="fill:none;stroke:#9467bd;stroke-linecap:square;stroke-width:1.5;"/>
   </g>
   <g id="line2d_6">
    <path clip-path="url(#p1b0e37e202)" d="M 69.218182 152.530935 
L 73.022727 156.431775 
L 76.827273 161.066521 
L 80.631818 165.697124 
L 84.436364 168.980439 
L 88.240909 170.257148 
L 92.045455 170.00533 
L 95.85 168.899866 
L 99.654545 167.619695 
L 103.459091 166.951181 
L 107.263636 168.382351 
L 111.068182 173.166376 
L 114.872727 180.617835 
L 118.677273 188.49113 
L 122.481818 194.890048 
L 126.286364 199.375295 
L 130.090909 201.574902 
L 133.895455 201.162184 
L 137.7 198.432479 
L 141.504545 194.156453 
L 145.309091 189.418706 
L 149.113636 184.932033 
L 152.918182 180.725023 
L 156.722727 175.890271 
L 160.527273 168.800649 
L 164.331818 160.010381 
L 168.136364 152.835065 
L 171.940909 149.423123 
L 175.745455 149.191908 
L 179.55 150.071143 
L 183.354545 150.761564 
L 187.159091 150.615682 
L 190.963636 149.662034 
L 194.768182 148.692726 
L 198.572727 147.456832 
L 202.377273 145.434478 
L 206.181818 142.498435 
L 209.986364 138.719981 
L 213.790909 135.54811 
L 217.595455 133.781439 
L 221.4 132.961255 
L 225.204545 132.048435 
L 229.009091 130.455126 
L 232.813636 128.746577 
L 236.618182 126.856977 
L 240.422727 125.735403 
L 244.227273 127.436886 
L 248.031818 132.272463 
L 251.836364 138.189667 
L 255.640909 142.480337 
L 259.445455 144.03181 
L 263.25 143.274768 
L 267.054545 141.267857 
L 270.859091 139.600945 
L 274.663636 139.247448 
L 278.468182 140.085563 
L 282.272727 141.339249 
L 286.077273 142.461884 
L 289.881818 143.95747 
L 293.686364 145.698681 
L 297.490909 147.589692 
L 301.295455 150.807739 
L 305.1 156.019067 
L 308.904545 163.323572 
L 312.709091 171.855414 
L 316.513636 179.809856 
L 320.318182 185.643727 
L 324.122727 188.447945 
L 327.927273 188.28098 
L 331.731818 185.599905 
L 335.536364 180.917501 
L 339.340909 175.493238 
L 343.145455 171.087117 
L 346.95 167.885153 
L 350.754545 165.353438 
L 354.559091 162.36679 
L 358.363636 156.635145 
L 362.168182 148.395564 
L 365.972727 140.248571 
L 369.777273 134.937319 
L 373.581818 134.209242 
" style="fill:none;stroke:#8c564b;stroke-linecap:square;stroke-width:1.5;"/>
   </g>
   <g id="line2d_7">
    <path clip-path="url(#p1b0e37e202)" d="M 69.218182 152.176985 
L 73.022727 157.107128 
L 76.827273 161.713931 
L 80.631818 163.618378 
L 84.436364 162.883002 
L 88.240909 160.974456 
L 92.045455 160.04389 
L 95.85 161.566346 
L 99.654545 165.26881 
L 103.459091 170.652925 
L 107.263636 177.429193 
L 111.068182 185.205292 
L 114.872727 193.641751 
L 118.677273 201.705281 
L 122.481818 207.981353 
L 126.286364 211.712313 
L 130.090909 213.292692 
L 133.895455 213.295777 
L 137.7 211.843727 
L 141.504545 209.295062 
L 145.309091 205.833524 
L 149.113636 200.915642 
L 152.918182 194.870649 
L 156.722727 188.51424 
L 160.527273 181.557102 
L 164.331818 173.889921 
L 168.136364 167.084954 
L 171.940909 163.180197 
L 175.745455 162.289961 
L 179.55 163.268583 
L 183.354545 165.987438 
L 187.159091 169.585965 
L 190.963636 172.323869 
L 194.768182 173.639406 
L 198.572727 173.087237 
L 202.377273 170.118133 
L 206.181818 164.760247 
L 209.986364 158.866731 
L 213.790909 155.017425 
L 217.595455 153.543368 
L 221.4 153.813986 
L 225.204545 154.630949 
L 229.009091 154.798058 
L 232.813636 154.459906 
L 236.618182 153.810199 
L 240.422727 153.503458 
L 244.227273 153.976071 
L 248.031818 155.190706 
L 251.836364 157.228745 
L 255.640909 159.004616 
L 259.445455 160.05132 
L 263.25 160.547151 
L 267.054545 160.401095 
L 270.859091 160.332971 
L 274.663636 161.162629 
L 278.468182 162.923551 
L 282.272727 164.790645 
L 286.077273 166.215061 
L 289.881818 167.684203 
L 293.686364 169.137639 
L 297.490909 170.504476 
L 301.295455 172.513319 
L 305.1 175.712636 
L 308.904545 180.351755 
L 312.709091 186.229643 
L 316.513636 192.834667 
L 320.318182 198.205738 
L 324.122727 200.396669 
L 327.927273 199.688244 
L 331.731818 197.088822 
L 335.536364 193.543422 
L 339.340909 190.460408 
L 343.145455 188.211568 
L 346.95 185.404405 
L 350.754545 180.594249 
L 354.559091 174.216723 
L 358.363636 167.162013 
L 362.168182 160.349142 
L 365.972727 154.987267 
L 369.777273 150.897969 
L 373.581818 147.560845 
" style="fill:none;stroke:#e377c2;stroke-linecap:square;stroke-width:1.5;"/>
   </g>
   <g id="line2d_8">
    <path clip-path="url(#p1b0e37e202)" d="M 69.218182 120.579568 
L 73.022727 122.65614 
L 76.827273 120.154822 
L 80.631818 115.352136 
L 84.436364 110.816311 
L 88.240909 108.559358 
L 92.045455 110.05634 
L 95.85 114.24781 
L 99.654545 118.237275 
L 103.459091 120.645869 
L 107.263636 121.967753 
L 111.068182 124.134414 
L 114.872727 128.778381 
L 118.677273 136.05515 
L 122.481818 144.592444 
L 126.286364 151.697814 
L 130.090909 155.408802 
L 133.895455 154.654404 
L 137.7 149.716466 
L 141.504545 142.611236 
L 145.309091 134.499504 
L 149.113636 125.938061 
L 152.918182 118.000077 
L 156.722727 112.029257 
L 160.527273 108.895463 
L 164.331818 108.6281 
L 168.136364 110.07618 
L 171.940909 110.846475 
L 175.745455 109.942825 
L 179.55 108.396911 
L 183.354545 107.927418 
L 187.159091 109.389511 
L 190.963636 112.491564 
L 194.768182 115.788031 
L 198.572727 116.760356 
L 202.377273 114.447638 
L 206.181818 110.25626 
L 209.986364 105.272035 
L 213.790909 100.846506 
L 217.595455 99.384806 
L 221.4 101.684154 
L 225.204545 105.817963 
L 229.009091 109.906234 
L 232.813636 112.745175 
L 236.618182 113.554076 
L 240.422727 112.876359 
L 244.227273 112.560307 
L 248.031818 114.386168 
L 251.836364 117.634785 
L 255.640909 120.784786 
L 259.445455 123.00382 
L 263.25 123.104283 
L 267.054545 121.49616 
L 270.859091 120.057875 
L 274.663636 119.489884 
L 278.468182 119.560221 
L 282.272727 118.954979 
L 286.077273 117.135625 
L 289.881818 115.296553 
L 293.686364 114.862549 
L 297.490909 117.141566 
L 301.295455 122.230583 
L 305.1 128.694864 
L 308.904545 135.348087 
L 312.709091 141.47699 
L 316.513636 147.317013 
L 320.318182 152.538817 
L 324.122727 155.60948 
L 327.927273 154.961078 
L 331.731818 150.001232 
L 335.536364 142.232601 
L 339.340909 133.799267 
L 343.145455 126.512915 
L 346.95 120.76116 
L 350.754545 115.584842 
L 354.559091 111.185574 
L 358.363636 107.423131 
L 362.168182 104.35726 
L 365.972727 102.236664 
L 369.777273 99.886144 
L 373.581818 97.744703 
" style="fill:none;stroke:#7f7f7f;stroke-linecap:square;stroke-width:1.5;"/>
   </g>
   <g id="line2d_9">
    <path clip-path="url(#p1b0e37e202)" d="M 69.218182 209.01653 
L 73.022727 209.548877 
L 76.827273 210.572317 
L 80.631818 212.263569 
L 84.436364 214.215114 
L 88.240909 216.278644 
L 92.045455 218.523793 
L 95.85 220.45116 
L 99.654545 222.386953 
L 103.459091 225.024313 
L 107.263636 228.396294 
L 111.068182 232.276926 
L 114.872727 236.247256 
L 118.677273 240.248714 
L 122.481818 243.81405 
L 126.286364 245.938271 
L 130.090909 246.24 
L 133.895455 244.906841 
L 137.7 242.839728 
L 141.504545 241.082056 
L 145.309091 239.888906 
L 149.113636 238.83521 
L 152.918182 237.204758 
L 156.722727 235.189033 
L 160.527273 233.309192 
L 164.331818 232.027683 
L 168.136364 231.77386 
L 171.940909 231.712749 
L 175.745455 230.73397 
L 179.55 228.323809 
L 183.354545 225.315397 
L 187.159091 222.874004 
L 190.963636 220.804467 
L 194.768182 219.122578 
L 198.572727 217.889164 
L 202.377273 216.168398 
L 206.181818 213.308944 
L 209.986364 209.343077 
L 213.790909 205.20278 
L 217.595455 201.346696 
L 221.4 197.740187 
L 225.204545 194.628181 
L 229.009091 192.133276 
L 232.813636 190.7319 
L 236.618182 190.78259 
L 240.422727 192.638035 
L 244.227273 196.078761 
L 248.031818 199.767981 
L 251.836364 202.291179 
L 255.640909 203.076755 
L 259.445455 203.085973 
L 263.25 203.516542 
L 267.054545 205.002782 
L 270.859091 208.164309 
L 274.663636 212.30148 
L 278.468182 215.94738 
L 282.272727 218.282938 
L 286.077273 219.578949 
L 289.881818 220.662626 
L 293.686364 222.22022 
L 297.490909 224.594039 
L 301.295455 227.168336 
L 305.1 229.442461 
L 308.904545 231.817374 
L 312.709091 234.490417 
L 316.513636 237.335011 
L 320.318182 240.021527 
L 324.122727 242.151578 
L 327.927273 243.493403 
L 331.731818 243.99359 
L 335.536364 243.929806 
L 339.340909 242.840369 
L 343.145455 240.332069 
L 346.95 236.964637 
L 350.754545 233.49464 
L 354.559091 230.647318 
L 358.363636 228.624008 
L 362.168182 227.231551 
L 365.972727 226.203372 
L 369.777273 225.257331 
L 373.581818 224.407178 
" style="fill:none;stroke:#bcbd22;stroke-linecap:square;stroke-width:1.5;"/>
   </g>
  </g>
 </g>
 <defs>
  <clipPath id="p1b0e37e202">
   <rect height="221.76" width="334.8" x="54" y="34.56"/>
  </clipPath>
 </defs>
</svg>
